<mxfile host="app.diagrams.net" modified="2021-07-13T08:33:15.358Z" agent="5.0 (Macintosh; Intel Mac OS X 10_15_0) AppleWebKit/537.36 (KHTML, like Gecko) Chrome/91.0.4472.114 Safari/537.36" etag="BfYGMw5D6CkbYqDuwq9u" version="14.8.5" type="github" pages="2">
  <diagram id="yA1kL-B6gW4pzDDukxj0" name="Page-1">
    <mxGraphModel dx="2253" dy="1963" grid="1" gridSize="10" guides="1" tooltips="1" connect="1" arrows="1" fold="1" page="1" pageScale="1" pageWidth="827" pageHeight="1169" math="0" shadow="0">
      <root>
        <mxCell id="0" />
        <mxCell id="1" parent="0" />
        <mxCell id="m_g_pHxch7K9zR3h8Tit-134" value="" style="rounded=0;whiteSpace=wrap;html=1;shadow=1;glass=0;sketch=1;align=left;fillColor=#ffff88;strokeColor=#36393d;" parent="1" vertex="1">
          <mxGeometry x="3200" y="400" width="1400" height="520" as="geometry" />
        </mxCell>
        <mxCell id="m_g_pHxch7K9zR3h8Tit-154" value="" style="rounded=0;whiteSpace=wrap;html=1;shadow=0;glass=0;sketch=0;fillColor=#FFCE9F;gradientColor=#ffffff;align=center;dashed=1;" parent="1" vertex="1">
          <mxGeometry x="3710" y="430" width="870" height="470" as="geometry" />
        </mxCell>
        <mxCell id="m_g_pHxch7K9zR3h8Tit-44" value="" style="rounded=0;whiteSpace=wrap;html=1;fillColor=#cce5ff;strokeColor=#36393d;" parent="1" vertex="1">
          <mxGeometry x="720" y="-240" width="1780" height="510" as="geometry" />
        </mxCell>
        <mxCell id="m_g_pHxch7K9zR3h8Tit-46" value="" style="rounded=1;whiteSpace=wrap;html=1;" parent="1" vertex="1">
          <mxGeometry x="820" y="-120" width="1210" height="360" as="geometry" />
        </mxCell>
        <mxCell id="m_g_pHxch7K9zR3h8Tit-15" value="" style="rounded=0;whiteSpace=wrap;html=1;fillColor=#fff2cc;strokeColor=#d6b656;" parent="1" vertex="1">
          <mxGeometry x="-20" y="-240" width="640" height="530" as="geometry" />
        </mxCell>
        <mxCell id="m_g_pHxch7K9zR3h8Tit-31" value="" style="rounded=0;whiteSpace=wrap;html=1;fillColor=#ffff88;strokeColor=#36393d;" parent="1" vertex="1">
          <mxGeometry x="840" y="10" width="1170" height="170" as="geometry" />
        </mxCell>
        <mxCell id="m_g_pHxch7K9zR3h8Tit-11" value="" style="rounded=0;whiteSpace=wrap;html=1;fillColor=#f8cecc;strokeColor=#b85450;" parent="1" vertex="1">
          <mxGeometry x="2570" y="-180" width="530" height="260" as="geometry" />
        </mxCell>
        <mxCell id="m_g_pHxch7K9zR3h8Tit-1" value="Xiaochengxinyizhan.java" style="rounded=0;whiteSpace=wrap;html=1;fillColor=#dae8fc;strokeColor=#6c8ebf;" parent="1" vertex="1">
          <mxGeometry x="40" y="65" width="140" height="60" as="geometry" />
        </mxCell>
        <mxCell id="m_g_pHxch7K9zR3h8Tit-2" value="Xiaochengxinyizhan.class" style="rounded=0;whiteSpace=wrap;html=1;fillColor=#ffe6cc;strokeColor=#d79b00;" parent="1" vertex="1">
          <mxGeometry x="2590.52" y="-131.91" width="190" height="60" as="geometry" />
        </mxCell>
        <mxCell id="m_g_pHxch7K9zR3h8Tit-4" value="javac&amp;nbsp; xx.java" style="text;html=1;strokeColor=none;fillColor=none;align=center;verticalAlign=middle;whiteSpace=wrap;rounded=0;" parent="1" vertex="1">
          <mxGeometry x="414" y="65" width="90" height="20" as="geometry" />
        </mxCell>
        <mxCell id="m_g_pHxch7K9zR3h8Tit-5" value="public class Xiaochengxinyizhan{&lt;br&gt;public static void main(String args[]){&lt;br&gt;private Yizhan yizhan = new Yizhan();&lt;br&gt;drink(yizhan);&lt;br&gt;}&lt;br&gt;public static String drink(Yizhan yizhan){&lt;br&gt;}&lt;br&gt;}" style="shape=document;whiteSpace=wrap;html=1;boundedLbl=1;align=left;" parent="1" vertex="1">
          <mxGeometry x="20" y="-180" width="230" height="170" as="geometry" />
        </mxCell>
        <mxCell id="m_g_pHxch7K9zR3h8Tit-6" value="Yizhan.class" style="rounded=0;whiteSpace=wrap;html=1;fillColor=#ffe6cc;strokeColor=#d79b00;" parent="1" vertex="1">
          <mxGeometry x="2590.52" y="-41.91" width="190" height="60" as="geometry" />
        </mxCell>
        <mxCell id="m_g_pHxch7K9zR3h8Tit-8" value="Maven/Gradle" style="rounded=0;whiteSpace=wrap;html=1;fillColor=#dae8fc;strokeColor=#6c8ebf;" parent="1" vertex="1">
          <mxGeometry x="280" y="-60" width="120" height="60" as="geometry" />
        </mxCell>
        <mxCell id="m_g_pHxch7K9zR3h8Tit-9" value="" style="endArrow=classic;html=1;exitX=1;exitY=0.25;exitDx=0;exitDy=0;" parent="1" source="m_g_pHxch7K9zR3h8Tit-5" edge="1">
          <mxGeometry width="50" height="50" relative="1" as="geometry">
            <mxPoint x="300" y="-120" as="sourcePoint" />
            <mxPoint x="340" y="-60" as="targetPoint" />
            <Array as="points">
              <mxPoint x="340" y="-137" />
            </Array>
          </mxGeometry>
        </mxCell>
        <mxCell id="m_g_pHxch7K9zR3h8Tit-10" value="" style="endArrow=classic;html=1;exitX=1;exitY=0.5;exitDx=0;exitDy=0;" parent="1" source="m_g_pHxch7K9zR3h8Tit-8" edge="1">
          <mxGeometry width="50" height="50" relative="1" as="geometry">
            <mxPoint x="150" y="40" as="sourcePoint" />
            <mxPoint x="820" y="-30" as="targetPoint" />
            <Array as="points" />
          </mxGeometry>
        </mxCell>
        <mxCell id="m_g_pHxch7K9zR3h8Tit-14" value="compile" style="edgeLabel;html=1;align=center;verticalAlign=middle;resizable=0;points=[];" parent="m_g_pHxch7K9zR3h8Tit-10" vertex="1" connectable="0">
          <mxGeometry x="-0.1429" relative="1" as="geometry">
            <mxPoint as="offset" />
          </mxGeometry>
        </mxCell>
        <mxCell id="m_g_pHxch7K9zR3h8Tit-12" value="" style="endArrow=classic;html=1;exitX=1;exitY=0.5;exitDx=0;exitDy=0;" parent="1" source="m_g_pHxch7K9zR3h8Tit-1" edge="1">
          <mxGeometry width="50" height="50" relative="1" as="geometry">
            <mxPoint x="90" y="230" as="sourcePoint" />
            <mxPoint x="820" y="95" as="targetPoint" />
          </mxGeometry>
        </mxCell>
        <mxCell id="m_g_pHxch7K9zR3h8Tit-13" value="" style="endArrow=classic;html=1;entryX=0.5;entryY=0;entryDx=0;entryDy=0;" parent="1" target="m_g_pHxch7K9zR3h8Tit-1" edge="1">
          <mxGeometry width="50" height="50" relative="1" as="geometry">
            <mxPoint x="110" y="-20" as="sourcePoint" />
            <mxPoint x="80" y="-5" as="targetPoint" />
          </mxGeometry>
        </mxCell>
        <mxCell id="m_g_pHxch7K9zR3h8Tit-16" value="代码项目区" style="text;html=1;strokeColor=none;fillColor=none;align=center;verticalAlign=middle;whiteSpace=wrap;rounded=0;" parent="1" vertex="1">
          <mxGeometry x="150" y="-220" width="90" height="20" as="geometry" />
        </mxCell>
        <mxCell id="m_g_pHxch7K9zR3h8Tit-18" value="源代码" style="shape=process;whiteSpace=wrap;html=1;backgroundOutline=1;fillColor=#ffcc99;strokeColor=#36393d;" parent="1" vertex="1">
          <mxGeometry x="850" y="20" width="70" height="150" as="geometry" />
        </mxCell>
        <mxCell id="m_g_pHxch7K9zR3h8Tit-19" value="词法分析器" style="shape=process;whiteSpace=wrap;html=1;backgroundOutline=1;fillColor=#dae8fc;strokeColor=#6c8ebf;gradientColor=#7ea6e0;" parent="1" vertex="1">
          <mxGeometry x="960" y="20" width="70" height="150" as="geometry" />
        </mxCell>
        <mxCell id="m_g_pHxch7K9zR3h8Tit-20" value="Token流" style="shape=process;whiteSpace=wrap;html=1;backgroundOutline=1;fillColor=#ffcc99;strokeColor=#36393d;" parent="1" vertex="1">
          <mxGeometry x="1070" y="20" width="70" height="150" as="geometry" />
        </mxCell>
        <mxCell id="m_g_pHxch7K9zR3h8Tit-21" value="语法分析器&amp;nbsp;" style="shape=process;whiteSpace=wrap;html=1;backgroundOutline=1;fillColor=#dae8fc;strokeColor=#6c8ebf;gradientColor=#7ea6e0;" parent="1" vertex="1">
          <mxGeometry x="1170" y="20" width="70" height="150" as="geometry" />
        </mxCell>
        <mxCell id="m_g_pHxch7K9zR3h8Tit-22" value="语法树/抽象语法树" style="shape=process;whiteSpace=wrap;html=1;backgroundOutline=1;fillColor=#ffcc99;strokeColor=#36393d;" parent="1" vertex="1">
          <mxGeometry x="1270" y="20" width="70" height="150" as="geometry" />
        </mxCell>
        <mxCell id="m_g_pHxch7K9zR3h8Tit-29" value="语义分析器" style="shape=process;whiteSpace=wrap;html=1;backgroundOutline=1;fillColor=#dae8fc;strokeColor=#6c8ebf;gradientColor=#7ea6e0;" parent="1" vertex="1">
          <mxGeometry x="1380" y="25" width="70" height="145" as="geometry" />
        </mxCell>
        <mxCell id="m_g_pHxch7K9zR3h8Tit-30" value="注解抽象语法树" style="shape=process;whiteSpace=wrap;html=1;backgroundOutline=1;fillColor=#ffcc99;strokeColor=#36393d;" parent="1" vertex="1">
          <mxGeometry x="1490" y="20" width="70" height="70" as="geometry" />
        </mxCell>
        <mxCell id="m_g_pHxch7K9zR3h8Tit-32" value="" style="endArrow=classic;html=1;entryX=0;entryY=0.5;entryDx=0;entryDy=0;" parent="1" target="m_g_pHxch7K9zR3h8Tit-11" edge="1">
          <mxGeometry width="50" height="50" relative="1" as="geometry">
            <mxPoint x="1980" y="50" as="sourcePoint" />
            <mxPoint x="1425" y="320" as="targetPoint" />
            <Array as="points">
              <mxPoint x="2050" y="50" />
              <mxPoint x="2050" y="-50" />
            </Array>
          </mxGeometry>
        </mxCell>
        <mxCell id="m_g_pHxch7K9zR3h8Tit-33" value="优化器(可选)" style="shape=process;whiteSpace=wrap;html=1;backgroundOutline=1;fillColor=#eeeeee;strokeColor=#36393d;" parent="1" vertex="1">
          <mxGeometry x="1590" y="20" width="70" height="70" as="geometry" />
        </mxCell>
        <mxCell id="m_g_pHxch7K9zR3h8Tit-34" value="中间代码生成器（可选）" style="shape=process;whiteSpace=wrap;html=1;backgroundOutline=1;fillColor=#eeeeee;strokeColor=#36393d;" parent="1" vertex="1">
          <mxGeometry x="1700" y="20" width="70" height="70" as="geometry" />
        </mxCell>
        <mxCell id="m_g_pHxch7K9zR3h8Tit-35" value="" style="endArrow=classic;html=1;exitX=1;exitY=0.5;exitDx=0;exitDy=0;entryX=0;entryY=0.5;entryDx=0;entryDy=0;" parent="1" source="m_g_pHxch7K9zR3h8Tit-18" target="m_g_pHxch7K9zR3h8Tit-19" edge="1">
          <mxGeometry width="50" height="50" relative="1" as="geometry">
            <mxPoint x="920" y="120" as="sourcePoint" />
            <mxPoint x="970" y="70" as="targetPoint" />
          </mxGeometry>
        </mxCell>
        <mxCell id="m_g_pHxch7K9zR3h8Tit-36" value="" style="endArrow=classic;html=1;exitX=1;exitY=0.5;exitDx=0;exitDy=0;entryX=0;entryY=0.5;entryDx=0;entryDy=0;" parent="1" source="m_g_pHxch7K9zR3h8Tit-19" target="m_g_pHxch7K9zR3h8Tit-20" edge="1">
          <mxGeometry width="50" height="50" relative="1" as="geometry">
            <mxPoint x="1040" y="80" as="sourcePoint" />
            <mxPoint x="1090" y="30" as="targetPoint" />
          </mxGeometry>
        </mxCell>
        <mxCell id="m_g_pHxch7K9zR3h8Tit-37" value="" style="endArrow=classic;html=1;exitX=1;exitY=0.5;exitDx=0;exitDy=0;entryX=0;entryY=0.5;entryDx=0;entryDy=0;" parent="1" source="m_g_pHxch7K9zR3h8Tit-20" target="m_g_pHxch7K9zR3h8Tit-21" edge="1">
          <mxGeometry width="50" height="50" relative="1" as="geometry">
            <mxPoint x="1130" y="60" as="sourcePoint" />
            <mxPoint x="1180" y="10" as="targetPoint" />
          </mxGeometry>
        </mxCell>
        <mxCell id="m_g_pHxch7K9zR3h8Tit-38" value="" style="endArrow=classic;html=1;exitX=1;exitY=0.5;exitDx=0;exitDy=0;" parent="1" source="m_g_pHxch7K9zR3h8Tit-21" edge="1">
          <mxGeometry width="50" height="50" relative="1" as="geometry">
            <mxPoint x="1220" y="40" as="sourcePoint" />
            <mxPoint x="1270" y="95" as="targetPoint" />
          </mxGeometry>
        </mxCell>
        <mxCell id="m_g_pHxch7K9zR3h8Tit-39" value="" style="endArrow=classic;html=1;entryX=0;entryY=0.5;entryDx=0;entryDy=0;" parent="1" target="m_g_pHxch7K9zR3h8Tit-29" edge="1">
          <mxGeometry width="50" height="50" relative="1" as="geometry">
            <mxPoint x="1340" y="98" as="sourcePoint" />
            <mxPoint x="1320" y="250" as="targetPoint" />
          </mxGeometry>
        </mxCell>
        <mxCell id="m_g_pHxch7K9zR3h8Tit-40" value="" style="endArrow=classic;html=1;exitX=1;exitY=0.5;exitDx=0;exitDy=0;entryX=0;entryY=0.5;entryDx=0;entryDy=0;entryPerimeter=0;" parent="1" source="m_g_pHxch7K9zR3h8Tit-29" target="m_g_pHxch7K9zR3h8Tit-30" edge="1">
          <mxGeometry width="50" height="50" relative="1" as="geometry">
            <mxPoint x="1440" y="-30" as="sourcePoint" />
            <mxPoint x="1490" y="-80" as="targetPoint" />
          </mxGeometry>
        </mxCell>
        <mxCell id="m_g_pHxch7K9zR3h8Tit-41" value="" style="endArrow=classic;html=1;exitX=1;exitY=0.5;exitDx=0;exitDy=0;entryX=0;entryY=0.5;entryDx=0;entryDy=0;" parent="1" source="m_g_pHxch7K9zR3h8Tit-30" target="m_g_pHxch7K9zR3h8Tit-33" edge="1">
          <mxGeometry width="50" height="50" relative="1" as="geometry">
            <mxPoint x="1590" y="-50" as="sourcePoint" />
            <mxPoint x="1640" y="-100" as="targetPoint" />
          </mxGeometry>
        </mxCell>
        <mxCell id="m_g_pHxch7K9zR3h8Tit-42" value="" style="endArrow=classic;html=1;exitX=1;exitY=0.5;exitDx=0;exitDy=0;entryX=0;entryY=0.5;entryDx=0;entryDy=0;" parent="1" source="m_g_pHxch7K9zR3h8Tit-33" target="m_g_pHxch7K9zR3h8Tit-34" edge="1">
          <mxGeometry width="50" height="50" relative="1" as="geometry">
            <mxPoint x="1680" y="-70" as="sourcePoint" />
            <mxPoint x="1730" y="-120" as="targetPoint" />
          </mxGeometry>
        </mxCell>
        <mxCell id="m_g_pHxch7K9zR3h8Tit-43" value="字节码解释执行(编译过程)" style="text;html=1;strokeColor=none;fillColor=none;align=center;verticalAlign=middle;whiteSpace=wrap;rounded=0;" parent="1" vertex="1">
          <mxGeometry x="850" y="-150" width="180" height="20" as="geometry" />
        </mxCell>
        <mxCell id="m_g_pHxch7K9zR3h8Tit-45" value="Java执行引擎" style="text;html=1;strokeColor=none;fillColor=none;align=center;verticalAlign=middle;whiteSpace=wrap;rounded=0;" parent="1" vertex="1">
          <mxGeometry x="1610" y="-220" width="115" height="20" as="geometry" />
        </mxCell>
        <mxCell id="m_g_pHxch7K9zR3h8Tit-47" value="中间代码生成器" style="rounded=0;whiteSpace=wrap;html=1;shadow=1;sketch=1;" parent="1" vertex="1">
          <mxGeometry x="880" y="-80" width="120" height="60" as="geometry" />
        </mxCell>
        <mxCell id="m_g_pHxch7K9zR3h8Tit-48" value="代码优化器" style="rounded=0;whiteSpace=wrap;html=1;sketch=1;shadow=1;" parent="1" vertex="1">
          <mxGeometry x="1050" y="-80" width="120" height="60" as="geometry" />
        </mxCell>
        <mxCell id="m_g_pHxch7K9zR3h8Tit-49" value="目标代码生成器" style="rounded=0;whiteSpace=wrap;html=1;sketch=1;shadow=1;" parent="1" vertex="1">
          <mxGeometry x="1680" y="-80" width="120" height="60" as="geometry" />
        </mxCell>
        <mxCell id="m_g_pHxch7K9zR3h8Tit-50" value="JIT 即时编译器" style="text;html=1;strokeColor=none;align=center;verticalAlign=middle;whiteSpace=wrap;rounded=0;shadow=1;gradientColor=#ffffff;fillColor=#FFCE9F;" parent="1" vertex="1">
          <mxGeometry x="1352.5" y="-120" width="155" height="20" as="geometry" />
        </mxCell>
        <mxCell id="m_g_pHxch7K9zR3h8Tit-51" value="" style="endArrow=classic;html=1;exitX=0.5;exitY=0;exitDx=0;exitDy=0;entryX=0;entryY=0.5;entryDx=0;entryDy=0;dashed=1;" parent="1" source="m_g_pHxch7K9zR3h8Tit-47" target="m_g_pHxch7K9zR3h8Tit-50" edge="1">
          <mxGeometry width="50" height="50" relative="1" as="geometry">
            <mxPoint x="1120" y="-140" as="sourcePoint" />
            <mxPoint x="1170" y="-190" as="targetPoint" />
          </mxGeometry>
        </mxCell>
        <mxCell id="m_g_pHxch7K9zR3h8Tit-52" value="" style="endArrow=classic;html=1;dashed=1;exitX=0.5;exitY=0;exitDx=0;exitDy=0;entryX=1;entryY=0.75;entryDx=0;entryDy=0;" parent="1" source="m_g_pHxch7K9zR3h8Tit-49" target="m_g_pHxch7K9zR3h8Tit-50" edge="1">
          <mxGeometry width="50" height="50" relative="1" as="geometry">
            <mxPoint x="1500" y="-60" as="sourcePoint" />
            <mxPoint x="1550" y="-110" as="targetPoint" />
          </mxGeometry>
        </mxCell>
        <mxCell id="m_g_pHxch7K9zR3h8Tit-53" value="" style="endArrow=classic;html=1;dashed=1;entryX=0;entryY=0.75;entryDx=0;entryDy=0;exitX=0.5;exitY=0;exitDx=0;exitDy=0;" parent="1" source="m_g_pHxch7K9zR3h8Tit-48" target="m_g_pHxch7K9zR3h8Tit-50" edge="1">
          <mxGeometry width="50" height="50" relative="1" as="geometry">
            <mxPoint x="1120" y="440" as="sourcePoint" />
            <mxPoint x="1170" y="390" as="targetPoint" />
          </mxGeometry>
        </mxCell>
        <mxCell id="m_g_pHxch7K9zR3h8Tit-54" value="字节码生成器" style="shape=process;whiteSpace=wrap;html=1;backgroundOutline=1;fillColor=#dae8fc;strokeColor=#6c8ebf;gradientColor=#7ea6e0;" parent="1" vertex="1">
          <mxGeometry x="1800" y="20" width="70" height="70" as="geometry" />
        </mxCell>
        <mxCell id="m_g_pHxch7K9zR3h8Tit-55" value="JVM字节码" style="shape=process;whiteSpace=wrap;html=1;backgroundOutline=1;fillColor=#ffcc99;strokeColor=#36393d;" parent="1" vertex="1">
          <mxGeometry x="1910" y="20" width="70" height="70" as="geometry" />
        </mxCell>
        <mxCell id="m_g_pHxch7K9zR3h8Tit-56" value="" style="endArrow=classic;html=1;exitX=1;exitY=0.5;exitDx=0;exitDy=0;entryX=0;entryY=0.5;entryDx=0;entryDy=0;" parent="1" source="m_g_pHxch7K9zR3h8Tit-34" target="m_g_pHxch7K9zR3h8Tit-54" edge="1">
          <mxGeometry width="50" height="50" relative="1" as="geometry">
            <mxPoint x="1770" y="70" as="sourcePoint" />
            <mxPoint x="1820" y="20" as="targetPoint" />
          </mxGeometry>
        </mxCell>
        <mxCell id="m_g_pHxch7K9zR3h8Tit-57" value="" style="endArrow=classic;html=1;exitX=1;exitY=0.5;exitDx=0;exitDy=0;" parent="1" source="m_g_pHxch7K9zR3h8Tit-54" edge="1">
          <mxGeometry width="50" height="50" relative="1" as="geometry">
            <mxPoint x="1910" y="-10" as="sourcePoint" />
            <mxPoint x="1910" y="55" as="targetPoint" />
          </mxGeometry>
        </mxCell>
        <mxCell id="m_g_pHxch7K9zR3h8Tit-58" value="指令流(可选)" style="shape=process;whiteSpace=wrap;html=1;backgroundOutline=1;fillColor=#ffcc99;strokeColor=#36393d;" parent="1" vertex="1">
          <mxGeometry x="1490" y="100" width="70" height="70" as="geometry" />
        </mxCell>
        <mxCell id="m_g_pHxch7K9zR3h8Tit-59" value="" style="endArrow=classic;html=1;exitX=1;exitY=0.5;exitDx=0;exitDy=0;entryX=0;entryY=0.5;entryDx=0;entryDy=0;" parent="1" source="m_g_pHxch7K9zR3h8Tit-29" target="m_g_pHxch7K9zR3h8Tit-58" edge="1">
          <mxGeometry width="50" height="50" relative="1" as="geometry">
            <mxPoint x="1480" y="270" as="sourcePoint" />
            <mxPoint x="1530" y="220" as="targetPoint" />
          </mxGeometry>
        </mxCell>
        <mxCell id="m_g_pHxch7K9zR3h8Tit-60" value="解释器" style="rounded=1;whiteSpace=wrap;html=1;shadow=1;sketch=1;" parent="1" vertex="1">
          <mxGeometry x="2150" y="130" width="250" height="120" as="geometry" />
        </mxCell>
        <mxCell id="m_g_pHxch7K9zR3h8Tit-61" value="&lt;span style=&quot;color: rgb(85 , 86 , 102) ; font-family: , &amp;quot;sf ui text&amp;quot; , &amp;quot;arial&amp;quot; , &amp;quot;pingfang sc&amp;quot; , &amp;quot;hiragino sans gb&amp;quot; , &amp;quot;microsoft yahei&amp;quot; , &amp;quot;wenquanyi micro hei&amp;quot; , sans-serif ; font-size: 16px ; background-color: rgb(238 , 240 , 244)&quot;&gt;编译器种类：&lt;/span&gt;&lt;br style=&quot;box-sizing: border-box ; outline: 0px ; overflow-wrap: break-word ; color: rgb(85 , 86 , 102) ; font-family: , &amp;quot;sf ui text&amp;quot; , &amp;quot;arial&amp;quot; , &amp;quot;pingfang sc&amp;quot; , &amp;quot;hiragino sans gb&amp;quot; , &amp;quot;microsoft yahei&amp;quot; , &amp;quot;wenquanyi micro hei&amp;quot; , sans-serif ; font-size: 16px ; background-color: rgb(238 , 240 , 244)&quot;&gt;&lt;span style=&quot;color: rgb(85 , 86 , 102) ; font-family: , &amp;quot;sf ui text&amp;quot; , &amp;quot;arial&amp;quot; , &amp;quot;pingfang sc&amp;quot; , &amp;quot;hiragino sans gb&amp;quot; , &amp;quot;microsoft yahei&amp;quot; , &amp;quot;wenquanyi micro hei&amp;quot; , sans-serif ; font-size: 16px ; background-color: rgb(238 , 240 , 244)&quot;&gt;前端编译器：sun的javac、Eclipse JDT中的增量式编译器ECJ&lt;/span&gt;&lt;br style=&quot;box-sizing: border-box ; outline: 0px ; overflow-wrap: break-word ; color: rgb(85 , 86 , 102) ; font-family: , &amp;quot;sf ui text&amp;quot; , &amp;quot;arial&amp;quot; , &amp;quot;pingfang sc&amp;quot; , &amp;quot;hiragino sans gb&amp;quot; , &amp;quot;microsoft yahei&amp;quot; , &amp;quot;wenquanyi micro hei&amp;quot; , sans-serif ; font-size: 16px ; background-color: rgb(238 , 240 , 244)&quot;&gt;&lt;span style=&quot;color: rgb(85 , 86 , 102) ; font-family: , &amp;quot;sf ui text&amp;quot; , &amp;quot;arial&amp;quot; , &amp;quot;pingfang sc&amp;quot; , &amp;quot;hiragino sans gb&amp;quot; , &amp;quot;microsoft yahei&amp;quot; , &amp;quot;wenquanyi micro hei&amp;quot; , sans-serif ; font-size: 16px ; background-color: rgb(238 , 240 , 244)&quot;&gt;JIT编译器：HotSpotVM的C1/C2编译器&lt;/span&gt;&lt;br style=&quot;box-sizing: border-box ; outline: 0px ; overflow-wrap: break-word ; color: rgb(85 , 86 , 102) ; font-family: , &amp;quot;sf ui text&amp;quot; , &amp;quot;arial&amp;quot; , &amp;quot;pingfang sc&amp;quot; , &amp;quot;hiragino sans gb&amp;quot; , &amp;quot;microsoft yahei&amp;quot; , &amp;quot;wenquanyi micro hei&amp;quot; , sans-serif ; font-size: 16px ; background-color: rgb(238 , 240 , 244)&quot;&gt;&lt;span style=&quot;color: rgb(85 , 86 , 102) ; font-family: , &amp;quot;sf ui text&amp;quot; , &amp;quot;arial&amp;quot; , &amp;quot;pingfang sc&amp;quot; , &amp;quot;hiragino sans gb&amp;quot; , &amp;quot;microsoft yahei&amp;quot; , &amp;quot;wenquanyi micro hei&amp;quot; , sans-serif ; font-size: 16px ; background-color: rgb(238 , 240 , 244)&quot;&gt;AOT编译器：GNU Compiler for the Java（GCJ）/Excelsior JET&lt;/span&gt;" style="shape=document;whiteSpace=wrap;html=1;boundedLbl=1;rounded=0;shadow=1;sketch=1;align=left;" parent="1" vertex="1">
          <mxGeometry x="1870" y="-440" width="470" height="130" as="geometry" />
        </mxCell>
        <mxCell id="m_g_pHxch7K9zR3h8Tit-62" value="" style="endArrow=classic;html=1;exitX=0.5;exitY=0;exitDx=0;exitDy=0;entryX=0;entryY=0.75;entryDx=0;entryDy=0;dashed=1;" parent="1" source="m_g_pHxch7K9zR3h8Tit-50" target="m_g_pHxch7K9zR3h8Tit-61" edge="1">
          <mxGeometry width="50" height="50" relative="1" as="geometry">
            <mxPoint x="1930" y="-130" as="sourcePoint" />
            <mxPoint x="1980" y="-180" as="targetPoint" />
          </mxGeometry>
        </mxCell>
        <mxCell id="m_g_pHxch7K9zR3h8Tit-63" value="GC垃圾回收器&lt;br&gt;(收集和删除未引用的对象，可以手动触发System.gc()但不保证一定执行)" style="rounded=1;whiteSpace=wrap;html=1;shadow=1;sketch=1;" parent="1" vertex="1">
          <mxGeometry x="2140" y="-230" width="250" height="120" as="geometry" />
        </mxCell>
        <mxCell id="m_g_pHxch7K9zR3h8Tit-65" value="探测分析器" style="whiteSpace=wrap;html=1;rounded=0;shadow=1;sketch=1;" parent="1" vertex="1">
          <mxGeometry x="1840" y="-80" width="120" height="60" as="geometry" />
        </mxCell>
        <mxCell id="m_g_pHxch7K9zR3h8Tit-67" value="" style="endArrow=classic;html=1;dashed=1;exitX=0.5;exitY=0;exitDx=0;exitDy=0;" parent="1" source="m_g_pHxch7K9zR3h8Tit-65" edge="1">
          <mxGeometry width="50" height="50" relative="1" as="geometry">
            <mxPoint x="1630" y="-70.00000000000023" as="sourcePoint" />
            <mxPoint x="1510" y="-110" as="targetPoint" />
          </mxGeometry>
        </mxCell>
        <mxCell id="m_g_pHxch7K9zR3h8Tit-68" value="词法分析器" style="rounded=0;whiteSpace=wrap;html=1;sketch=1;shadow=1;" parent="1" vertex="1">
          <mxGeometry x="1210" y="-80" width="120" height="60" as="geometry" />
        </mxCell>
        <mxCell id="m_g_pHxch7K9zR3h8Tit-69" value="语法分析器" style="rounded=0;whiteSpace=wrap;html=1;sketch=1;shadow=1;" parent="1" vertex="1">
          <mxGeometry x="1520" y="-80" width="120" height="60" as="geometry" />
        </mxCell>
        <mxCell id="m_g_pHxch7K9zR3h8Tit-70" value="" style="endArrow=classic;html=1;exitX=0.5;exitY=0;exitDx=0;exitDy=0;dashed=1;" parent="1" source="m_g_pHxch7K9zR3h8Tit-68" edge="1">
          <mxGeometry width="50" height="50" relative="1" as="geometry">
            <mxPoint x="1370" y="-30" as="sourcePoint" />
            <mxPoint x="1350" y="-100" as="targetPoint" />
          </mxGeometry>
        </mxCell>
        <mxCell id="m_g_pHxch7K9zR3h8Tit-71" value="" style="endArrow=classic;html=1;dashed=1;exitX=0.5;exitY=0;exitDx=0;exitDy=0;" parent="1" source="m_g_pHxch7K9zR3h8Tit-69" edge="1">
          <mxGeometry width="50" height="50" relative="1" as="geometry">
            <mxPoint x="1390" y="-20" as="sourcePoint" />
            <mxPoint x="1510" y="-100" as="targetPoint" />
          </mxGeometry>
        </mxCell>
        <mxCell id="m_g_pHxch7K9zR3h8Tit-72" value="" style="endArrow=classic;html=1;exitX=1;exitY=0.5;exitDx=0;exitDy=0;entryX=0;entryY=0.5;entryDx=0;entryDy=0;" parent="1" source="m_g_pHxch7K9zR3h8Tit-58" target="m_g_pHxch7K9zR3h8Tit-60" edge="1">
          <mxGeometry width="50" height="50" relative="1" as="geometry">
            <mxPoint x="1670" y="180" as="sourcePoint" />
            <mxPoint x="1720" y="130" as="targetPoint" />
            <Array as="points">
              <mxPoint x="2050" y="135" />
              <mxPoint x="2080" y="135" />
              <mxPoint x="2080" y="190" />
            </Array>
          </mxGeometry>
        </mxCell>
        <mxCell id="m_g_pHxch7K9zR3h8Tit-74" value="通过类装载器装载的，被分配到JVM运行数据区的字节码会被执行引擎执行，执行器以指令为单位读取Java字节码，就像CPU一样一条条的执行机器指令。每个字节码指令都由一个字节的操作码和附加的操作数组成。执行引擎取得一个操作码，然后根据操作数来执行任务。完成后继续下一条操作码" style="shape=document;whiteSpace=wrap;html=1;boundedLbl=1;rounded=0;shadow=1;sketch=1;align=left;" parent="1" vertex="1">
          <mxGeometry x="2370" y="-440" width="480" height="130" as="geometry" />
        </mxCell>
        <mxCell id="m_g_pHxch7K9zR3h8Tit-75" value="" style="endArrow=classic;html=1;dashed=1;entryX=0;entryY=0.5;entryDx=0;entryDy=0;exitX=0.5;exitY=0;exitDx=0;exitDy=0;" parent="1" source="m_g_pHxch7K9zR3h8Tit-60" target="m_g_pHxch7K9zR3h8Tit-74" edge="1">
          <mxGeometry width="50" height="50" relative="1" as="geometry">
            <mxPoint x="2360" y="-110" as="sourcePoint" />
            <mxPoint x="2410" y="-160" as="targetPoint" />
          </mxGeometry>
        </mxCell>
        <mxCell id="m_g_pHxch7K9zR3h8Tit-76" value="符号表 (编号-名称-类型)" style="rounded=0;whiteSpace=wrap;html=1;shadow=1;sketch=1;fillColor=#FFCE9F;gradientColor=#ffffff;align=center;" parent="1" vertex="1">
          <mxGeometry x="2580" y="110" width="180" height="160" as="geometry" />
        </mxCell>
        <mxCell id="m_g_pHxch7K9zR3h8Tit-77" value="" style="endArrow=classic;html=1;exitX=0.5;exitY=1;exitDx=0;exitDy=0;" parent="1" source="m_g_pHxch7K9zR3h8Tit-20" edge="1">
          <mxGeometry width="50" height="50" relative="1" as="geometry">
            <mxPoint x="840" y="400" as="sourcePoint" />
            <mxPoint x="2580" y="190" as="targetPoint" />
            <Array as="points">
              <mxPoint x="1105" y="220" />
              <mxPoint x="1105" y="260" />
              <mxPoint x="2460" y="260" />
              <mxPoint x="2460" y="190" />
            </Array>
          </mxGeometry>
        </mxCell>
        <mxCell id="m_g_pHxch7K9zR3h8Tit-78" value="&lt;div&gt;结构信息。包括class文件格式版本号及各部分的数量与大小的信息&lt;/div&gt;&lt;div&gt;元数据。对应于Java源码中声明与常量的信息。包含类/继承的超类/实现的接口的声明信息、域与方法声明信息和常量池&lt;/div&gt;&lt;div&gt;方法信息。对应Java源码中语句和表达式对应的信息。包含字节码、异常处理器表、求值栈与局部变量区大小、求值栈的类型记录、调试符号信息&lt;/div&gt;&lt;div&gt;&lt;br&gt;&lt;/div&gt;" style="shape=document;whiteSpace=wrap;html=1;boundedLbl=1;rounded=0;shadow=1;sketch=1;align=left;" parent="1" vertex="1">
          <mxGeometry x="2880" y="-440" width="490" height="130" as="geometry" />
        </mxCell>
        <mxCell id="m_g_pHxch7K9zR3h8Tit-80" value="" style="shape=image;verticalLabelPosition=bottom;labelBackgroundColor=#ffffff;verticalAlign=top;aspect=fixed;imageAspect=0;image=data:image/png,iVBORw0KGgoAAAANSUhEUgAAArYAAAKKCAYAAADIuxg6AAAgAElEQVR4Aey9i7Mlx3GfiT93Ixy2zNhw2JZjZStW9EMiHevY9UOrF2lKlAiRlgTKliiKBimJEC3rQQIkhxiAAIjBkMDgSQwwIrS0eyOv/A0vc27e6j79uN11vonoqNNdVVlVmb/q/G7NmTuPDZf+/M//OQw//B//8+KKz/7RA3pAD+iBY3jgb374P4bvP/ibiys++0cP6AE9cI4eeOzyogHbdx/8f8PLrz8Ybt+976UP1IAaUAMH0MCLr70/vPrODy6u+Oz72/ylBtTAuWngzhsPhh8D24DcgNuA2se//Mrwrz/7vJc+UANqQA0cQAOf+vIrQwBtXPHZ97f5Sw2ogXPTwONP3X0UbANug/DDGf/b//tVL32gBtSAGjiABuKdzemM729zl/lbDZyjBuLd98iJrWDrZjjHzeCa1f3RNSDYquGja9j5q+G5GhBsD3AKMzfI9vdFoQbOQwOC7XnE2f1snNVArQHBVrD1r5jVgBroRAOCbZ3sBAF9owbOQwOCbScJzQ17HhvWOBvn6zQg2KqP6/Rhnfo4Bw0ItoKtp3VqQA10ogHBVnA5B3Bxjer8Og0Itp0ktOuCbJ0vATVwHhoQbM8jzu5n46wGag0ItoKtp3VqQA10ogHBtk52goC+UQPnoQHBtpOE5oY9jw1rnI3zdRoQbNXHdfqwTn2cgwYEW8HW0zo1oAY60YBgK7icA7i4RnV+nQYE204S2nVBts6XgBo4Dw0ItucRZ/ezcVYDtQYEW8HW0zo1oAY60YBgWyc7QUDfqIHz0IBg20lCc8Oex4Y1zsb5Og0IturjOn1Ypz7OQQOCrWDraZ0aUAOdaECwFVzOAVxcozq/TgOCbScJ7bogW+dLQA2chwYE2/OIs/vZOKuBWgOCrWDraZ0aUAOdaECwrZOdIKBv1MB5aECw7SShuWHPY8MaZ+N8nQYEW/VxnT6sUx/noAHBVrD1tE4NqIFONCDYCi7nAC6uUZ1fpwHBtpOEdl2QrfMloAbOQwOC7XnE2f1snNVArQHBVrD1tE4NqIFONCDY1slOENA3auA8NCDYdpLQ3LDnsWGNs3G+TgOCrfq4Th/WqY9z0IBgK9h6WqcG1EAnGhBsBZdzABfXqM6v04Bg20lCuy7I1vkSUAPnoQHB9jzi7H42zmqg1oBgK9h6WqcG1EAnGhBs62QnCOgbNXAeGhBsO0lobtjz2LDG2ThfpwHBVn1cpw/r1Mc5aECwFWw9rVMDaqATDQi2gss5gItrVOfXaUCw7SShXRdk63wJqIHz0IBgex5xdj8bZzVQa0CwFWw9rVMDaqATDQi2dbITBPSNGjgPDQi2nSQ0N+x5bFjjbJyv08BRwfZDH3tm+PBnnr244vN1axxT17LXqm+NMbd/y37v9Wv5b6zdse2qOIztP7ZdNQ7Pp9qhfbwP4oq9Fc+wN7bEzqn9x46zdDvBVrCdLPalRag9YU0NLKOBo4JtJM4vPH3v4orPc/XQsteqb40/t3/Lfu/1a/lvrN2x7ao4jO0/tl01Ds+n2qH97bv3h7hib8Uz7I0tsXNq/7HjLN1OsBVsJ4t9aRFqbxmo0Y/6cW9gy4lPzOu66/Gn7g533nhwccXnqm0k2qtOnhiH+uyHVv3UvZPtT+1/7u0BpqeefXP4+JMvn3yimP2Y45LjTvvcjuetEnsx55h7C/jmjtPSc9i/6mJ+c8H21Pm3/Lh2fcz7seGKP+GQqFx7Ato3GasBNaAGltHA3hIRAEOCrcqA2gcf/PDiis9VuwokGIf67IdW/VT9ZftT+597+6mAONZfOS457tjJ7XjeKrE3FsjnjtPSc7VPmF+MH1fMO3zeWl+uP3X+2c7W9zFvwdZT28mC31qojrcM+OjHvv24t0TEfAJaLwNrC2SrehJ91jHAQT3jRuKPz636bK91j/2Y53UnzNHuuutU4Pi7v/S14R/+6teHn/rUreFnPvPs8FOP3xp+4lee3s17HHC9bu1RN/akHjuVvxiPk8pKB8Q17AGF8ZnnVYn91nzz/Bin0kluz/j0Q7/Vfd5XrIn1Yy+XrCfsXne11pv7VuvJ4699H/MSbAXb5sZeW4ja7xu4jO828Y0XOsktPt+035lPTuythFnVV4mTRE094wIGrfqpfsJ+BRbEoFW2AKSaV0Dtv/39bw+/+ad3h88/fW/49FfuXsBt1X7r5xGHWFtr/dUPMFW/yl+Mx0llpQP8QPxinPjM86rEfmu+eX6MU+kkt2d8+jG/6j7vq2gXF+vHXi5ZT+VnnrfWSzvKaj15/LXvwweCrWDb3NhrC1H724CPfu7bzzkB3nS8mU9OwBlcScQAaK4PO3HRjnXRnnrKVv9oF8k4z4v+eZw8HieDJPRTy1NB4J/8+jeHT3zp5eFL33x9uHX33eGPbr0x/Ivfmv6Pg1jX0mUGp6mAVLWv/EU8Iw7xmfXwPMe50kcVf+xUgMp8GR9dVjrJ7ZkvJeNhr3VPv7Fljk+lX+ZZrTv3q+Izdl5LtQt/CbaC7cMXwVLC0k7fAGV89xnfnABvOk7MJyfGnDBJiCTcXE8CpR3roj31lK3+1bzon8fJ43EyGHbmXDH/gCDsjy33DraAHb5pgSTtKKv2lb+iH7GLz/iR5y390Zcyxx87oauYW9xfvphv9I/n6LLSSW7PfCkZD3ute/qNLXN8Lq/l8mfmWa37ctv4XMVn7LyWahdzEWwF24cvgqWEpZ19go9x6Tsu8UInOcfnm4438+HfJwMYGTwBAE64cj33JHrWBUCwZtrl8ajP4/Ccfswvgw3jsZ48D+q3KvcOttkPU/02tj2ABoARF56jJ+JMmePNc8oc/9Z8qA+7MRfGzXbwC+1jvPjMc0rqscf6qvtof901FTjxXx53qh3Ws3UZvhBsBdtHNtbWQnS8voHL+G4TXxJilTC3jgPzATSrxAwIAJ45oXKf10UCJqnTLo9HfR6H5/RjflUCZz15Hlv7VbD92/3EDzYRt/ihhLjwHD0RZ8ocb55T5vjH87CN/Rxv6vnBiHGzHfrRfqw91of9fM/cqrICbOaTS/yXx5lqJ9vd6j78K9gKtoKtGlADHWiglTC3SiyMw3xIyCT8DBate4C0SqwALu1IyFGGbQCDhM08eM48K9DI68Fu9DvlYlzsUvLbDv7Z47eGn/3t24/Y/pe/dXv4yU9+82I9n/zjO498xzZ+M0L8hoR/9du3h4888VzZ/+9/7Jnh7/zi1x7uefyX18J4tB/bjvVQVn6nnhL7xLGKN+2xS7yJH8+r/mPjzTit9tSjc8ZlPTnetGe+jENJPfYysLJe6vM97XlejcN4lMwX/9OfcfK+od/eyvCfYNtBQtubsJzPNid0+lk/X9YACXFsIrvcd43PzCcSZABmlTBzAs33rYQKyNAOUCYhZ9BgHjxnni2/0Q67AMTUknGzz/ltB7/zZ98d/vz5tx+eEmL/y996c/jlJ78z/LvPvTB8+k/vPgK2AbXxGxK+8txbw9dffrfs/9Of/tYQsMr4+I9xKBmP9mPbYZcyA1O1fuwTx7iPvtjJJXaJd8w7YsTzqj9xpH22m+9b7alH54zLevJ6aV+NTz324v7yxXqpz/e05Xk1Tl4n88X/9GecvG9y/73cx/oFW8G2fHHsRajOQ4BTA20NxAs9ktjYRLa2T/N8uM9gGIkznlXPq/UAMDnh5nFI1AAH9djN95VfSPz4eGrJOhk3jxMntQG1X3vpneGF194bXn79wfDt7733MKaA5lSwffG194dX3/nB8Pyr7w2f+9prw8//4YvDP/q1bwx/75efHuJrDb/y5HeGb73y7vDm/Q+Gl+69/8h4cQIca2+1A4Dzurhv+blVj51cTu13ansAL/pfvgDAHFf00tLf1PXk+ed77FXPqc9lbt+6z/33ch/zFmwFW8FWDaiBDjSQE9FNJ5o8H+4zIAAG1fMMDKyrBQ7Yq8AXu8yLe+znEpCO9qdcrLMaJ75+ECe1AbVPfuP14Tf+5JXh33/uhYdj8dWAWPeUryL80n99afiDr702/Pfn3xr+4oW3h9/9y1eHgNCL7+p+8eXhi19/fXjmO98fvnL7reE/fvHlq8f7ozvNdnxlIfuN+5afW/XYyeXUfqe2zz94RRzjCp1FXY4remnpb+p68vzzPfaq59TnMrdv3ef+e7mPeQu2HSS0vQjKebRP1fSRPlpLAzkRrTXOWLt5PtwDnHEfF8BXPc/AwPiALX/VW4FEbsc8sJvvsb90WY0T33cNKIyT2NvfvT+8eO/94df/5M4FfF7+ygDzqf7xGHbie7gBwTFeXIDtVy9Ogt8fvvzsmxf1cUL8xJ99d/irF96+OLGNE+Gf//yLF8Abp7mMN7Yd7auSOOQTzCpulZ38PPsVe6w/l5XeaBfzDBuMg/2pYJv7j9Ub4+X9wLyor+yx/gzUzCeXVfs8ThW/bO+m72Pegq1g+3AD37QgHV/oUwOnayAnopv2ZZ4P9xkQOPGqnpPA83pIyCT8KvHmdswDu/k+j7PUfTVOwGucoP7aH9+5ANuvv/z94f/5/W9fwO7lf+TFPCqwxU58DzcgNdYXF19FiK8avHH/g4tT4Tgd/j9+45vDb/zJneHPn39r+O5bfz288uaDi36f+OLLF3DLeGPb0b4qiUMGripulZ38PPsVe6w/l5XeaMcPSoyD/Qya8TwuQDn6xz39KOlPfb6nHSX1eT8wL+ore6w//wCB/VxW7fM4VfyyvZu+j3kLtoLtIxvxpoXp+KfDjb47X9/lRHTTWsjz4Z6E3QIM6kngeT0k2rAbF4CRASQSd7SlP/PAbr6nHWUeh/HGloxfjfMPPvH14d/8l+eHJ/78e8Pz33tv+MsX3h5+9nduP5wv86CswPYff/Ibwy984aXhD5+5N3z71fcuvlcbUAvYvnX/g+Ht9/7mof38j9Xie7bxlYT4akJ8n5avPvzTx28N/+EPXrj4/m98VaJqF2B9FYgzb8oMUhl0aTe2zH7FfsT3qgtdocPcBoBk/Gyf55SteuaD3VZ76pkf8630SvuqnnnmEl1X/s926c96xoIz/bYqY96CrWBbvkC3EqLjnC+MGfvlYl8lopvycZ4P94BnBaLRLi7qSdh5HSRYwAQAAAh4DlDQn3lgN9/TjjKPg92xJeNX4wSQxtcFnvz66xf/eOtUsL2Y5zP3hm/eefcCXuN7tWGXryIEtMbJLPbzrxcLmOX7tgGv/GO1+O96A275NWRVu9Y/HsOfGajmAlL2K/bj+VUXukKHuU34MWww32yf55SteuaD3VZ76pkf8630SvuqnnnmEl1X/s926c96KiCm3U2VMW/BVrB9uIFvSoiOuxzc6Mvz9WWViG5KE3k+3OeEzX3UX75yQs/rIDFH/4DZDLQ8J+HTn34k9FaCpv1YkM3tWmDLyenv/dWrF2B76lcR4pQ3oDV+s0FAcgBtQPNPferW8Jt/evei7u6bDx6CLf6g5B+ThV++9/YPhu+8/mD43b949eI0OU6Vp7ajfS4zGBGH8PNloMz9qnt0leO8Vfulx8/2WvfoEz+29Fz5P8a5fLH/qv3JOIx7avyqOJ36PNYg2Aq2D19YpwrJfucLU8Z+P7HPCfCmY5Pnwz0ACnhyn4GQ+gpYSNBVAuZ57k+/sYmZ9jH/Uy4SPuvP8+Hk9Be/8NLFVxFO/cdjgG18nSG+1hBfbwgg/ZnPPDt8/ul7w7dfe2+49/0flGDLr/+KefzVi+8Mt7/33vCFZ+49BGT0NLYd7XM5FcRy/3xf+TW3437p9mvby/bzPfocq+fK/9X+q/YnQMu4/ACHn2+qDP8ItoKtYKsG1EAHGsgJ76YSC+Pm+ZBQAVYSZuueBAogYp8Su7SLceOqEu5UEGCcuWX2R7Y399d9xVcG/vjWGxdfRYjv2fLrwj7xpZcvfs3X3bf++uIfj/FVhOp/KvvVL925ANtv3Hl3+N2/+N7wi//1peFf/+7zj/yPZrndv/39bw9x+pzXhb+ruFTxq+Kd7bf8ulT70Gn8sMQ6KKsfoPK43Lfmm+u5Z/ysa/zLc/ZB5T/8DYhyPxVsc3/uWedNleEvwbaDhHZTAnLc/ZzWGQtjQQLMJ4I3pY08HxIwIECibt2TsKvEiV3akaCrBE8ip55+lf2l/Jf9ke3O/Q8a4nuw/+m//e1XDuIfj/EfPMQJbpwCZ7Ct/qeyF+I/dHj7Bxf/UcR/+PyLF1D7O//9e4/8j2a5XUBtnD7ndeHvKi5V/MbGo+XXPJ9T2/ODGOug5AezuA/bebx83xo/13PP+Og2/Irvwlc8b+mZPvTnPsa5fOV9ebkuPuf+3Of1bn0fcxNsBdvmRtxamI4npKmB6RqIFzrJNj7flA9JlCRYEm7MKS6eAy6REC8n5pxQuc/gwDjZLj5gXBIu7Vvj0/5U/zEO86LM42b7fNe29V/qxlcM4vuz8b3Z+IpB/De6AalV//jvdeO/2Y3fXxu/1SC+N/vTv/mtiz5X/Re8t1559wJqp7ZjPXn9rJu4EHfaU6ID2hE//FfFJerpE5+xV5WntgcsGYuyBbaVP7IfaIe/qGe+jM/zqj1+xH+V3yr/8JxxY51j/Eq/my5jroKtYNt8Edy0UB1/OuTos/Pz2V4SUU6sJGpAICfcnKABBRI59znBMk62G36Ii3EBAdq3xqf9qXuIcZgXZR432+e7tvz2AdZBya/fiu/N8o/C4vuzAbXxtYKq/0eeeO7iawTRP77uEFAbv5qr+irCRz/73PBzTzw3uR3ryetn3awj6iPmtKdEB7Qjfviviku0p018xl5Vnto+dBg/ZDE/yuoHL8av/JH9QDv8RT3zZXyeV+3xI/6r/Mb8qpJxw7fxuWq3t+cxV8FWsD2MYPe2gZzP+cHjnmO+l0REwiWhcg988Dz7MrejPWXul9tX9TynPffV+FV9bl/dMw7zppxrtxpvb8/z+k9d91g7tBs7ztLtW/aob+mAdnkdU5+jh6of9a1ybv+W/bXqBVuhVqhVA2qgEw3sBWw5MYrEGJ+5j/nFxfOc2HI72lPmfrl9Vc9z2nNfjV/V5/bVPeMwb8q5dqvx9vY8r//UdY+1Q7ux4yzdvmWP+pYOaJfXMfU5eqj6Ud8q5/Zv2V+rPvzsiW0nSW0tkWjXU0k1cAwNxAudU6H4bNyOETfjZJzUwHIaEGyFWpOfGlADnWhAsF0uOQoa+lINHFMDgm0nCc0NeMwNaNyM25IaEGzV05J60pZ6OqIGBFvB1tM6NaAGOtGAYCuIHBFEnLO6XVIDgm0nCW1JUWjLl4waOKYGBNtjxs39ZtzUwHIaEGwFW0/r1IAa6EQDgu1yyVHQ0Jdq4JgaEGw7SWhuwGNuQONm3JbUgGCrnpbUk7bU0xE1INgKtp7WqQE10IkGBFtB5Igg4pzV7ZIaEGw7SWhLikJbvmTUwDE1INgeM27uN+OmBpbTgGAr2HpapwbUQCcaEGyXS46Chr5UA8fUgGDbSUJzAx5zAxo347akBgRb9bSknrSlno6oAcFWsPW0Tg2ogU40INgKIkcEEeesbpfUgGDbSUJbUhTa8iWjBo6pAcH2mHFzvxk3NbCcBgRbwdbTOjWgBjrRgGC7XHIUNPSlGjimBgTbThKaG/CYG9C4GbclNSDYqqcl9aQt9XREDQi2gq2ndWpADXSiAcFWEDkiiDhndbukBgTbThLakqLQli8ZNXBMDQi2x4yb+824qYHlNCDYCrae1qkBNdCJBgTb5ZKjoKEv1cAxNSDYdpLQ3IDH3IDGzbgtqQHBVj0tqSdtqacjakCwFWw9rVMDaqATDQi2gsgRQcQ5q9slNSDYdpLQlhSFtnzJqIFjakCwPWbc3G/GTQ0spwHBVrD1tE4NqIFONCDYLpccBQ19qQaOqQHBtpOE5gY85gY0bsZtSQ0ItuppST1pSz0dUQOCrWDraZ0aUAOdaECwFUSOCCLOWd0uqQHBtpOEtqQotOVLRg0cUwOC7THj5n4zbmpgOQ0ItoKtp3VqQA10ogHBdrnkKGjoSzVwTA0Itp0kNDfgMTegcTNuS2pAsFVPS+pJW+rpiBoQbAVbT+vUgBroRAOCrSByRBBxzup2SQ0Itp0ktCVFoS1fMmrgmBoQbI8ZN/ebcVMDy2lAsBVsPa1TA2qgEw0ItsslR0FDX6qBY2pAsO0kobkBj7kBjZtxW1IDgq16WlJP2lJPR9SAYCvYelqnBtRAJxoQbAWRI4KIc1a3S2pAsO0koS0pCm35klEDx9SAYHvMuLnfjJsaWE4Dgq1g62mdGlADnWhAsF0uOQoa+lINHFMDgm0nCc0NeMwNaNyM25Ia+OhnnxtuvfLu8NK994dPffmVIV7wXvpADaiBc9LA40/dHR4brvhz++79ixfiki9dbZnE1YAaUAPraeAjTzw3PP3SO8Nb731wAbfxHvfSB2pADZyTBu688UCwNdGul2j1rb5VA9tpQLAVYM4JYFyrer9KA4KtX0Xw+5VqQA10ogG/iuBfOZ/TXzm7VvV+lQb8KkInCc1Tse1OxfS1vt6rBuIlzwlGfN7rPJ2Xe0gNqIG1NBDvPr9jK9yaANWAGuhAA4KtsLAWLGhXbR1FA4JtB8nsKGJznr4Y1cC6GhBs1/Wv+tW/amD/GhBsBVtP6tSAGuhEA4Lt/pOuYGSM1MC6GhBsO0lobpR1N4r+1b9H0IBgq06PoFPnqE7X1IBgK9h6WqcG1EAnGhBsBYY1gUHb6usIGhBsO0loRxCbc/SlqAbW1YBgu65/1a/+VQP714BgK9h6WqcG1EAnGhBs9590BSNjpAbW1YBg20lCc6Osu1H0r/49ggYEW3V6BJ06R3W6pgYEW8HW0zo1oAY60YBgKzCsCQzaVl9H0IBg20lCO4LYnKMvRTWwrgYE23X9q371rxrYvwYEW8HW0zo1oAY60YBgu/+kKxgZIzWwrgYE204Smhtl3Y2if/XvETQg2KrTI+jUOarTNTUg2Aq2ntapATXQiQYEW4FhTWDQtvo6ggYE204S2hHE5hx9KaqBdTUg2K7rX/Wrf9XA/jUg2Aq2ntapATXQiQYE2/0nXcHIGKmBdTUg2HaS0Nwo624U/at/j6ABwVadHkGnzlGdrqkBwVaw9bRODaiBTjQg2AoMawKDttXXETQg2HaS0I4gNufoS1ENrKsBwXZd/6pf/asG9q8BwVaw9bRODaiBTjQg2O4/6QpGxkgNrKsBwbaThOZGWXej6F/9ewQNCLbq9Ag6dY7qdE0NCLaCrad1akANdKIBwVZgWBMYtK2+jqABwbaThHYEsTlHX4pqYF0NCLbr+lf96l81sH8NCLaCrad1akANdKIBwXb/SVcwMkZqYF0NCLadJDQ3yrobRf/q3yNoQLBVp0fQqXNUp2tqQLAVbD2tUwNqoBMNCLYCw5rAoG31dQQNCLadJLQjiM05+lJUA+tqQLBd17/qV/+qgf1rQLAVbD2tUwNqoBMNCLb7T7qCkTFSA+tqQLDtJKG5UdbdKPpX/x5BA4Lteev0Qx97ZvjwZ569uOIzmp36nH65xE7obM4Vc7w8vzzO2Hvms5S9sePabt/7TLAVbB++/Nys+96sxsf4tDQg2J63RgLwvvD0vYsrPqOXqc/pl0vs3L57f5hzxRwvzy+PM/ae+Sxlb+y4ttv3PhNsBduHLz836743q/ExPi0NCLbnrRFA76ln3xw+/uTLD09usy446Yw20XYsGGLnwQc/HO688eARuI1nUdeqDygOW1nPzCvWMeZEl/lU9rJ9789jf4QuHhuu+KNQzkMAbnTjrAb60YCJvp9YnrIvAcMMrFkXFQC3xsROAOzjT9195OsI8SzqWvUVXzCvqaBd2Wutx/o+94tg64ntIz81u9n73OzGtf+4Ah4m+v5jHfsZkI24X74yYLbuL/eNz9WJadSFtip9Aab5xJh3z6n9WWeeV7ZHu3geV27PPCz73h8Re09shVvhVg2ogQ40kBO9CbzvBA5IApuU+SsBrXv6UVYnpi19AZb5xBgdntqfdeZ5ZXu0a62D+Vj2uT9CF4JtBwnNDdrnBjWuxnWKBnKin9LXtsfTGvGuvtMK4I0tAeBoH7bRBMCaT36jzVVX1S4/r05UAVRAlnXmefGcrz4A1NU6WI/l8bQ+JWahC8FWsH34ApsiHtv2/XIwvseLL4k+A4CxPF4sx8SMeAN2cT/nAjyzfgBNgLEF0lW7/BxwzWsFpAFf1pnnxXPmw1cgqnXkcbzvd18ItoKtYKsG1EAHGiDRZwAwgfeZwAFOABEgnAq3AGS2h254nsE0dHb5mlrPvBmnKrOuWScAC9hiL7ev7Pq8z30R8RdsO0hobtA+N6hxNa5TNGBCPy+9AHgZTC/D5pjPAGG2h/Z4DkgGwMbn0Nvla2o982acqsy6zqDNfLCX21d2fd7nfon4C7aCrad1akANdKABE3qfiXosgBF/TjBbUMsJa7SLvq1xsA9Ixv3layzYVuMB0AAq88njtr5LS/tqHOxa9rlfIv6CbQcJzQ3a5wY1rsZ1igZM6OetF+JfgWfUX74A0bEAiP0KnAHlVn01HiexnCCj/Txu67u0tK/Gwa5ln/sl4i/YCrbNn9R9AfT5AjCufcXVhN5XPKfuT+J/dLAFXGM9cQHgADPgy3ozwFbPp/rT9sfcTxF/wVawFWzVgBroQAMm9GMm4qUAivgDgAF8112csGYwrOaD/QqcAdBWfTUeX0XgqwbMnXlil68qMJ9sr3percvnfe2biL9g20FCc2P2tTGNp/E8RQMm9PPWDX+VDxBSAoYV8HIC2tIc+gIw4/7yNRdsGT+vg/mPBVjmmdtj37LvfRLxF2wFW0/r1IAa6EADJvS+E3YLyDjxvAyb8bkFnJyAtuyjrwqQAdBWfQs48zqYf+7HfMY+b63P+j72T+hCsO0gobkh+9iQxtE4ztFAlejn2LTv/jWZQTB0cPkCDKuTVtq2ADefpAZQXr5aYEvbsSfEaK/SddULdhIAACAASURBVH6OH1hvBl7sWe5f03NiFLoQbAVbT+vUgBroQAM50c9JDvY9TvLfCjgBx9DZVRdAORegs/YqXefn+AHAFmyPo+Ec8zn3oQvBtoOENkcE9j3PzW/c+4t7TvTGuL8YXxVT4t76CkCrvgWCW4Et43CCzPry/PJzwDbaxTX1ZPgq3/rseHsodCHYCrae1qkBNdCBBnKiNykfLymfEjPiXp2Utk5Sqc/gmOeSwRGApOSktAJo2rWAk3Fox/ry/PJzgDiexwUY53V43/e+iNgLth0kNDdq3xvV+BrfMRrIiX5MH9scX1utuFf1gOBewJb58Ou+WmCbAThrGXsC7vE1nmN73b1gK9R6UqcG1EAnGqgA5rokYN3xk34r7lU9YMhJaz4RzdoAFMPeVReAXJ0c06cCTebDf9BAu2r+zId2eb7YA5BzvffH1/5VMQy9eGLbSVK7KsA+63PjGlfjepUGKgC4qq3P+tFQC+AqXdCv9RUBADLsXHeNBVtsZCBlPhlEeQ7w0r9VMp8WsLsX+tkLEcvQhWAr2HpipwbUQAcaiBc6kBKfTdh9JewqnoBnBkXaV7qgX9THVfUHLNFWVXLy2/qOLf0zwDKfPA+e8xUF+rdK5hPt3A/nsRcE2w4SGS8uy/PZtMbaWFcaqACmau/z89ASYJpBcmz86d8Cyan1U+dz6jymjjPWL7bb5/6J96AntgKuJztqQA10oAHBdp+J9qYBiBPPfBI6dl70D30teU2dz6nzmDrOWL/Ybp/7TbDtIJm5ufa5uYyLcdlaA4Ktmttac46n5vamAcFWsPWkTg2ogU40INgKGXuDDOejJrfWgGDbSULbWjiO58tKDexPA4Lt/mLiPjEmamBbDQi2gq2ndWpADXSiAcF22wQqsOhvNbA/DQi2nSQ0N9f+NpcxMSZba0CwVXNba87x1NzeNCDYCrae1qkBNdCJBgRbIWNvkOF81OTWGhBsO0loWwvH8XxZqYH9aUCw3V9M3CfGRA1sqwHBVrD1tE4NqIFONCDYbptABRb9rQb2pwHBtpOE5uba3+YyJsZkaw0Itmpua805nprbmwYEW8HW0zo1oAY60YBgK2TsDTKcj5rcWgOCbScJbWvhOJ4vKzWwPw0ItvuLifvEmKiBbTUg2Aq2ntapATXQiQYE220TqMCiv9XA/jQg2HaS0Nxc+9tcxsSYbK0BwVbNba05x1Nze9OAYCvYelqnBtRAJxoQbIWMvUGG81GTW2tAsO0koW0tHMfzZaUG9qcBwXZ/MXGfGBM1sK0GBFvB1tM6NaAGOtGAYLttAhVY9Lca2J8GBNtOEpqba3+by5gYk601INiqua0153hqbm8aEGwFW0/r1IAa6EQDgq2QsTfIcD5qcmsNCLadJLStheN4vqzUwP40INjuLybuE2OiBrbVgGAr2HpapwbUQCcaEGy3TaACi/5WA/vTgGDbSUJzc+1vcxkTY7K1BgRbNbe15hxPze1NA4KtYOtpnRpQA51oQLAVMvYGGc5HTW6tAcG2k4S2tXAcz5eVGtifBgTb/cXEfWJM1MC2GhBsBVtP69SAGuhEA4LttglUYNHfamB/GhBsO0lobq79bS5jYky21oBgq+a21pzjqbm9aUCwFWw9rVMDaqATDQi2QsbeIMP5qMmtNSDYdpLQthaO4/myUgP704Bgu7+YuE+MiRrYVgOCrWDraZ0aUAOdaECw3TaBCiz6Ww3sTwOCbScJzc21v81lTIzJ1hoQbNXc1ppzPDW3Nw0ItoKtp3VqQA10ogHBVsjYG2Q4HzW5tQYE204S2tbCcTxfVmpgfxoQbPcXE/eJMVED22pAsBVsPa1TA2qgEw0IttsmUIFFf6uB/WlAsO0kobm59re5jIkx2VoDgq2a21pzjqfm9qYBwVaw9bRODaiBTjQg2AoZe4MM56Mmt9aAYNtJQttaOI7ny0oN7E8DH33iueEbL787vPja+8OnvvzKEC94L32gBtTAOWng8afuDo8NV/y5fff+xQvR5LW/5GVMjIkaUANXaeBnf/v28OfPvz28+s4PLuA23uNe+kANqIFz0sCdNx4ItlclCJ8JDmpADRxNA4KtAHNOAONa1ftVGhBs/SqC369UA2qgEw34VQT/yvmc/srZtar3qzTgVxE6SWhHO1lyvp6GqoHlNRAveU4w4rM+Xt7H+lSfqoF9ayDefX7HVrg1AaoBNdCBBgTbfSdcgcj4qIH1NSDYdpDM3CjrbxR9rI+PoAHBVp0eQafOUZ2uqQHBVrD1pE4NqIFONCDYCgxrAoO21dcRNCDYdpLQjiA25+hLUQ2sqwHBdl3/ql/9qwb2rwHBVrD1tE4NqIFONCDY7j/pCkbGSA2sqwHBtpOE5kZZd6PoX/17BA0Itur0CDp1jup0TQ0ItoKtp3VqQA10ogHBVmBYExi0rb6OoAHBtpOEdgSxOUdfimpgXQ0Ituv6V/3qXzWwfw0ItoKtp3VqQA10ogHBdv9JVzAyRmpgXQ0Itp0kNDfKuhtF/+rfI2hAsFWnR9Cpc1Sna2pAsBVsPa1TA2qgEw0ItgLDmsCgbfV1BA0Itp0ktCOIzTn6UlQD62pAsF3Xv+pX/6qB/WtAsBVsPa1TA2qgEw0ItvtPuoKRMVID62pAsO0koblR1t0o+lf/HkEDgq06PYJOnaM6XVMDgq1g62mdGlADnWhAsBUY1gQGbauvI2hAsO0koR1BbM7Rl6IaWFcDgu26/lW/+lcN7F8Dgq1g62mdGlADnWhAsN1/0hWMjJEaWFcDgm0nCc2Nsu5G0b/69wgaEGzV6RF06hzV6ZoaEGwFW0/r1IAa6EQDgq3AsCYwaFt9HUEDgm0nCe0IYnOOvhTVwLoaEGzX9a/61b9qYP8aEGwFW0/r1IAa6EQDgu3+k65gZIzUwLoaEGw7SWhulHU3iv7Vv0fQgGCrTo+gU+eoTtfUgGAr2HpapwbUQCcaEGwFhjWBQdvq6wgaEGw7SWhHEJtz9KWoBtbVgGC7rn/Vr/5VA/vXgGAr2HpapwbUQCcaEGz3n3QFI2OkBtbVgGDbSUJzo6y7UfSv/j2CBgRbdXoEnTpHdbqmBgRbwdbTOjWgBjrRgGArMKwJDNpWX0fQgGDbSUI7gticoy9FNbCuBgTbdf27lX4/9LFnhg9/5tmLKz5X445tt1b/ym71fO58K7ut5zc1bmte1q+zXwVbwbZ8abrp1tl0+lW/rqUBwbYPbQXUfuHpexdXfK70MrbdWv0ru9XzufOt7Lae39S4rXlZv85+FWwF2/Kl6aZbZ9PpV/26lgYE2z60BYg99eybw8effLk8uR3brtJbqz8nnaGrMVfYiz7VeJU+x47Tsj913Kq9z4+9j0Jnjw1X/Ll99/6FkA3wsQNs/IyfGjgfDVTgoAaOpQFAL6A24DZObwPqchzHtsv9uG/1B3yDB8Zc1TwZr9Ln2HFa9hknl9W4uZ33x9onVbwEW09sH3lZVmLxeR+b3jj2G0cTeF+xBfgAOkA04nz5evypu8OdNx5cXPH5cl18DjvRt9r7eRza8bwFtTH2gw9+eAG/MR79cxl12Lrcbuw4+AG7lT/C9uWr5Z/LbeNzy1+Mb7nP/RYx9MRWuC1fRG7cfW5c42JcrtJAvNCvAoer2vps/xoC3ACtCgABy4DL+IwGKDMQ5tjncajneQa/fA84xnhRR/9cVvocOw5+wG7lD9ZN2fIP7Shb/mJ8y33uodCZYCvYli8iN+4+N65xMS5XaaACh6va+ux4GsogNxbYKlADKDMwTtVGpTvsR31cAHDMOz7PHTf7AzDN5Vg/0a/y11S/2P5m9lhoTbAVbAVbNaAGOtBABRgm2JtJsEv7vQWKAGQuK4AEDOeCXKU77AOMGTDnjpv9kdfNfQZqnldl5a+l46m9dfZlxFWw7SChuUHW2SD6Vb8eSQPxQgci4vOR5u5cv3rxPdiAqgxcFWjNjXfVvwWMeT6VnWgX8IomM9jyWx/yelv3efyWdqr5tfpZf8z3f8RbsBVsTYBqQA10oAET+DETMQCVQRAgrE4258a76l/No5pPZScDcj455bc+YHdsWfkDP+ayml9u5/2x9w/xi3gLth0kNAJq2cfGNI7G8RQNmMCPrZsMlJxwBvBFbLMmiHe0C2iM+6uu6oST/tk+z/M/RqvmQ/tsh/kCuIAt7fJ643lcjJPHpz6DLfavWns8Y9xT/cQ6LI+xvyLmgq1g+8gL0w18jA1snIzTZQ20AONyWz/vTzsZ0AAyQDDHjHhXAFiBIHbon+3zPINgNR/aZzuMA8ACrLTL6w07cTFOHp/6DOrYZ725ZNxT/cQ6LPe3Z66KSehEsBVsBVs1oAY60EC80Enq8fmql77PjpGcI06teFJfARtAB0jm2NM/1y/1nPGwx/8FBbBmQM3t87yoz2ULbNkTrTKfBOdxvD/G3gm9CbYdJDQ33DE2nHEyTmtqAIAYCwRrzkXb87Xeiif1gGLcX744+az0QP9cv9RzNIA9wBYQr0CS9nle2MtldfIbdqZcFWjn8byfr+01fRgxF2wFW0921IAa6EADU4FgzeSi7fnJvxXPteoru1OfA5z8IzFOkDPY0g6wzOPk+qnamtt/6ni2n6/9OT4M/Qi2HSS0OSKw781uQv2v/5fSQAaCpexq52Y02ornWvWV3anP+YoAv9aLE2ROmAFZ2nGCm8fJ9VP1OLf/1PFsfzP7Bb+HfgRbwdbTOjWgBjrQQAYCXvSWN5toT/V/jmc+ecz1eZxT6+kHgMZ9XIBp/ooA7fPzDJRVu/w832MHQI778AXrzX7J91P7Y9fyuPtGsO0gobkBj7kBjZtxW1IDGQiWtK2t7bWa4wmgVSebOUa5/9h6+vGVgQDWuPgqQQZY2ufnGTCrdvl5vscOX2lg/awn+yXfT+2PXcvtNb+Ez0M/gq1g+/An3yVEpY1jvgyM2/HjloHAmB47psSTk1PAjpNL7jPoEXf6Z+Bs1QOG0e+qK4/XGqcarwLOyt7Y52PbMS/Wi1/jPuZGveWx9lHEX7AVbN3AakANdKCBKqGbmI+VmIkX8eTkFPACaLmvQIz+U8EW4Iz+V115vNY4eT3MpwLKyt7Y52PbMS/Wi18zuNPO8hj7KOIv2HaQ0Nxwx9hwxsk4ramBKqGvOaa219M08QRsAS6eA4hVDFrtWvWV3fx8rJ3cDrBlXdjN7Xie21dAOrU/oF71Y3zL9bS+pG8jjoKtYOtpnRpQAx1owMR8jMQ7NokTT76KMBXA6F8BcKt+6jyrcbCTxwNMWVfVjue5PaCbT67zOK3+gHXVj/6Wx9hfEUfBtoOE5oY7xoYzTsZpTQ2YmPvSF+AGeAF21V+ZUx86iKtqhwZP1Usep/ptCYxD2RoPu2PtZf8wDs8BXvyRyzwO/fA39iyPta8izoKtYOtpnRpQAx1ooAUOJuhjJWhAL4CLzwFdABvPiStgFiencVXtaH+qXvI41W9LYBzK1njYHWsPn2Q/8Bywxx+5zOPQL9tj/pbH2D+CbQfJzM12jM1mnIzT2hpogcPa42t/XY0DftWJIvUAXNWOONG+1Y72lPRjHMqWHfpV7agfa4/5VGW2h91cVvOp7Pp8XZ3P9a9gK9h6UqcG1EAnGhBs951w5ybs1oki9aGDuALs4lk1Lu1b7XJ/+jEOZcsO/ap21I+1l+eV77M97Oaymk+25/0x9lfE168idJLU3HTH2HTGyTitpYF4oXMaFZ/XGke7algNqIG9akCwFWpNfmpADXSiAcFW2NgrbDgvtbmVBgTbThLaVoJxHF9OamC/GhBs9xsb942xUQPbaECwFWw9rVMDaqATDQi22yROAUU/q4H9akCw7SShucn2u8mMjbHZSgOCrVrbSmuOo9b2qgHBVrD1tE4NqIFONCDYCht7hQ3npTa30oBg20lC20owjuPLSQ3sVwOC7X5j474xNmpgGw0ItoKtp3VqQA10ogHBdpvEKaDoZzWwXw0Itp0kNDfZfjeZsTE2W2lAsFVrW2nNcdTaXjUg2Aq2ntapATXQiQYEW2Fjr7DhvNTmVhoQbDtJaFsJxnF8OamB/WpAsN1vbNw3xkYNbKMBwVaw9bRODaiBTjQg2G6TOAUU/awG9qsBwbaThOYm2+8mMzbGZisNCLZqbSutOY5a26sGBFvB1tM6NaAGOtGAYCts7BU2nJfa3EoDgm0nCW0rwTiOLyc1sF8NCLb7jY37xtiogW00INgKtp7WqQE10IkGBNttEqeAop/VwH41INh2ktDcZPvdZMbG2GylAcFWrW2lNcdRa3vVgGAr2HpapwbUQCcaEGyFjb3ChvNSm1tpQLDtJKFtJRjH8eWkBvarAcF2v7Fx3xgbNbCNBgRbwdbTOjWgBjrRgGC7TeIUUPSzGtivBgTbThKam2y/m8zYGJutNCDYqrWttOY4am2vGhBsBVtP69SAGuhEA4KtsLFX2HBeanMrDQi2nSS0rQTjOL6c1MB+NSDY7jc27htjowa20YBgK9h6WqcG1EAnGhBst0mcAop+VgP71YBg20lCc5Ptd5MZG2OzlQYEW7W2ldYcR63tVQOCrWDraZ0aUAOdaECwFTb2ChvOS21upQHBtpOEtpVgHMeXkxrYrwYE2/3Gxn1jbNTANhoQbAVbT+vUgBroRAOC7TaJU0DRz2pgvxoQbDtJaG6y/W4yY2NsttKAYKvWttKa46i1vWpAsBVsPa1TA2qgEw0ItsLGXmHDeanNrTQg2HaS0LYSjOP4clID+9WAYLvf2LhvjI0a2EYDgq1g62mdGlADnWhAsN0mcQoo+lkN7FcDgm0nCc1Ntt9NZmyMzVYaEGzV2lZacxy1tlcNCLaCrad1akANdKIBwVbY2CtsOC+1uZUGBNtOEtpWgnEcX05qYL8a+OhnnxtuvfLu8NK994dPffmVIV7wXvpADaiBc9LA40/dHR4brvhz++79ixeiSWy/SczYGBs1oAYua+AjTzw3PP3SO8Nb731wAbfxHvfSB2pADZyTBu688UCwvZwY/CwoqAE1cFQNCLYCzDkBjGtV71dpQLD1qwh+v1INqIFONOBXEfwr53P6K2fXqt6v0oBfRegkoR31hMl5ezqqBpbTQLzkOcGIz/p2Od/qS32pBo6hgXj3+R1b4dYEqAbUQAcaEGyPkXgFJOOkBtbTgGDbQTJzg6y3QfStvj2SBgRb9XokvTpX9bqGBgRbwdaTOjWgBjrRgGArKKwBCtpUV0fSgGDbSUI7kuicqy9JNbCOBgTbdfyqXvWrGjiOBgRbwdbTOjWgBjrRgGB7nOQrKBkrNbCOBgTbThKaG2SdDaJf9euRNCDYqtcj6dW5qtc1NCDYCrae1qkBNdCJBgRbQWENUNCmujqSBgTbThLakUTnXH1JqoF1NCDYruNX9apf1cBxNCDYCrae1qkBNdCJBgTb4yRfQclYqYF1NCDYdpLQ3CDrbBD9ql+PpIGbAtsPfeyZ4cOfefbiis9r+WyrcVrz38s88jynzmtq+zxevl/aXrbP/VbjMF5VTp3H1PbVuK3nrXFa9S37e68XbAXb1ZLQ3sXv/ITW3jRwU2AbUPuFp+9dXPF5Lb9uNU5r/nuZR57n1HlNbZ/Hy/dL28v2ud9qHMaryqnzmNq+Grf1vDVOq75lf+/1gq1gu1oS2rv4nZ9g25sG1gbb6qSnGrdqX/md9mHvquvxp+4Od954cHHF56vaxLNI3GHr1HGwW9mJ+tt3719c8bkaZ+vnU+cF4Dz17JvDx598uek31kOcsn+q8av22Msl7cPeVddRdVD5J69/7n1rnFPjzrxa8bkqZlc9y/rB/twyxnpsuOJPbNqonDuA/YUHNaAG1MA2Goh39prARUKM09n4TFyrcav29Msl7VlDLgNqH3zww4srPud67vP8po7TslOtN4+z9f3UeQEoAbUBty2/sR7ilNtX41ftsZdL2hOHXB5VB5V/8vrn3rfGOTXuzKsVnxyv6j7rB/tzy1i/YOup7cMENVdQ9t8GYPSzfr5KA62EdlWfKc9IaPmEL497auLEfpUItwIaxol5xNqyj/J6c/3W96f6m3ni9xxX6nNZtc9+OXVe2O9NB/gn9HXd3zhEu+uu8E/4NseFe8ZBv8Qh22ydfFfjYD9+yIy1VHGqnrf2F+s4tYz5CbaCbblBThWW/QQvNbC9Bkg4JLSlY0CCzCd8eVzAZCwoMU/sh72rrlYipk+VkKeOU/kxrxe7N1We6m/mi99zXKnPZdU+++XUeWGfeObyqDrAP6cCIaDYOulkHPRLHOhPCWBW86nGwf6pgE78mF/W19z7mJ9gK9gKtmpADXSgARLOUgmjAgwSE4mtdR/zunxl8KzGudwnPudxcn2+z+OMTZhhh+Qfn3O/Vn1uv9Y9fgNIT/1BAj9V62KcqL985Xi07i/3jc+Mi3+qcXK/PE6uz/d5HMZrlWFnCR2wLuKEzVPLDJzYZ93ZP4zbAtlcn8fBXy2/0K4q5/av7PI87Au2HSQ0Amq5/SmZPtfne9HA0gkjgCCSW07AOQG27nP/nDCrcXK/PE6uz/d5nLFxavmxVT92nLnt8BtAC8CMXTf9aV+ti3bZvzkerfvcn3HxQzVO7pfHyfX5Po/DeK2y8gf9WvW0Y13EKfrNucJewGy2z7qzfxg3A2+eQ67P4zDe2HXTPpdz+2d7+T7sC7aC7cMNkgXivdCmBo6jgaUTBgmZhEmZE2frnn6UGTSYd/VXotk+dqqS9lEftrOG8wlXtLl8keCr/sy3qs/jrXVPfPAn94BMBSasP4Mw/bHHvHme/Y2fiVvrPvfP4+BX7OX22X6uz/e0j+dhm/VQ4ofLsb/8eSkdsK5qHszn1DLHh3XjR/xMu6wP/JD1UM1n7nrm9q/mxfOwL9gKto9seARieRyoMVbGaumEQcILu5cvEn4k0Pjcur/cNz5Hgg3baDaeRdLHXm6f7ef6fE/7CiRI8FF/1QUYVP2Zb1XPutYuiQ/+5L4FKKy/AhzsMX/sVn4mbvi9us/98zj4lf65fbaf6/M97as44YerNBDPltIB66rmgZ9PLXN8WDd+xM+0y/rAD1kP1Xzmrmdu/2pePA/7gq1g+zDBIAxLIUkNHE8DayeMKjHmcacmStpzsoT2qvFyPYmb55U96pkvJ1oV2OT55P5rgQrjnFqyvmp+rfrWuFVcsl3iMBaYaJ/9Xo3HPKnfqw7wC6AZ96dceX2sP5eMR/zxD2Nm8M33tKvGy/bz+K37uf3H2BdsBVvBVg2ogQ40sHbCADwyqORxSaT5ZKhKSLTPibQaDzvUVyCU7dGP+bZAo9UfcMDuXkrWV82vVd9aB35XB9f/4zL8iL9bP0hFvK67ss6xn0vGI/7EC9ucRDOffE+7arxsP4/fup/bf4x9wbaDhNYKtPXHO30zZsZsqgbWShiAZwWqJM6cCHmeAai1LsarTpJinXFV82nZn+unU/uzrvBLfG7N89T6yu+Mf6rfWv0ZVx38+LsLvwCMU0vAM/qF9lq6QJ/84Ea887jYBXBzfY4j42J/7HzoRzm3P3aqMuwLtoJtc6NUAvL5j7/A9If+uEkNrJUwSMwVoAI80e4ysPGcxFolyuwzxmsl3mo+2V6+n+unU/uzrrF+yPMee1/5nfFP9VurP+NGO3Xwo3chfgndnHLxA95YkESfACvxzmNjFwDO9TmO6A/7Y+dDP8q5/bFTlWFfsBVsBVs1oAY60MBaCQOgqYCMxF0lwlb/nKBozwlSBbjMpzV+to+fqoQe9XFV66H/1MTOugCNyn6e76n3ebypP2DkcbGH33N9Kw6t/tke7XvTQV5n676lN/yObgFWwXb48T9TN2wrMNb/6Kc3faEv1IAaWEMDrQR46pgkzgCN+JztACCnAk+2x3g5UWcQZT6t8bN9/ETiB5xyWa2H/lPzJOuaC5h5PdV9Hm8uUGMPv+dxW3Fo9c/2aN+bDvI6W/ctveF39MsPguwX9EY9Je2qfbC0/llnaz20O7UM+57YdnBSc6oA7CdgqYF+NLB0wshgEfavujghIpFe1ebyswqMqvFa9nN9ZR+tZxAg0VOS8OM+5k0/ynhG26vqaVeV9MdfrflWdlrP8SdgcyrYYifmfd2V43Bd26ir1l2N17Kf6yv7+G1tHVTraPmFeuYf99fpLa8j67eqz0BLP54LtsLhIy8/No9lP+BgLI3lnjXQSoBT554TIsk1lzkh5vp8XyXMaryW/Vxf2Wf9LeAAkGLe4VP6Uc71M/1bAMF4p5b4E6AFcFv+yeNhJ8cx3+c45Pp8X82jGq9lP9dX9lnf2jqo1pH9UN0zf/QS7a7SY15H1m9VH/6KtmEzLvrxPOYfffEXZWs+tKvKuf0ruzwP+57YCuWPCBeBbFWy8aqNNHcea9kfa3dsu2qdY/uPbXfqOHPtV+P6fJkfGJZOGK3EnEEi37cSdo771PGm2s/jVfctP7bqK7s8Z534qwIW2k8t2acZZBkX0I37aNuyT7/K36wDUM/3VT/ALY8/dbyp9vN41X0rzq361jqqefMc/7TGyfOv2qMLADbGibb0r/pRT0m7iPNlMI7nY65qfOzPLWMOgq1g+1DYcwV1an9eAGzkU+1U/dayP9bu2HZz57/2OHPtV+vz+T7BlkRYJSsSFAku31f9QkdXAdXU8abaH6uzsAtcxOfcr1Wf2+d71om/MmDk9lPv2acZYBk3A2/LPv0qf7MOdfDj+7jlt8qfPGefTNVb1R5d8INH1l3VL+uDdvwgw14ZW1bj53FOvY/5CbaC7SMv7lMF1erHRmfD0p6Nkjda1Z5+Y0s2dH7Rj+1ftcvzruab21X2qudj+49td+o4c+1X4/r8xxPiqf5YOz7oO8aJKwNS3me0y/u9tT7Gyf2q9VXtW+NU9dU4tG/V065V4q+lfqDHDzkueR6Me+r7kHGIbx4v26ddjmeeV75nnNyv8n/VPtsde1+NQ/9WPe3msT/f1wAAIABJREFUllPHqdoTFwCU+Ef7uHIcq3ljX7AVHjeDx0qMe3jOxsovcjZKBtuq/dS18MIbu3HH2s/zruab2421T7ux/ce2w24uW/1b9dme98sA61g/rh0f9J0TYzyPPZb3Ge3yfm+th3Fyv2p9VfvWOFV9NQ7tW/W0a5X4C/+12rfq8QPAUtll3FPfh4xDfPN42T7tcjzHrif3q/zPvHL71jhVfTUO7Vv1tJtbTh2nak9coj4u4k98chyreWOfE3rsjS054Y9xo081zqnPw6YntgeG7p/4laeHn3r81vAzn3l2+KlP3Rr+4a9+ffi7v/S1xYVyqsByP148eQOFENlc8ZkNyMZrvahoH32vu9hQYzfk1MSQ18H6q+fUVyXryn7geV5ra33Vehi/mifjtewzn9Y4jGe5LPhW8TvVz8SduKJD9mq1L9nntGO/Y6fSB+MxDvZ5jv5yQmQ8xqnsZz9gl3lR5vFzv2jH2uJzrt/qPs+/Ne88r+w31p/9V42DD4hTZZ92xKcah/6Ml9fD8151wPrwD2X2A37KJf2zf3iOPUrsTo0PuqninueV7+f2z/byfaxPsD0w2AbUfvord4fPP31v+M0/vTv829//9gXc5kDv5Z4NxoZiY4QQ2VzxGeHzIswv2rwe2mOjKvluz9i/QmF+1Xh5fnkd9KueU1+VrCuPw/O8ztb6qvUwfjVPxmvZZz6tcRjPct9gS9yJKzoMncQV9bGncxzZ57Rjv2On0gfjMQ72eY7+wk7YZlzGY5zKPu0pscu8KPP4tKeMsWl7eR7Ub1Xm+bfmneeV/caasv+qcYhv1KuDH+kx+3nsffYz8RgbV/rnfcJz7FFilziyf6jPOmAd6KaKO+2qcm7/yi7PYz2C7Y7ANk5b49T1nz1+a/jZ3779yOnjv/yt28NPfvKbw9//2DPD3/nFrw3/4reeHf7o1hvDrbvvDl/65uvDJ7708vBPfv2bD1/4BPqmSgTMxqHkJ8rYgPG5dU8/yryh8sZlY48F2Kp9tbFjHmz++Ix/ec66mG9eH88p83rwGy8a5pGfMwfKah3UY4f5Yo955Hkyr6gPGy1/Mn60jT6MY7kswFb+JE5L+T/vq6yfah75+Vg7tMvj8LzSMePRLvenPpe0xy5lqz/9Wu3yeEvfM4+x867Gb9lp1Vd28/OxdmiX/cvz1nppl/vn+XBPe+xStvrTr9WOcVol9hifcqz93J9++XllN7ejf2vee6uP96BguyOwDaiNU9ff+bPvDn/+/NsP4Qkhfvlbbw6//OR3hp/+9Lcu4HbvYJs3CusAgACl1j39KPOGawFaCP26KwMdbWP+YTtv3KhnLvGZep6zLtrk9fGcMq8Hv/ETNfPIz5knZbUO6rHDfLHHPPI8mRfrivoYA3u5ZPywF3WMY3lMsM37KutnbFzH2qFdHofn6C3XMw/aVfW0o6Q9dilb/enXasc4a5XMY+y8q3m07LTqK7v5+Vg7tMv+5XlrvbTL/fN8uKc9dilb/enXasc4rRJ7jE851n7uT7/8vLKb29G/Ne+91cf6BNsdgC0ntf/Xf35++C9/+erwly+8PXzzzrsP4Qnw+KsX3hl+769eG37hCy8N//iT39j9iW1sjIAj5k+ZAap1Tz9KgKvaUCFs2sbnqh3Px7Zn42eA4zknrIxNmdfHc8q8HuaTQRL7uf3UddA+xyfPE7DO47Le/OJj3rGuMX5nHpbLgK/+X8aP6lE/qoHjaiDeg4LtDsCWk9qA2ue+d/8Caj/5x3ceORl7CBjP3Lv4ftveT2wBoBDa5QswBNxa95f7xucMVPklFG2Axvic6/P92PaAIAAIwPEcEAx7l6+8vst18TmvJ56F7Xzyi/3cnvXQj3nxvCpzfPI80Vsel/VmwJ46fjUvn5+WVPT/aX5Tb/pNDfSjgXgPCrY7ANt/+vit4T/9t7vDV198Zwhoiq8hxHds82b76d/81vC7f/HqxRWfK7CN7+BG/c898dzw0c8+92OQFUHPYMSJcf5ub/QNG2GL7/VGGd/zje/7hq3LV7ab5w9IAUyAUdi4DKKAUwaqbK+6H9u/mk/LbgW2rCf3z+vL9fme+eOTPB7tmT8xyGDK87FxoT9gzDzyuqr1VM+Zr+W6yUP/r+tf9at/1cD+NRDvQcF2B2AbgPrHt94Ynv/eexdwG9+xDcjMmwhgBTQrsI36AOCvvfTOcOuVR7/SkEGFE+P83d7oGzbCFmPG93vje77xfV/AizLbzfMHlDKw5oQMsGUAzvaq+7H9q/m07GYAZLwKIPP6Kvs8x170iyuPRzvmj/8B4HzSOzYu9AdsmUdeV7We6jnztVw3Kej/df2rfvWvGti/BuI9KNjuAGzjVDQAMsDii994ffil//q336FtbaKpYPvSvfeHN+9/MHzrlXeHX3nyOxe/QeHv/fLTAyfG8d3eb7/63vDy6w+Gb3/vvQsovgy2/+jXvjH8/B++OHzua68Nz7/63vDqOz8YXnzt/YeAWwEUgFSBKoCW+/M8g3DLL9S3En2rHju5nNpvanvGG+s3wLYqs1+xT8n8hv/1J3QYMJ2BtjUf7ADG2LfcJhno/238rJ71sxrYrwbiPSjY7gBs46/843T0lTcfDP/5L18d/s1/eX74B5/4+iMntnkzVWDLyW7+KsJ//OLLw1duvzU8853vD1/8+uvDJ774t78ejBPj+Adrf/jMveE3/uSV4d9/7oWLrzFc/ipCnNb+7l++OvzFC28P//35t4Y/+NprFxAeQoorgxDzbQEqwJT787wCYuxXZSvRt+pPtZv7nTrOWL+F/euu7NdqfoAtJ74ZiFvzOXWdeT7en5Y09P9pflNv+k0N9KOBeA8KtjsAWxLS3Tf/evjtP/vu8HNP3B7+9//46K+ZypuvAtvqO7OA7XPfvT/cuvPu8Lmvvjb8zKe/dfF93vhe77dfe2948huvDx//4svD//m/fqVY/L5cxv3n/+nZi/pv3b0//NULb1/8Bof4TQ7xVYYYk3a5BIgyKNEOgK0ArNUfO7mkXz7xZbylgBl7EcerLr5KwElobpPXjb2qH+1pl+3le9pn/9AfP/BVhAy2uR1x5Dn2Y1xOjeNzHs/7dZOH/l/Xv+pX/6qB/Wsg3oOCbYdgW31nlq8ivHX/by6+9hAQG7Aa/xDsy8++Odx9668vrvi1YgG3/L5cNnNAcMBwgPH33v7ri9/gEL/JofU/nmUAwh5lgFHAEsDEc8pWf9rlkn6AG/YZLwNv7l/dZ4DAHlCXywyMuZ55MR72qn60p122l+9pj31K+uOHDNJRjw/DBu3yc+xnvzCO5TbJQP9v42f1rJ/VwH41INjuAGpjgyz9VYT4h2fxD8Hi+7EvvPaj78wCtm+/9zfDd9/+64v/tSxOffmveb/y3FvD119+d+D35f7qH708/N+/9+2H/3As/lez+PrCk8+8PnztxXeGr7/8/eFPb7958Y/LfuEPX3rkqwhAUQjtuisD1XVtow6wGvtyyQCXQXesHdrFHIBH5hNwx7NcVoBKO8AQ+8yX+lzSnnlwwprbMW48j7bYp2ScbC+3Z5ywF7GK+7iIG+1pxz3jWG6TBPT/Nn4+Fz3z/p76vl3aP3uZx9Lr0t46+zXeg57Y7gBul/7HY/GrwuKrBQG1cSrLd2b5KsILr743vPT6+w/B9id+5ekLuP1Xv317+MgTzw2AX/6tCPEPzQJu//lnnh1+7neeGz725HeGP/nWm8Otu/eHZ+/ef+TEFXAK0LnuAsAqQMt9AbGxLwZejKwrnzyOtUO7DBDYj+dXXQBgBkPa5sTRskd75lHZZdwKNBkn28vtGSfHh7jRnnbc4y/LdV7g2a/6fxs/Z7/3es/7e+r7dml/7GUeS69Le+vs13gPCrY7ANsAyvhHXd+59/7FKevcX/dFgovfbhBQy1cK4gXxh0/fu/gqwYv3fgS2eYPx68Lityfc+/4PLuYU8J3bcdL7te98/+K3Ldz+7v3h333uhYe/85YXUoDOVRdgBDDl+6v6xLOpL1oAbi2wzX7J98Qj5h6fc33rnvlH37jCr/GsZbdVn8et2ldxJF6sq+qfx/F+vRc6eyZioZ/X8XMvfs3vldDM5YsfjGOfx+fLdZc/8z6q/NIaB1uVnahX12q50ld+HnoRbHcAtrGhAzjjJPXVt38w+z9o4EUQv7IrfrsB/7kCAB1fQ7jz5oOHJ7ZZGPxWhfjfz+LXecXJbXxdIrfjpDdOguPENsD21/74zkOQbr3Q8osz3/PCy2X1Aszz4z7aBwxzUgvgTgVk7OFfgI7nVTm1fbbD/Hm5M++W3VZ9HqdqX8WReOGHqn8ex/t1kpT+X8evveo1v1d4v1DygysHDzzPJe+jyk+tcbBX2VHX6rrS1lXPQy+C7Q7Alu+uxn96EL/yKwDx1//klUd+Qn4IZI3/Uje+JhDfgc12Ajq/cefd4bXv/2B45a0ffce2ApeYQ9gIW2ET4M2/Rgy78Z3bT3zp0X90hvjyOA/X8/Tf/hfBvAAB0BBoXPE8+mKnVa49ztQX7dT21fxzAsBudaKSwbPlN+zFOPG51Z54kZCm9m/Zt35aQtP/0/x17vpi//JeyeVWYMs41XtHXavrKXs19CLY7gBs+e7qz3/+xYv/0Sv+B7IAyvyi4R91/cIX/vY/cKh+3Vd8Bzb+gVe2E/+pwstvPLiA2pcvndiWL7jv3r+wEbbCJl9RiH+UFqe4zA+78Y/P4td/cUKcxZjHAWDjecAcQAfwYh9wyvaq+7XHmfqindq+mn/YiQt/Ybc6UWkljOw/7FUJJrcnXnk+Y/tne97PS2BT46e/5/n76P5j/4Zurrr4wbj6wZk+7P/KH2PHqd4b6vq8dVrpqnoeehFsdwC2BIiTW37rAGBHGSe68d/Z8p1ZvuP6+afvDb/5p3cf/tqtyk78xoOAzz+69cbF9emv3L34R2MZpBgvTmpjLvxHDhXYYhd7rCe/0MYCa54PAFy9SLcah3VNfdFObZ/XX4E9dm8abIkL8a3mi/8s10lU6KECBP2+jt+P5tf8vmT/5nIs2NKvBbiVn1q6bdVXdn1+nnoPvQi2OwJbTm75rQO8MCjj983+5Ce/+fBElO+4/sxnnh1+6lO3Hv5HCZWd+I0H8T3bOOnl13yFjepFF18/iLkEKIfN6qsI2A3QDnu8UDKgtQCVfnk+ABPAncFpq3GY39QX7dT2ef1VwsBudaJCYhoLOtgb277yezVf/Ge5TsKZGj/jsE4c9u7XvG95r+aSv/GpfnDO7fN7eawfWrpt1Y8dx3bnoffQi2C7I7DtbePlF+ipL76WnVb9WL+OtUO7seuZ2n7qfKt5TB331PYkuGoeY9dju3mJRwCY579z0R86qYB1KtDSPt4DYTv7Mf+gHm0uX60fwJlvZT+P5/1574PQi2Ar2D7yIlrqxZBfaAFO8Wyq/ZadVv3Y8cbaod3Y9UxtP3W+1Tymjntqe5JUNY+x67HdvIQkAMzz37noD520/qanqme/U7bANN4L8UMvPwDnsgXGzFewVd9j9mjoRbAVbCeD5hhx2caXkBrYVgMCwLb+Pqq+Ac38Nyz8YMtXv6r6/ANsZQ//oMvqhBjQzePl/oKt+kYT15WCrVAr1KoBNdCJBgAIAUAAuC7xA7AVoPJvIar6DKCVPeaALlsnwHm83F9dq2s0cV0p2HaS0K4LsnW+DNTAeWgAgBAAziPeS+1rwJSvFFQAWp3ktuYxV5dz+7fmZ31f+0WwFWw9rVMDaqATDQgAfSXorYCLrxLwXdfqKwPVSW5rnnN1Obd/a37W97VvBNtOEpobs6+NaTyN5ykaEADUzSm6AWzjpD+uCnD5CgInvNVXB/Ic0GV1Ehz1cVX26O/fRKjvrK2r7kMv/uMx4dYTOzWgBjrQgABg4r8q0beeAaqhn7iqryQAnoAwoNuyjy6rk2CAurJHf8FWfbe0FvWhF8G2g4Q2Jti28aWgBvrWgADQd3yX3r8ZaEM/cVVgW9UDvNX8AGEANpecEFfgqq7VdaWtq56HXgRbwdbTOjWgBjrQgAAgAFyV6KtnFXACmtUJa66vTloZtwLoDMqCrfpFM3NKwbaDZDZHAPb1RaIG+tGAYNtPLLfYlxXYcqKaAZbnuWyBbWstLd226lv2rT+vfSHYCrae1KkBNdCJBgSA80rgc4Ft7ElqAG58PSH0ddXV+ipCa54t3bbqW/atP699EXrxqwidJDU373ltXuNtvLMGBAA1kTUx5h7AzYBa6alqP2asq9pU49C2VU87S/UfGgi9CLaCrSd2akANdKABAcDEfgrc8ZWE/JWCSk9V+1PGBkT4ekOMme1U88jtvFf/6Emw7SChuaHd0GpADQgAamDKe4CT1/w/ivGc344Q0HkZOAHbqf9hA3bD1uUrj5/XoK7VddbEdfehF8FWsH3kJ+TrRGOdLxk1sE8NCAD7jMte90sFqDznH49lsAVQW0Ca141dTmcpW4CsrtV11tJ194KtUCvUqgE10IkGBAAB4LqEn+sAzfwVBJ4DnrkeO7Sr6mlHSXvsUrb606/VjnEsz3sfCLadJDQ38nlvZONv/EMDgq06mPIu4OQ1wDE+05fnoae4cn1uV9XTjjLbbdnP/caOQz/L89wPoSu/iiDcPnyh+SI4zxeBce8j7vFC5xQsPhvXPuJqHI2jGhivAcFWqDX5qQE10IkGBNvxyU9Q0FdqoE8NCLadJDQ3aJ8b1Lga1ykaEGzVyxS92Fa99KgBwVaw9bRODaiBTjQg2AoqPYKKa1LXUzQg2HaS0KYE3ba+JNRAnxoQbPuMq/vVuKqB8RoQbAVbT+vUgBroRAOC7fjkJyjoKzXQpwYE204Smhu0zw1qXI3rFA0Ituplil5sq1561IBgK9h6WqcG1EAnGhBsBZUeQcU1qespGhBsO0loU4JuW18SaqBPDQi2fcbV/Wpc1cB4DQi2gq2ndWpADXSiAcF2fPITFPSVGuhTA4JtJwnNDdrnBjWuxnWKBgRb9TJFL7ZVLz1qQLAVbD2tUwNqoBMNCLaCSo+g4prU9RQNCLadJLQpQbetLwk10KcGBNs+4+p+Na5qYLwGBFvB1tM6NaAGOtGAYDs++QkK+koN9KkBwbaThOYG7XODGlfjOkUDgq16maIX26qXHjUg2Aq2ntapATXQiQYEW0GlR1BxTep6igYE204S2pSg29aXhBroUwOCbZ9xdb8aVzUwXgOCrWDraZ0aUAOdaECwHZ/8BAV9pQb61IBg20lCc4P2uUGNq3GdooGPfva54dYr7w4v3Xt/+NSXXxniBe+lD9SAGjgnDTz+1N3hseGKP7fv3r94IU55qdrWJKwG1IAauDkNfOSJ54anX3pneOu9Dy7gNt7jXvpADaiBc9LAnTceCLYm4ptLxPpe36uB5TQg2Aow5wQwrlW9X6UBwdavIvj9SjWgBjrRgF9F8K+cz+mvnF2rer9KA34VoZOE5qnXcqde+lJfHlUD8ZLnBCM+H3Udzts9qAbUwKkaiHef37EVbk2AakANdKABwVYYOBUG7Kd2etGAYNtBMutFjK7DF6samKcBwXae/9Sf/lMDx9eAYCvYelKnBtRAJxoQbI+flAUrY6gG5mlAsO0kobkR5m0E/af/etCAYKuOe9Cxa1DHczQg2Aq2ntapATXQiQYEW4FgDhDYV/30oAHBtpOE1oMYXYMvVTUwTwOC7Tz/qT/9pwaOrwHBVrD1tE4NqIFONCDYHj8pC1bGUA3M04Bg20lCcyPM2wj6T//1oAHBVh33oGPXoI7naECwFWw9rVMDaqATDQi2AsEcILCv+ulBA4JtJwmtBzG6Bl+qamCeBgTbef5Tf/pPDRxfA4KtYOtpnRpQA51oQLA9flIWrIyhGpinAcG2k4TmRpi3EfSf/utBA4KtOu5Bx65BHc/RgGAr2HpapwbUQCcaEGwFgjlAYF/104MGBNtOEloPYnQNvlTVwDwNCLbz/Kf+9J8aOL4GBFvB1tM6NaAGOtGAYHv8pCxYGUM1ME8Dgm0nCc2NMG8j6D/914MGBFt13IOOXYM6nqMBwVaw9bRODaiBTjQg2AoEc4DAvuqnBw0Itp0ktB7E6Bp8qaqBeRoQbOf5T/3pPzVwfA0ItoKtp3VqQA10ogHB9vhJWbAyhmpgngYE204Smhth3kbQf/qvBw0Ituq4Bx27BnU8RwOCrWDraZ0aUAOdaECwFQjmAIF91U8PGhBsO0loPYjRNfhSVQPzNCDYzvOf+tN/auD4GhBsBVtP69SAGuhEA4Lt8ZOyYGUM1cA8DQi2nSQ0N8K8jaD/9F8PGhBs1XEPOnYN6niOBgRbwdbTOjWgBjrRgGArEMwBAvuqnx40INh2ktB6EKNr8KWqBuZpQLCd5z/1p//UwPE1INgKtp7WqQE10IkGBNvjJ2XByhiqgXkaEGw7SWhuhHkbQf/pvx40INgeQ8cf+tgzw4c/8+zFFZ+X1l5ln+ehk6uumNOc+WB/rp3sj8pu9Tz3P/V+bfunzst+1+9zwVawXfyl6qa7ftPpH/2zlgYE22NoK8DvC0/fu7ji89J6qOzz/Pbd+8NVV8xpznywP9dO9kdlt3qe+596v7b9U+dlv+v3uWAr2C7+UnXTXb/p9I/+WUsDgu0xtAUwPfXsm8PHn3x59sktJ4sR/7jCZtjOgIk+Hnzww+HOGw8ewm18jmcBu9HmVH1if64dxmddjz9192K+Mc/4HOPEVT2nnjL8Hbaw2yoZFz8uFafWuNYvs38j7o8NV/xZSpgGaplA6Uf9qAbUQEsD8ULnJC4+t9pbfzOayuCUAXRqXABlYl+BGPqoAHFu3sf+XDusn3UB3hWQ5+f4gXKqfxkXPwK4U+2wDstt91noULD11NYEqAbUQAcaWBosTMinJWTANeJx3TX2xBEb1ckjcQfwKgCjXQbP6nmOf2tdY9dTrYPxGAd7rAtQpayAl3rKyh+MR8m4GWQz6Lbmjz3L0/bPXL+FngXbDhLaXCHY/2Y2oH7X70tqYCygLDmmth7VMCAEWFXlWDCjfwVoxJ2T2Aq8aBf24jOxq55TT9la19j1VOvI42CPdcU8L1+Ab1VP28ofjEfJ+jippV8FvPSzfHQP3KRPIu6CrWD78AV3k2J07H29HIzH8eIRL3QgKD4bw5uJIXGoThqJ0dgSwMtASnwZLwPeWDDL/emHfUrAr5o382ytuwLbDJDYy+uK+cbVAttqHayHMo9bzY/1Z/DFjuXN7Lfs99CGYCvYmgDVgBroQAMASgVAOQF4v04iJg4VkEX9lAuAq+LKeBkoAbQWkOX+9Mv6AACruTPP1ror4MzzxF5eF2AN+Fb11TryuvK41fxYf/6qQrbn/Tr7aqxfQ5+CbQcJbWzAbXezG07/6/81NQCgVAC05tja/pG2AaWxYNXyXcsecc+Ax/it/tQDjPSr5gXgZcAFRCuwjXGib2WXeTB+tS7meSrY5vlPBVXmycktfmitr1q3z3+0d5bwRcRDsBVsyxfNEiLTxrKbVn/qz0oDgIBge7MaAZyWAp2WPeKegZLxW/2pHwtogB2ASXkqaKJn5sG8q3Uxz1NBOs8fQGVc5lOVzBMgZv0AedXP59vsy9CHYCvYCrZqQA10oAFAQLDdJoGOBRVACCAbW44FLeLeAtvWuGPHy2AI2M0F2+zPal2sY2mwxe7YUrDd1z5DPxE/wbaDhEZALfe50YyLcdlCA/FCBzLi8xZjOkZb2xUIEquqHHsCSNxbX0WoxuH52PEqUD8VNCsNVetivqeCdJ5/BlTst0pOemOecY39waBar8/be2mMjyIWgq1gawJUA2qgAw0AApGQ4/OYJGCbZZLpdX4cC7YZ1MaCJnFvgW22D7jxvNJNBsEY76qrBba5TwsEq3Xleed1Uz/Wf2Pjg13Ksfav04Z1y++/0I1g20FCc3Msvzn0qT49mgYAgUi88flo8+91vqeCYQv88BdxD0ANuIz7uOjP+BV48rzSzVjwA5Ar0AQIKVtgWK2L9THvvG7qWT9+qkr8Q7+x5Vj71bg+XyfHRPwEW8HWBKgG1EAHGogXOtAQn02c6yTOpf0KWPFX4i3gy+PnuGMvg1duh53qOfUtsM1Am+/RZC5b62ReFbi2wDb6x5X9wLrwE+1OLSv7jGO57T6MOAq2HSQ0N862G0d/6+89aiBe6MBDfN7jHJ3To3sHcOQ7m1NBKccdexkccztiUT2nvgWAGTDzfdi/6mqtk3lVJ8BzARo/sWdOLbOf8Zvlo1rfwiehG8FWsDUBqgE10IEGAIFI0PF5iyTiGI8m7xYIRmwuX3NBkLhzslmd/NIOfTDPqn0rtlX/PE62Q78W2FbgORZoAdUKPJlnBc70r0rmgT/zOr1/dG9s4ZOIq2DbQULbQiyOcTObVL/r97EaIFGbaG9WMxWQtQCpBVhjAa06+c36YJ5V+5buqv55nGyHftV6aA8Ah73L19gfBOgT44Ut7FIyT34goP3Yknm43252vxFPyoifYCvYPrLhEYjlvjas8TAe12mARG2ivVmdAG4VyPKcE78W0NI+gyDgB2BhJ7dDM8wLkJ17Usu4WW95HMCS+VbjUt8CS8YdC6SMjx8o5+6Xuf2Zh+Wy+zXiItgKtoKtGlADHWjARLtsgjwVOLYCNAASQAb0KpBjXoAlgFu1r9afx81gm8cBtOlXjUs9IF+VrBeQr9rxnPHzeubul7n983y8X2b/CrYdJDM3wzKbQT/qx6NrwER7LA3PjRcgCOgFyIXNSscZOCvAzP3pF7bjAozzuLSLefE5oJJx6FeBJusBSLGfAXbq82o8/B/24hSY9Y0tOTlu+T370/t192nEzxNb4bZ8EboB192A+lf/LqkBErWJ9hi6mhsv4HEsYAGOY0ETbdIP4KR/Hpd2gCTzA2jpF+2iDvuUtAcssZ/Bc+rzajz8n8GZdbZKANv9tq/9FnEVbAXbR14wvGgs97VhjYdD0bU6AAAgAElEQVTxuE4DJGoT7T51UoHb3HhVcc/jAZiAJyAKcIaduDII0g7Qoz/jAp7ZPlqlf2uc1nyxx7jZb2PHyXYE233uF+I0tQx9CLaCrWCrBtRABxqoEv7UxGD7dRI94AUgLnXiV8U9jwdYxvOASEASIGVegCs6oF2MExf9GRcwzPZz/9Y4rflij3Ez2DLP1jjZDmDO+saWnBzneWDfcp191PJrxE+w7SChtQJt/c1sMP2u37fUQJXwt5yDY9Waz+BWgeRUH2I3AynPW+OMbZfnNbVfq32rnvFpl9eb68euu7KDvapszaPq5/N6jyzhG8FWqPWkTg2ogU40INiumzDnJl1OFCNOl68ApKg71T52sx2eM1auZ7yx7WhPObVfq32rPo87dz2MV9lhvKqc27+y6/N5+zj07oltJ0nNzTBvM+g//Xd0DcQLnVOq+Hz09Th/96QaUANTNSDYCrUmPzWgBjrRgGArBEyFANurmd40INh2ktB6E6br8WWrBqZrQLCd7jN1ps/UQF8aEGwFW0/r1IAa6EQDgm1fCVrgMp5qYLoGBNtOEpriny5+fabPetOAYKume9O061HTUzUg2Aq2ntapATXQiQYEWyFgKgTYXs30pgHBtpOE1pswXY8vWzUwXQOC7XSfqTN9pgb60oBgK9h6WqcG1EAnGhBs+0rQApfxVAPTNSDYdpLQFP908eszfdabBgRbNd2bpl2Pmp6qAcFWsPW0Tg2ogU40INgKAVMhwPZqpjcNCLadJLTehOl6fNmqgekaEGyn+0yd6TM10JcGBFvB1tM6NaAGOtGAYNtXgha4jKcamK4BwbaThKb4p4tfn+mz3jQg2Krp3jTtetT0VA0ItoKtp3VqQA10ogHBVgiYCgG2VzO9aUCw7SSh9SZM1+PLVg1M14BgO91n6kyfqYG+NCDYCrae1qkBNdCJBgTbvhK0wGU81cB0DQi2nSQ0xT9d/PpMn/WmAcFWTfemadejpqdqQLAVbD2tUwNqoBMNCLZCwFQIsL2a6U0Dgm0nCa03YboeX7ZqYLoGBNvpPlNn+kwN9KUBwVaw9bRODaiBTjQg2PaVoAUu46kGpmtAsO0koSn+6eLXZ/qsNw0Itmq6N027HjU9VQOCrWDraZ0aUAOdaECwFQKmQoDt1UxvGhBsO0lovQnT9fiyVQPTNSDYTveZOtNnaqAvDQi2gq2ndWpADXSiAcG2rwQtcBlPNTBdA4JtJwlN8U8Xvz7TZ71pQLBV071p2vWo6akaEGwFW0/r1IAa6EQDgq0QMBUCbK9metOAYNtJQutNmK7Hl60amK4BwXa6z9SZPlMDfWlAsBVsPa1TA2qgEw0Itn0laIHLeKqB6RoQbDtJaIp/uvj1mT7rTQOCrZruTdOuR01P1YBgK9h6WqcG1EAnGhBshYCpEGB7NdObBgTbThJab8J0Pb5s1cB0DQi2032mzvSZGuhLA4KtYOtpnRpQA51oQLDtK0ELXMZTDUzXgGDbSUJT/NPFr8/0WW8aEGzVdG+adj1qeqoGBFvB1tM6NaAGOtGAYCsETIUA26uZ3jQg2HaS0HoTpuvxZasGpmvgo599brj1yrvDS/feHz715VeGeMF76QM1oAbOSQOPP3V3eGy44s/tu/cvXogml+nJRZ/pMzWgBm5CAx954rnh6ZfeGd5674MLuI33uJc+UANq4Jw0cOeNB4LtTSQgxxR81IAaWFoDgq0Ac04A41rV+1UaEGz9KoLfr1QDaqATDfhVBP/K+Zz+ytm1qverNOBXETpJaEuf/GjP00Q1cDwNxEueE4z4bAyPF0NjZszUwDwNxLvP79gKtyZANaAGOtCAYDsvIQoU+k8NHF8Dgm0HycyNePyNaAyN4RIaEGzV0RI60oY6OrIGBFvB1pM6NaAGOtGAYCuQHBlInLv6XUIDgm0nCW0JMWjDl4oaOLYGBNtjx8/9Z/zUwHwNCLaCrad1akANdKIBwXZ+UhQs9KEaOLYGBNtOEpob8dgb0fgZvyU0INiqoyV0pA11dGQNCLaCrad1akANdKIBwVYgOTKQOHf1u4QGBNtOEtoSYtCGLxU1cGwNCLbHjp/7z/ipgfkaEGwFW0/r1IAa6EQDgu38pChY6EM1cGwNCLadJDQ34rE3ovEzfktoQLBVR0voSBvq6MgaEGwFW0/r1IAa6EQDgq1AcmQgce7qdwkNCLadJLQlxKANXypq4NgaEGyPHT/3n/FTA/M1INgKtp7WqQE10IkGBNv5SVGw0Idq4NgaEGw7SWhuxGNvRONn/JbQgGCrjpbQkTbU0ZE1INgKtp7WqQE10IkGBFuB5MhA4tzV7xIaEGw7SWhLiEEbvlTUwLE1INgeO37uP+OnBuZrQLAVbD2tUwNqoBMNCLbzk6JgoQ/VwLE1INh2ktDciMfeiMbP+C2hAcFWHS2hI22ooyNrQLAVbD2tUwNqoBMNCLYCyZGBxLmr3yU0INh2ktCWEIM2fKmogWNrQLA9dvzcf8ZPDczXgGAr2HpapwbUQCcaEGznJ0XBQh+qgWNrQLDtJKG5EY+9EY2f8VtCA4KtOlpCR9pQR0fWgGAr2HpapwbUQCcaEGwFkiMDiXNXv0toQLDtJKEtIQZt+FJRA8fWgGB77Pi5/4yfGpivAcFWsPW0Tg2ogU40INjOT4qChT5UA8fWgGDbSUJzIx57Ixo/47eEBgRbdbSEjrShjo6sAcFWsPW0Tg2ogU40INgKJEcGEueufpfQgGDbSUJbQgza8KWiBo6tAcH2GPH70MeeGT78mWcvrvg8d9+NtTe23anzWct+Zbd6fur8c7+17efxvF9m/wq2gu3sl6qbcZnNqB/141wNCLbH0FBA7Reevndxxee5cR9rb2y7U+ezlv3KbvX81Pnnfmvbz+N5v8z+FWwF29kvVTfjMptRP+rHuRoQbI+hIYDpqWffHD7+5MuzT27H2ltbH0vb58T08afuDnfeeHBxxecYJ67qOfWU4Z+wNXZ/MW7EJmK0VJzGjm+7efs44v7YcMWf23fvXwhHB89zsP7Tf2pADWylgXihx7vb9/e+NZfBKU5vA75O1clYe2vrY2n7AHtA7YMPfnhxxWc0Xj2nnnKqfxkXoAVwp9o5NZ72m7d/BVtPbE9+mbr55m0+/af/ltbA0mCx9PzOxR6gGfG47hp74oiN1skjQFYB2Fx9tNY1dj2tdTAO9gJqLwMtwLo02DJuBln8Cui25n8uOt/rOkPnntgKt8KtGlADHWhgLrjsNVEdbV6AEABWlWPBjP4VsOIfwKwCr7n6aK1r7Hpa62Ac7EUZkBvzv3wBvlU9bSt/4DdKxs0Ai18z8NLPcl+HFBF3wbaDhObG2tfGMh7G4yY0EC90ICg+38QcHPOrF18rCHgjFpSAWnUCSbuqbAEhvgfEADvKFgi2ABDwq+Y3dn3VOpg3AIm9Clznrif7i3Gr+bH+DL7YsdzHez/0LtgKtiZANaAGOtBAvNCBjvhsor2ZRAugAZSULRCjXVW2wJN4A2BogRJQrMC6AjrsVutivmPXV62DeQOO2KvmO3c9rCuPW82P9bcAGLuWN7P/Qo+CbQcJzQ10MxtIv+v3PWkgXuhATHze09ycy1cv/hp9yfgAWhnEADXGolwKBBkXoKUERKsT1jzPrAnmDWCj56XBNs9/KqgyTwCc9bfWl9fr/Tr5I+Ih2Aq2JkA1oAY60AAgECATn02c6yTOU/26dHwALECQeWVwi3Hjmgue2GdcgJlyLjgzbwARf1WgfOp68vwBVMZlnVXJPAFi1p/jUPX3+br7MnQj2HaQ0Nwo624U/at/j6ABQECw3adeiU8FalF/1VUBF4A2FswYf64+GBego5wLtnmPMd/KX0uD7VW+v+6ZYLvffSbYCrae7KgBNdCBBgCBueCSAcP7ZRI48an+ah1AzGV1EphPDqt2xI/x5+qDcTP0nQqazC+XzLfy16kgneefATX7v7rnBwr8UP0Aktfl/TL7qfJjxEOw7SChVQH2+bobSP/q3z1pABCYCy57WlNPcyE+FahlgALcWvHkBDWDFsBF2QJP2mVAyyBIu1yOtU+/PE6OdbSLtVf+wj9VfQv0GQ//Zf+37sfaZxzLbfJF6EawFWw9rVMDaqADDQACLRAywW6TYLOfiU/1V+tRf/kCFFvxBDxbJ48tEATkMrCNBb+x9qtxpvoL/1T+bIEz4+G/y74f83msfcax3GbfRewE2w4Smhtmmw2jn/XznjUQL3SgIT7vea7nOLep8ZnavgLQucBZ2UVr2X6+p10uM0BnTbD+ClxbYBv946oA9FSgxS5lZT+vx/tt8kfERbAVbE2AakANdKCBeKEDD/HZRLpNIh3r56nxmdq+ArWxABjjxZVBrbJL+2w/39Mul3mc7MdoH3quvmowF6Bj/IBr9sypZQvQ87q8X3dfhm4E2w4Smhtl3Y2if/XvETQACESCjs9HmPM5zBEw5KsCY0FoajwZJwNjZadqPzYm9M/rqsbDLv3yPKmnrMBzLNACqpW/mWcFzvSvSubhfttXfoi4CraCrQlQDaiBDjRAojbR7ivRAmj8464W0AF2U+PJOBnkKjtVe8ZvlfTP66rGwx798jyppwSAw97la+yJMH1ivLCFXUrmWX3Vgf5VyTzcb/vabxEvwbaDhMZGtdzXBjMexmNLDZCoTbT70t2pcRnbDwDMJ6fVczQJYGYwpb4qsVuBXWWXfnmejEN9rPu6i3HHAmkLbE/dL2Pjw/ost9mXERfBVrB95CdZN+A2G1A/6+clNWCi3aeeTo3L2H4VSFbP0RwgWYEm7XKJ3eqv4iu79KtAmvoAzesuxh37FYLqZHisf/P6uZ/bHzuWy+7biItgK9gKtmpADXSgARPtsglyLnBUgDfWbiuelX2ejz3ZzO0CMMMG88RezCcuQBjA5MSTdvQHVAFZ+lWgSXugFvsZYKc+r8bDv2EvfMD6xpb4jfXjL8ub3YcRP8G2g4TmRrrZjaT/9f8eNECiNtHuQ4+AGmAH8I3VSiuelX2eVwAIOFLmdhkEsUd71pPBjnb0B3QBWvpFu8vgjD9oD1hiP4Pn1OfVePg3gzPrbJX4LdqFLdZhebP7L2Ih2Aq2bkg1oAY60ACJ2kR7s4kVQAPoAL0KeGgf8bt8tfpnkMQ+z1tglusrUMv2WA96Azyr+dIfsGWN8fwy4GY/VPYYN+t87Dj4CTuC7c3uF+KxVBlxFWw7SGhLCUI7fW1w43le8SRR54SvDrbVQQasDHA5HrTPoAkIVv0BwVzP89DDlIuT0KyfbI/x0BtgWM2X/oAq6wSQ8Uf2Q2WPcat5tsZhPOwA5lN8FW0rf2Hfctt9h78jNoKtYOtpnRpQAx1ogESdEz4vfMttEi2AlsGt8j/tAT7Ksf0ru1OfM4+x49J+7Hxb7Vv1rId21Typb82LdpUdxqvKuf0ruz6ft08F2w6SmZtg3ibQf/qvFw0ItvvQMieUAT7xuaUv2kf8Ll9j+7fsj61nHmPHpT1zbvVrtW/Vsw7aVeNR35oX7So7jFeVc/tXdn0+bx9H3D2xFW6bL1432ryNpv/03xYaiBc6p1TxeYsxHUNtqwE1sCcNCLZCrclPDaiBTjQg2AoYewIM56Ieb0IDgm0nCe0mxOOYvrTUwL40INjuKx7uD+OhBrbXgGAr2HpapwbUQCcaEGy3T6KCiz5XA/vSgGDbSUJzY+1rYxkP43ETGhBs1d1N6M4x1d2eNCDYCrae1qkBNdCJBgRbAWNPgOFc1ONNaECw7SSh3YR4HNOXlhrYlwYE233Fw/1hPNTA9hoQbAVbT+vUgBroRAOC7fZJVHDR52pgXxoQbDtJaG6sfW0s42E8bkIDgq26uwndOaa625MGBFvB1tM6NaAGOtGAYCtg7AkwnIt6vAkNCLadJLSbEI9j+tJSA/vSgGC7r3i4P4yHGtheA4KtYOtpnRpQA51oQLDdPokKLvpcDexLA4JtJwnNjbWvjWU8jMdNaECwVXc3oTvHVHd70oBgK9h6WqcG1EAnGhBsBYw9AYZzUY83oQHBtpOEdhPicUxfWmpgXxoQbPcVD/eH8VAD22tAsBVsPa1TA2qgEw0IttsnUcFFn6uBfWlAsO0kobmx9rWxjIfxuAkNCLbq7iZ055jqbk8aEGwFW0/r1IAa6EQDgq2AsSfAcC7q8SY0INh2ktBuQjyO6UtLDexLA4LtvuLh/jAeamB7DQi2gq2ndWpADXSiAcF2+yQquOhzNbAvDQi2nSQ0N9a+NpbxMB43oQHBVt3dhO4cU93tSQOCrWDraZ0aUAOdaECwFTD2BBjORT3ehAYE204S2k2IxzF9aamBfWlAsN1XPNwfxkMNbK8BwVaw9bRODaiBTjQg2G6fRAUXfa4G9qUBwbaThObG2tfGMh7G4yY0INiqu5vQnWOquz1pQLAVbD2tUwNqoBMNCLYCxp4Aw7mox5vQgGDbSUK7CfE4pi8tNbAvDQi2+4qH+8N4qIHtNSDYCrae1qkBNdCJBgTb7ZOo4KLP1cC+NCDYdpLQ3Fj72ljGw3jchAYEW3V3E7pzTHW3Jw0ItoKtp3VqQA10ogHBVsDYE2A4F/V4ExoQbDtJaDchHsf0paUG9qUBwXZf8XB/GA81sL0GBFvB1tM6NaAGOtGAYLt9EhVc9Lka2JcGBNtOEpoba18by3gYj5vQgGCr7m5Cd46p7vakAcFWsPW0Tg2ogU40INgKGHsCDOeiHm9CA4JtJwntJsTjmL601MC+NPDRzz433Hrl3eGle+8Pn/ryK0O84L30gRpQA+ekgcefujs8Nlzx5/bd+xcvRBPXvhKX8TAeakANVBr4yBPPDU+/9M7w1nsfXMBtvMe99IEaUAPnpIE7bzwQbKsk4XMBQg2ogSNpQLAVYM4JYFyrer9KA4KtX0Xw+5VqQA10ogG/iuBfOZ/TXzm7VvV+lQb8KkInCe1Ip0rO1VNQNbCOBuIlzwlGfNbP6/hZv+pXNbBfDcS7z+/YCrcmQDWgBjrQgGC732QrCBkbNbCNBgTbDpKZm2WbzaKf9fPeNSDYqtG9a9T5qdG1NSDYCrae1KkBNdCJBgRboWFtaNC+Gtu7BgTbThLa3oXm/HwZqoH1NSDYru9jdayP1cC+NSDYCrae1qkBNdCJBgTbfSdcgcj4qIH1NSDYdpLQ3CzrbxZ9rI/3rgHBVo3uXaPOT42urQHBVrD1tE4NqIFONCDYCg1rQ4P21djeNSDYdpLQ9i405+fLUA2srwHBdn0fq2N9rAb2rQHBVrD1tE4NqIFONCDY7jvhCkTGRw2srwHBtpOE5mZZf7PoY328dw0Itmp07xp1fmp0bQ0ItoKtp3VqQA10ogHBVmhYGxq0r8b2rgHBtpOEtnehOT9fhmpgfQ0Ituv7WB3rYzWwbw0ItoKtp3VqQA10ogHBdt8JVyAyPmpgfQ0Itp0kNDfL+ptFH+vjvWtAsFWje9eo81Oja2tAsBVsPa1TA2qgEw0ItkLD2tCgfTW2dw0Itp0ktL0Lzfn5MlQD62tAsF3fx+pYH6uBfWtAsBVsPa1TA2qgEw0ItvtOuAKR8VED62tAsO0koblZ1t8s+lgf710Dgq0a3btGnZ8aXVsDgq1g62mdGlADnWhAsBUa1oYG7auxvWtAsO0koe1daM7Pl6EaWF8Dgu36PlbH+lgN7FsDgq1g62mdGlADnWhAsN13whWIjI8aWF8Dgm0nCc3Nsv5m0cf6eO8aEGzV6N416vzU6NoaEGwFW0/r1IAa6EQDgq3QsDY0aF+N7V0Dgm0nCW3vQnN+vgzVwPoaEGzX97E61sdqYN8aEGwFW0/r1IAa6EQDgu2+E65AZHzUwPoaEGw7SWhulvU3iz7Wx3vXgGCrRveuUeenRtfWgGAr2HpapwbUQCcaEGyFhrWhQftqbO8aEGw7SWh7F5rz82WoBtbXgGC7vo+n6PhDH3tm+PBnnh0iLktcYStsVnNgvKXaVeNUz8eOX/Wvnld2q+eVnanP17Y/dT62H7e/BVvBtnxJuonGbSL9pJ/2ogHBdl9aDMD8wtP3htt37y9yha2wWemN8ZZqV41TPR87ftW/el7ZrZ5XdqY+X9v+1PnYftz+FmwF2/Il6SYat4n0k37aiwYE231pkXg8+OCHw503HpwMt9E3bAQgh81Kb4y3VLtqnOr52PGr/vk5J6aPP3X3wn/hh/gc48RVPaeeMgA1bGX71T3jfvzJl4ennn3z4orPU+1U9n2+7j6NuD82XPGntTEMzLqB0b/6Vw2ogakaiBc6p4PxeWp/2y+rOeKRgSyeT7kAuFZeZryl2k3Vw9jxx9rlxBSwzz8gVM/ZA5StE+w8H8YNqA2gBXCn2sl2vV92f1X+DB0Ktp7amgDVgBroQANLg0WVOHw+LkETj5sGW04gOXFkXi0AznHGTvS/6gLAW+tlHtk+94yDvQy0AOvSYMu4GWQz6Lbmzzosx+2Tpf0U2hRsO0hoSwtDezezIfW7fp+jgVOBZc6Y9q01SzwqMAPQWiUA1wJRxsvtADNOHKt2rVhip5ov82ytl3lU4zEO9qIMyI15X74A36qetmNBlHE5qaVfBbzV/H1e74ktfBNxF2wFW0/r1IAa6EAD8UIHOuLzFknEMeokTjxaoAfAtdplIAS4ADDGA/Sq5xUQ0r6KadTHHNBYLk9dB+OxHk5Mscd6Yn2Xr2odtGmtpxo3+5l2rD+DL/WW9V7Y0jcRf8G2g4S2pWgcax+b1zgYh6yBeKEDG/E513u/rWaIRwVmUR9XC9Bol0EN0ALEGA9Arp4DjLRDM7SvdAJ4Mp9cnroOxmM9gCP28jyZb7UO6lvrqcbNfqYd6we8x9qnv+U2+y90KdgKtiZANaAGOtAAYBOJPT6bSLdJpJWfczwAo3h++QLgKgCuQCvb5x4QBLzy8woIaV+th+dLrwO7gC3zyPMGWCmrdVCPHexT5vlPBVXmCYDHPOOq4sS4ltvsx4iFYNtBQnPDbLNh9LN+3rMGAAHBdh86zfEAiAAvylMBLdvnHkAGtPLzCqRp39L40utgPICTeeR5x/3lq1oHbbCDfco8fwC1ak8/SuYJEBPHCqTpZ7nNvoz4C7aCrSc7akANdKCBeKGTZOOziXSbRFr5OceDe05UiVUFtjyPdlfFE3vU5/sMYIBXblfNv3qewbC1DuoZv7KbnzNPQD3uL19Lg+1l22M+C7Y3u7+yXriP2Am2HSQ0Amq5z41mXIzLFhqIFzoQEZ+3GNMxam3neHCfQa0CNJ4DrtnX2KM+3wOg+UQyt8t2W/cAc9i5fDHfvD7ajD0RZfz/v73v8Irq6tr//aff9ybRaGKMRo0l1RRNNBobKL2D9CK9qPQ+hQEGmAFm6MXekrc+33r2uHG8crkDTH4C72Gtu+7ce87dZ9dznlNRPq0dAfVxBf526XZA2sq/FaAqfae76nWr8qmc5m4fQ1vRDe1hgK0BtqYBND5gfGAP+IACAQU6W2kUzDfxa2St9tBnK/CzA4T63s6eSk/Trc8KbK0Az5rPyeZWIMjv17uUX6t86+XlOyegyzyUzQ64bhXYWuVVPbGszVxWvVrpmuf4xdJmdEm/McB2DzRomzG6yft+gs3o3ej9r/YBBQIKdP7q8gz9jX3aag99tgI1O4Cm7+3sqfQ03fqsgNQKIK35nOwYK/BTfq3y2YFFJ2CofJIuQTOfoy8nIG2V205O1VM07Vh+x0rfrlzzfuP42ap+aDsDbA2wNaN1xgeMD+wBH2CFriCCv7faMJjv4tPgWu1hBxCdAKEdAFR6mm4tT+1oBW52gNAOqGk56lvWu5V/67M1vz4r38qn9a7ybBXY8ntednJZ9aL5N3u3o2+VxzzHJ66c9Ej7GWC7Bxo0J0Ob9P8/AWX0bPT8Pn2AFbqCBv5+n7yYsj0CqqLtYQek7ICmAiw74KT0NN3O/kwniFRe7ICnHdDUcpQf693Kv/XZml+flW87X2E+8mw3Amwnh8qpdzu5rHrR/Ju929G3k8u8/2vbCfqNAbYG2JoG0PiA8YE94AMKBNgw87dpQP/aBtRJv2oPuxFHpvOKNxC02t8K4OwA4WYBmgJe3Xyl36vcVj5UX/qdE7C18q2A045/TbfelS8tX+/Kpx1wttKxPisffE9aStfc33/cGWC7Bxo0E0jvN5CM/o3+d4IPaENtGtqd4Y9qDyfgpADJKZ8dQFPf0/Ks9lcgyXRedkDaCWhqOXpX4KmnA+j3dnxYv3OSx8q3E/+abr0rX1q+3pVP6p86sX7n9Kx6tOpb6Zv7+4lD2s0AWwNsTU/T+IDxgT3gA9pQm4b2/TSoViCj9sDrPzvgagW2ds9OdtXy4pXPKo8+K+C0A3Z2gFe/s47wWulSjo0uLTdWQOoEbJ30pfxZ77Hq2/qdef5r45N2McB2DzRoJlD+2kAx+jX63Q0+YBraneWnag8FtnZAzArU7J6dAJiWF698dj6vwFUBuLU8OwCr31lHeLUcTSe9jS4t166jYP3WbmQ4Vn0pf9b7dr+30jPP8Ylf2sUAWwNszWid8QHjA3vAB0xDG5+GMV4AQ+2hwFYBoAI/pvNyArJKR7+34y/e+bQcK7864qoAU/nSfDpCqkBVgax+Zwc0Nb8CU6VvBbCbfW9XnuqL9GgDPm/mUrup/Kovc3+/cUgbGmC7Bxo0E0jvN5CM/o3+d4IPaENtGtqd4Y9qDyuwdQJwCtzUjkpHn+18Ld75tBwrvwpUrcBO8ymQVKCrgFa/Yz6mKX29a37KwUvpW4HnZt/blaf6sgJn6jmWy2onlcPc32/80a4G2Bpg+04FYwLz/Qam0b/R/1Z8QBtqJwC0Fdrmm9h9UgGaAjorAFIA6ASeFAgqkHOyq9X+ygffR19KzwoYNY8VCFr5VeCq5SkdlVfT1Wf0e5XHrhwrv3b0tFyrPmItR/lSOgbYxu7bqrudfKddDbA1wNYAW+MDxgf2gFEEUpIAACAASURBVA9oQ21t8HdyI7QXebMCLAWSahcrgKPd1rsU2FmBsZ3OrPZXPlhu9KX07ACdFZha+SVdvtPylI4CV01XPvV7lUd5sZZj5deOnpar+txsOZpf6Sgw5/NmLqtdla65v1+gTBsaYLsHGjQTSO83kIz+jf53gg9oQ21t8HcCb/9NPChAU+BmfY5VF/qdHRC00tH81nL1+1jv+r2VvvVZy1O6Tt855XdK1/I1n115mu7El+azo6Pl2d23+70dXfN+e+2JAbYG1JqROuMDxgf2iA8YYLu9BjFegEJHKAl8+Nv6HGs5+h3tykvp2X2v+TWfPuv3sd71e7ty9L2VvtN3Tvmd0q3l2pUXLzpant1dy7Hjw+478/6vjVP6uRmx3SONmgmWvzZYjH6Nfne6D7BC11Eq/t7p/Br+TEwZHzA+EG8fMMDWgFrT+BkfMD6wR3zAAFsDEuINEgw941O7zQcMsN0jDdpuczzDr6ksjQ/E3wcMsI2/To2fGp0aH9hdPmCArQG2ZrTO+IDxgT3iAwbY7q4G2AAmYy/jA/H3AQNs90iDZoIj/sFhdGp0utt8wABb47O7zWcNv8Zn4+0DBtgaYGtG64wPGB/YIz5ggK0BCfEGCYae8and5gMG2O6RBm23OZ7h11SWxgfi7wMG2MZfp8ZPjU6ND+wuHzDA1gBbM1pnfMD4wB7xAQNsd1cDbACTsZfxgfj7gAG2e6RBM8ER/+AwOjU63W0+YICt8dnd5rOGX+Oz8fYBA2wNsDWjdcYHjA/sER8wwNaAhHiDBEPP+NRu8wEDbPdIg7bbHM/waypL4wPx9wEDbOOvU+OnRqfGB3aXDxhga4CtGa0zPmB8YI/4gAG2u6sBNoDJ2Mv4QPx9wADbPdKgmeCIf3AYnRqd7jYfMMDW+Oxu81nDr/HZePuAAbYG2JrROuMDxgf2iA8YYGtAQrxBgqFnfGq3+YABtnukQdttjmf4NZWl8YH4+4ABtvHXqfFTo1PjA7vLBwywNcDWjNYZHzA+sEd8wADb3dUAG8Bk7GV8IP4+YIDtHmnQTHDEPziMTo1Od5sPGGBrfHa3+azh1/hsvH3AAFsDbM1onfEB4wN7xAcMsDUgId4gwdAzPrXbfMAA2z3SoO02xzP8msrS+ED8fcAA2/jr1Pip0anxgd3lAwbYGmBrRuuMDxgf2CM+YIDt7mqADWAy9jI+EH8fMMB2jzRoJjjiHxy7SaeH0rw4lj2MEznDOJrpw2fpQ/gkxbtlwHowxYNPU71y8bdVF07p1vw7/ZmyfpHlE/0df61DvlO+renM82Xu9vWtdKXMLB8Ob9NuBti+66tqw+j7J6lefJ4xJDY/nj0s92h7R+f9b/wda3yr/7LeWS9udqrulG+7uFP5j2QM4WTuCL4qGMXXt0dxOn9EfIX17Xr14mbldeJjs/R2S/6DyR58kuKR+o7xdyovouNvbvtFz2fyR6Qupv43iks7Oul3w/h/WOdvYv45WEnuFkUZPmOr0I2e9qaeCGovVgVwpSaIH0rHcTJvRMDtVu3NyuRI5pBc61UsTulbLfd9fUdQ+0vFBK7WTuJSdQA/lo5JB0H5saZfrg7gev3ktvWtdC9XB/Fz2ThO549KZa/lbvZugG1s8U1QS6Byrnwcv90J4FzZuACWzep7r+aPNb7Vf+3iZqfqR/m2izvKfzTLh++K/EhsmEL2/Rnkts0gpSUkvnIidxgEt9uVz4mP7dLfqd9HQK1XOgq/VQWQ3BxCTussCjrmkN8+i/S7IfxeExT9E9zayWFHp8W3aoCtndLM+9gaCaOn968njiSk3Q1J5Xu1NoBvC0fweboXHye5bSuF9ezGypo9aI5QfF8c6T0fTvfiwGs6Tunr0dwN76i/lOYQ8tpmcKtpEufL/TiaSf25cCDZLRVwdHpS0yQKOiKN3Xb0zZGKpOZpZLfO4HpdED+W+HEkY/N2Ux0bYBtbLBJQnK+YQGLjFDLuhXCjfhIncobw8S3Xmq+rTv+b7puNb9u42eF6dIo7dny+LfLjWt0kirrmUD24gIreOWTdm8YvZX6cyB7CoVTPputXqy858WHNv9ufdYSVs4rsNHAghp2Gku55lPfOi46p55LuWeS2hZFQP4lvC0elTvw09U1sO9FpH10xwHa3O4vh/43D/7fq4ttCP4pZAQ8sILkhgB+LfPg8zYX9Nwc3VfkS1F66wx70NFJbQvi9OoDjWW8afKf03ah/TilSf2zAKvvmkVA3jm8LvDiU3I99iX0Cbq3pzFPZN4c7/XNIbpjYsr45asgRCpab3jyJX8tGcDSddhvYlN1U7wbYxlYXcOpcGtXWMEp75pDRMoWT2W7sS+iLgNv/0iVqm4nvDeNmh+vRKe64zIigtqBjFrWuRVT3zyGzJYDfyn04lTWAT5N6ceBWP/bf2lz9qnGqdyc+NN9euXOE9bM0r4DazHthVPUvomZwEeWMweYgbtWNIbVhHHn3J1HTP4uKnlkk1k/gbNGwgFvVgxOdsq5pA2xVWeYeW6Ng9LTz9PR9kR9VfQto8iwivWkCPxd58HkqgVn/61HH2HiWEZiWEIq751DYOYubDUGcyPJg/2s6Tum7zTekgkz3ypT0nYFF1A4u4FLFMI6l9+FAYg/2J/bhUKr7nfRLFT5U98+i0T2P9MbxLeubgJmjFfXuRWTfDeJimQ9H0wbWAPVm9WmAbWx+TuDCUdrbnbOoHphH7v0pASwfXu8WsLJZve+V/LHGt1PcfJTQu6M7CE5xRz1wBqyqfwF1rgUUd4ZwuWIIp7P6cOhWF/bf6ML+xN4td0DVX5z40Hx75c49BKfzRnC1JgjWty1DyyjrnkFa4wR+LR3CDwUunCvyILFmFJU9YdQNzuJ22xSu1YzhRPabGTQnOqn1owbY7hWnMXLE1qjtRT1FA9u0xjH8VOjC4ZRe7NtkA3OmYBTsSVf0zqOwI4SE2jEcS+/HRze68fGtQTil7zbdcvSAIIfruercy7jTNyeV64GEDuy70Y1PkgZwIsf3TvrZgkGpeAls0xq2ru+1hs21gOyWAC6UevF5Sh8+SugRfW9WnwbYxlYHvANs7wVxMqMPH1zrELCyWb3vlfyxxrdT3OhMx07Vi1PciR7uh2UmpawrjNT6MXyV1YcDCe3Yd6MT+26w09u/7aUrTnzsVP1tlS/OCFy+E5Alc42eZVT1zeFS+RBOZvTgcFInPr3ZicPJvfg2342k+nGUdEyjpn8Gefcm8VWOWwYauDzMic6lMo8Btls1kvkutkbE6Omv19MbYLuAtAY/fi504Whan0ynH8uKgDc25qwQuBifa+mid/XyBAX2gn8sGZPpt5qBBZR2hZBU58dX2QM4lNyLz9Pd+Kl0/fRPbvXgYLJLdrByfRrL4MkMLIeNIN8dy/bJzmludOMaK6Zx5IfrpdbzEfL3aRo3sUW+44Y4rknjdVJk8Uk5621uU3m4AY5lqczW8kj7++Ix3GqaRq1rCSWdIZzJ6sXfrrQKmD+c5sJ3RaPvpH+V1Yvy7rCM2Kq+2QE4nDog6+8iPI6IvJTdqm+VN7phy2qZwK8lHnye0osP2XDeGlzTC3XBnfyfpb85vYH2FJvqSRhpXplen1h4DrvNv6RDXiL2GMaXcrpDZAcyN8vwPe3GizrjM8tVfmO9i+1SIz7F9ayc+ufucvJLPyDt9exG+tuxu/K3Xvksm3zQ5lxDntAwhdsdszLNnHM3gC/Te/C3q+0CbPXUhLf8mDrJHBKbRuue7+zsq/zY3eNdDuUmTcbysSyf6FtjRnXPNOqeeZUvjRe7+Nf41m+scVPWHcb3ef04mNAu0/SfJg/iYPK76/uFt9d+RR+z8qH88D19j7qlz1vzqZxO8WCNd6VvF3f7EnpkhuZs8ZgsEeLSLtYJSbV+nMnsBTu8+xMU1G5vGQJ5seNjq/FvlVftSl0e3qAeUr1Qr/Rl5pVvLKe0qN43619Kn6cdcGMYR8I5O5ZzN4jTmT344Mp9/O1qm3QsP7rRgyNpgzhXMoxb9RMyYsvBA3Y8P7r+eoDFgc75YgNs14JblW/ubyo8o4vdoQsrsD1f7MaZnEF8nefBxcpxXK+blKlXrp9lXjbwrMDUvqyo2NhfrQ2ivHcBjZ4lVPfNIPdeABfLhvD9bQ9+LBmRdWflfe+mn8lx4UiGR0Dk14WjsoaKDSrLYYPKd79WToC7kC/eiZw6wDSCXlbGyofetQL9ItuHs6VjuFwTlI0+3D3L9b8JDZP4rWoisms2c+itRpo0KA+nE38o9gsY50aF49m+d8oj0OeueI5Sl3NzSEsQJ9K68b+/t4LTqceyhqQca/rpzF6wMW/0RDoSBKTf5bvxQ9EQuJmMQJm7qSkvN6EQzEXrW+WMtWFTAHQqbxjnysfwe01A7MmTGXhCAzsc1PONukkEF1/YAlvyQF6+KfTjQmUA12rpF1O4UjMppzJ8XeiXEzVoO+qMawDZwCm/sd4JRAhKzhSMrJ02QSBJfi++ttvRdey2Xbsrf++WHxR9/V4dxNmSMZGVNrIDtpSZslMH4se5wziVPyIbKqnvGw2ReOJvbrLc6i75eJejfkLf/7ViQuKecvJiHcAYpE1oG+pI9eUU/xrfpE8bWeOmoHUK5wpdOJnRi1M5HpnlWM/fCZi+uj0qMUF9stMTzQf5IX3yx9igbk/msTPyNr8qp1M8cOPrevWLXdwdvNWLL3OGJG5Le+alHrzTN4vcu6wHvTiTPSh7FyKg/V3grvqM9W7HhxXYblVerQe/KRoVvTv5KW3GPLQRv6EfkYbKo3xs1r/Uroynku45NHgWcbt9GleqhvF5cufaQMK+m5F1y1z+RTt8W+DDD4VefJ0zIJ2mD6Tj2Y/vCkdluZwdnYsVfjNiq0Yz93cBhtHJ7tCJAtsW7yJy707gxp1hXK4cxpXqMaQ0TyHrfhg5rWFk3A3hZuMkLlSOy6inAkuCHTZ6GffCqHMv4f7wMprc86jonpY1pAk1PPYmgOz7YdSvk36xnKN/XpzK8+FKTUBA6KU7E1IOwTQb1dSWaWTeC8ku9KTmKTD9bNGojCyxcWODpv6mFfIvFeNyakBO24yMJHPdb2Enf88g+34IiQ2TcpIAQWt0Q0p5LlRO4GbTFFLvRna986QInnQQ2V0baZQIWm41EuDM4HZ7CJTzSHIX/vf3NlmfzJHhW40c2Xs7ncC2vHsGLUNLAv5v1ozgRvWojDDk3A/J2k2CJuqL+v614m19q5xODZuOuBC0ErxeqQ0ipYWnKISR0xaxKXWa1DSFy3cmkN82g/DKS4xbjmt8q0GqnBDQTVvnts4gtzUsdiENnsxAsEbgfLORwDyA49lDa6dDKN92d/LLkTjqjUdokR7XKpLXvPaw7HTOuh/CzYZJnCsdW/NBpbddu6u+tPxrdUGxv+jrtf/TZygbfaqsZw61g/Owjtiy00UQzHwRP2anLCAdKo44MZa4a5u6v9U4KZ1HgiyNJ5XH6R6vchg7AkpyIn5yrTaI9HvU+ayAd/pvfvuMjJYx7efSsTXwyW+d4l/j+9NUt4zEEmxGx0VG8wQulXnxS7EHl6vGcK6Mx+XRbyJxprvY6cf0YeqVHZxvCtlxenPqCkEowSg72VwDzQ4sZ0y+yIrELXnlKG2s8fBD8ah0aKmb6PrFLu4+S+7Hj8WjEmM1rsWoejAk9aBVD072dUq340OBrfrzVuXlLMzPZRwYiMS01S5W/uS0kPJxsRH9/afSyCktBPLb8S/1T9YJ1YOLaPYuyiaxH2+78HlyFw7e7MKRDC4x8Ikv0h/JOwdLPksdwMGbPfjwWjs+vN6BT5IHxb82okP/MufY2kyFWo1unt8AD6OLnaULBbZtI8uo7AmhqH0SpZ0hFHcSvISQfS+EvNZpea4ZmEdR5wx+qySwiIxiCsBrmkJ53zzuDa+g27+CjuFFNLvnUNUTQkln5FuuiSLotaZz8T9PEjhb5ENBexg1gwso7poREMr1utz1X9w1K+94nMud/nlU9c+DIPDnUj++yHp7RIbT1hzx5EkF3DXLi/Ty26ZR0DaN0q4w6l3zMo2cdXdKZOHoqjakHFEgoOIGhSbvMsp6ZvFbJY/p8eBQqmsNqLEBzWmdkdFa7srlBobPbnWuTUnbpX+V1S/Atm1kBdV9YZR1TqGyN4yKnhkUdoRxuyOM0u4ZVPXNom7wtb6r3uhb48epYVOgx7N1C6kL1yKquEykh+c9hpDfFpJyKkWnc+gaW8Xqkz8wNvdM1rJpORwZ5MgxR0zLerhZbQlVffMoidIpN3HwpAeOXNNeda5F5LWGcSZ3CPtvxrYJkaCWI3HszNB23FFOO5f2zErHoagzhJqBOVT3z+N2exg36gLigzptvV27q764jk99h8cIFXXNIK8thIK2EMq6Z8X/uCmowb2IRjenRN9eiqC71dXvCjtmUN4zj9LuOQG07FQVtFP3YQHGxYwnse+QgFvVu9M9XuUI6Mgdls4cO1Q1riXxfdqSHTaOjpX3zEi8MP4L2sL4teINuHWKf43vT1O4xMCFrwpG3oqbxBo/EqpHkFI/hsL2ENKap3CKfvP61AACVoJ+LnXg6S30i/y2MK5Uj+N4lndtrSrzEMTRfzhzRH2fL+NxTy4BNBzJO5U/LGdNxxIPtHm0nGoPu7jjxs0r1ROycbbFt4zusRV0jLypB6160PpG6W72bseHAlv151jj3yqvdJxqgsi8H0ZR1+w7drHyq2usOaqacXda6tUvMtz4NMUlHSEOFmzFv7ikjLNvtGuDZ1li7mqlT9Ytn8zsw1d5brETZ+Y4g8YzvVmP8OhDln3gVmRD7YGkARzN8jrSKe6eN8DWalzzvLNAm7GHsz0U2Hb6V9HoioDR0s5p5NydRGLdOK7d8ctoJHfeN7jmUDc4h5TGAH4q5ppbD05k+2QZAistnqzQNryEe9551PWHUdgaRHbzBDKbJ1DYPiUjudb0G3dGcCp7QKaNCI46x1bB0ePagTlU9s6gsH0a6U0BpDZOyLoqgm5uvCLwu1kfwNmiSCVGgMPRW65xIzBpGlpGrexKDiOlYRzXq0eRUD2KjKYJVPWGUT84h8qeGaQ2BqUh5QY3nrmrmz/q3Iu461tCRU9Yjuo5njmAT5MHcCBpUKYoWQ6nHAm0OVr7Te4APrnZiQ+vd0oeu/SvcwblKJou/yrueuZR2x9GeXcI+a2TSK4fR2KtX0YkuKOX9qC+05uD+KVsFF/I+biRkSy7ho3rzCgL/zMSK3qOONZ7ltDkXUJRZ1h0STDBK6MpgKL2abGre/IBHjx5idGZx7hUNS5n8HK0hCOY1+ompVFq8Cyhwb0ATh9Tpwk1o7hV50fuvaCsG25wz6N1eFlAMkelv8l1Q/lxikUZKa+aAGcIWE6TdxFFHdNIa5rAzVq/lMdnnihR74qArp+KafvISBynnrdk9ySuR3bLiA9HAlk+wVO9a0E6dMkipx9JdWNylBA7IE2eBdzzLaLJ8+6I7Vo8ja2i2bsg/JZ1zcjpCRJP1X4k1o4h935Q4oGypDYF8FPJMI5mxH6+abzK0XN50+5R7iWZQn/bTyIxU9we8UcepZTSyJHbUZnF4AZJLkOyi3+N70+S+gRgcqYlOm4ulA7h6p0RORKLHbmSzjC+zfdg/83IcXkE3hyNY4ej3rUE1lO1gxGd8Zg1PXWFa5o5XZ3UNC0dUnaAzhUPyRp/Hq91LNMrI72xxgP9LLUpiHOv5dTzuO3ijifJXKgYkxF5xkjbyNv1oOrhII/7SuKRfJFzrp3iwi7djg+Nt83Gv1Ve6pxgkp13nrzCjux3BUNyVNkB4T3StuiI6s+l46joW5DYzWiZxPnSYRxJHcDnXPNaNoat+hc7LASqnLlr9i6j2bOA65U+/FgwICfBXK8dR1rLtMQtY5ezjDxqkud6c8aIHZoDyS4cSvPERId1pRmxNSO2a1PAdgFo3juDy/epI20gOWJ3b2gBJR2TMjV4JqsPX6T24EhyN75I7cVPhR4BMBUEYfeDAhSPZ7rAzR4EtxcqxmXEhTtRy7umkN4wih/zB2Td6Ym0HpwrcqOgNSijlNHpR5I78fGNdnyTS8A3g57xVbQNL8pSBvbMv8ntl805x1O7ZR0eF/dz/S7BYGHblIDvL7P5bxZdMnrL/6JWMxgBRjy+jPlPZfTKMoGjqT0CQLk+iycJ3OkNo+D+pACwj2/2gRU2R30I5LJbOUo3hZR6P77L7cfhpC4cuMlGaRCH0z3gUgeWUzswDzbOn6d04+MEHuXTg8/S3LbpBHsVPXPoGVtFq29BRmwvl3vxVXYfjqd142hKN46nR/Sd1TyB8q5p8GxFAvtT2WzwI+fUbtSwUQ6uhc1ri5ylyZHPrLuT4PQd9cgyqIsT6X34udAjHY/WoTnMrzyFb/oBLlaMipycPiZgLOycQx03yHXNyI7j7/MGcCylS+gcS+vBmex+Af/ciUwf6hpdQlnnNOhDkbVtAxvWE5xu5gg3D1znNCH5ZUeK/B5L7cLR1C6czOzFD7fdAnJr+2dkHTc7K9/djixjISjlKCkB8abtnuySdbFsxLk5pahzFkn1E/g+bxBHX8tJm7BTcqVqRE61uD+0gCb3HHJaJt7aPPZWPPkYT1Oye/tMVn8knlK68UVaH34u8qKgdVJ88HZbUJajnMh0r9nXqU6IVzk60lbZvyAH3WfencRPa35C3Xe/8ZOmcbDTyyulYQInczxvRuRs4l/je39CFz5LHcQv5WNiJ42b01n9+OG2BzfrxsGOETudZ/Nd+DixW3yQMwb0Zc7C1A4uggfot3jnpQ44nTWwduqKLiEiuOGsQnFHSGLqo2vt+DixF1/nD8vyGZ0JcIoHxhzrmPSmIE7ncmQ40vG1i7uPb/ZKx5PycaTbWg+qHj663rkG2tmhcrKzXbodHwS2W4l/q7yH093yDw44Nc/ZiTt9M3I04aGkXhl5V750xJ+nw9S7l6VDeKVyGF+m9+JgYje+zHIhvWUaW/Uv1qWcneDyFR7x1epbRHbzGFLqRsXGHAwp7Z6VmR3OCnJWQWYW2sO4UMn9A1xq5pH1/vQjJzoczDDA1gDbLQemBoa5v1/gqw1kp38Fja5ZZDaNgetAP7zaig+utMnU+gfXunA8Y1AaH47wcfo8vWEMpzIH1o4F467VzLtT0hgUtAZwvXIIR5I68T+X7+FvV9pwIqNfAEd5VwgF999N/zrXhfKeWZCPFs888u5O4OvsPuy7Rj5ahQaPVCIouHZnFAVtkwKSCbK50e3TFB6vNSS7+7mEgKO+N2tGpXHjjuu//d6GD652gLu0uaHlt/JhZDUHkFznl12z+2504eNbA7LZhNOev1WN41LliJwSQXAlu5oTe8ApVVaWPKSfDSg3iJzNHxRwrsd8cfOCXfq3+UOo7J2XkScu18huHpfdvR9evS8bIairD6514mhqPy5XjMgoYd3ADIrap/BtnhsKwO0aNgLrw2mcnptA9cCSNAY8a5VLJQ7d7MD/XLqH/2UZVzuknCOpBKXDYIdleuExhqdXcblyRNancYT4YuWEjOQ1e5cEzHyf75LNGGpXjlDvS+gSnWY2B1A/OIv24QWUdkzidEZkMx3PRLaL8+gRn8q+RTQPLctI6cVyLu3oEP8hvzwqiSds/FhIQDiF4o4pXKkYwvcFLpzJ9+Jy9QR4DNBm7U4AxSUmXMPHQ985WswZibMFbnySyPJpF67R68T+xG4ZTeSSFq4jZ7zktIyvC2yd4ulE5qD8gw6eIBJZjz6Gk1mDa/Fkpy99H2vc2pXDs1Q/SXHLFL9u+sy5F/ET1bv4osVPuBudHYuiNvqjZ80fneL/QGI3jmd5cKU6IJ0kjZtDtzrB2ZDLVX5ZIkRAeL7Ihc+SunEwaUA2ifFfVnN5EJe50L7sEBa3B/F1Tj8icTsoJ2fIaRWds3IUFH3xeGqX1B38hynny8ZQ/fr801jigbMQDYOzAuLP3vbikyT6sMvxNAInPXx4vStqeU78ge1W498qL09p4YgnZ314CkHtwAzYAT+e3odDKRGQT1/k5jx2fvlfEOUYrt5Z/FgwiE8S23EgsQvfF3hR1j0nMwFb8S+O+HKUn/sD7vqW0Tm6hNLOSeTdmxBgW9QRQmZLUNoWylDWFZLY5LKltOZJnC+L/CdIrscmn050uCzMAFsDbG0bLK2Azf39Alcn/WsDed+3hOL2SVytGAJHFwhqeQYtQQlHCVnJXasNyPo29t652/dUZh+kor41+HrELYzK3lkUtk3iRpVPRvQ4YsdTAk7nDcm/lbRL/+72sDRcnMomcOb3x1LIR6sc1cLzLckHjw77sXgEyY1BmZLmqMrZApeAnuPZXpmGYgVLeTKbx3GuyCXHYOn5kQc54prmxrFMD07nuAVwc8SYfFJWruljZc2jzo6mD+Kz5B58nNABjrTsS4wcXfZDSaQiZ0NZ1B6S43yEz4Qe4W+jdJXzvm8ZpR1TuMYOQPTuXpUzzYOzhSNIauQSkHlU9YRlBFOOT0oatG1guTubaxR5ygEBfoNrAb9X+GSkdv/1dumo0B7UJa/PUt34Kt+HzJYpBOYewx9+gITqYfmnA98V+mQTDunUDczhl2I3Dt3qwL7r7QKK+d+29t8akNEsgnmuey3uCuOuN3ZgyxEfjrZx2pMjPo3uRVzn8hQ5IukNv+x0cI0m/yUp13hfrox0WjiieCxjQNZBc2Rps3b/+EYHjmW6xW8a3MuyrplnAh9O7sK+6xHwvyZn0iBO5/mQ1jKFyr5ZAXjsmEQf9xVrPFEObpDjmmo5RcQST/GKW7ty9id0yzIOAheOxnPpxZVKHzi7ovHwlp9w5KxgGAn1AdER/fGn2258yuP6kpzjn3HLDVncaBgdNx9dawWXKfxcMiL/ja9uYBZXKrwyQn+IndVsH7hpjUsIqCsuQSKwreyewg/5AziY2CUjuzryrGuDOZqvo6Qnsz2i54LMWgAADctJREFUa9YLscbDjbqJyFr8vhk5I/pIGpdSENiORv4ximsB6x2zF5l5sK8HI2uHt7cMgb5h17Hdavxb5f2CRxCmsa71y3plLkFJqh2Rs7oJNvVfSOta3Ny2GRmJ5ywXj+Haf70Nh7k8o9wvI+1b9S8ehfhTSWTfA4Ftz9iKLN/KbhmXpQhf5w7K6DBnu3iyBmcGWe/rCHRaUwCncrz4PM0N1svsIG1E51qF911g+x8AM6uvUNQ5Bx74bS6jA+MDO9sHeBxVp/8BBgMPUNcfQnaTH5dL3ThX6JYpaa5t48UTALiwvtG7JBsjGgdnkVA19DqfH2ktIemxd/hX0OyZQ3F7ANcqhnC+2CtAxCld+XAFH6BhIIzcFj8ul7hw7rYLF8tHcbkqwkfklISQbGTqDzxA18gi0upHcanci4S6yOaN/sBDeKceonEwjPx7E7hR48dvFX5cqppYq5P4+7eKUVwo9eGXIrfsymYelZfpLPdC6TB+LfXhQtmw0EioCyKvPVKJd/hX0TA4h+sVHvxU0I8LZSNIqN84nadLdPgfgHLWD4SQ0zyKy6UuOfLoLTlrJ5HS/EbO7tFFZDaOyjKRS5V+pLeEcH9kFb3jq6jtCyGnZUyACUd5uQGHU+quycfo9i8jvX4EvxYNCDClvJcqx9f0wP/kw93+HA2bWXmO8NITlHUEpBHjdC2XBbgmH6FzZBFJNUP4uaBfdHWhfOQtfXLKklP4XMs7EFjFfc8sEiqpl4GI/WzaAx4bxtEerrscDD5C79gKspv9uFTqwq8lbtF9NL8E7NQh1x1fq/ThcplHlsVwc2DfxINN2/1S2RCSGgLiTyy/e3QZKXXDOF84gF9KvLDKySPjqFtuhOSSC+r+RqVXRvZ5VJD6cazxxE4DG+vGwZm34smp3txuOb+WeASk8r/XDazpfUz0eaHEI3ER0Xsk7ugnamPquXt06S1/5Mkl3NxjF/9cSsB/Ac3lIta4uVjO2Z5ped87toySdvrfMK5Ujcp/MKzoi9Q73PR5d2ge7iA3qM4jo2FkLR5YvzQPrQgNgmPO+Pxe5sFvpV5ZK7vZeOApKpSzd2wJ+ffGcb3KJ6PKXM+5Xtz9UurDb5Vc77lxPehk11jTeTJJaxzj307e1OZp3B2KbPqtkXomsu/iYnmkPuWaZq6tveuj7ldQ0x/GtQoPzhcO4kYt9zvMbsu/OMCRfW9K/Ib10HDoIbpH51HVPYnE6mGp084XusCLHe+EOyMyMMJ9HrRds3sWt2rH8HsV/4HQtGyidW9AJ6vR8p/HCGr//Z//4Pkf/xRwy4O+zWV0YHxgZ/tAaPklVp/+idUnLzE9/wCjU4vwTMzDE1iSjURqv8mlF5h98AqLj19h+fFLzCw9hmd8DgP+OYyEH2F6+SWWHv+JlSevMLv8BIGZFXgDC3C/puOUvh4f7vE5uCcWMRp+vFaXBBZfYGr5JeYevMKDp39g8cEz+IILcI3NwR9+iPDKC3n/8GmEj+DcQ3lPGmNzT+U4K8o0Pv9Mnsdmn8A/8wj+mccYn3u6Vg6PveLz2CyvJ5Fv554huPhcjsWaf/gSS49eIrz4GO7xWfSPzmIk9NAxfXr5RUz6Diy8wNRSRM6Hz/7E0sNnGJ6MyDk8/QCTi8+x/OQPrDx+iemFh/BPL8EbXIRvagXBhaeYf/gK/I768U7Mom8kBG9wGaPhRxife7YmZ2DhuZxfy/wv/vgHnj5/hcDMMnzBRUzMPcLs6nM8ePoK86tP4RmfQe9wCEOTK/DPPhEdrvnH4gvMrL7E4qNXWBUfeAz3GMudEb1oPuudctK3aM+InM/hC8yhfzQMb3BJ+KXd9DuetUtfmlp8JqPLI9OrGJt9hNDyM6w+/QObtfv47GPRpZa/QH2Nk+8whqbelXNq6QUWHv2B5cevsPTwOUILD9+Kg/X8eKN4WnocsaE1nlReu/t2yxkcm8PY7GOJaeqdfhSYfYDhqWWMhh5KPETi5dmanen7tDHjjrKPTC7CNT4H+mNw8RkWKYtN/NNu4dWXsIub0Ou4IB/B2VUMTy2JLwuPqy+w8PCldLqop+WHzzC3/FjiwT0+j+Hph2JD6pJ109T8w7V6bCi4hOD85uNB5Hz2J5YfPcdYaEnqMt/UKgLzT7H82mbRced9HRNO9ZydPTf7nuWsPI3YLZqPrcb/RvJSr4zpmaUnmJhZhW9yGUNTq/DPPo3E7sNXEveMnan5B1IfvvGvlxLXW/Uv78Q8AnOPMPcgUq+vPn6O0PwK/FPzUr8Mjs2Ln7BeYx3Oum9u9YXUzSuPX0g7NcR2aGIRwYUnWJB68Q/Y0ZlefPL2iK0CW4Jb/jZ/RgNGA7tDA//5z3/wj3/8A8+ePcPjx4/x9OlTvHz5Ev/617/eEeDf//635GX6w4cP8ejRI/z9739fy8dvXr16JbSePHmC58+f45///GdM6VY++P2LFy/e+l4JMS95+fPPP4UH8sJyWRZ54P2PP/4QOfiev8kn3/O76Iu0eMX6x7wsg2VTPuqAvFKH/IslPVZ9K7315FRbkAeWr3ajjMoDZV9dXZWLv/mNnax8Tx2RFv2A+cknL9qbdB48eCByr0eD70if5TM/89Iu0f5hp2P9lnZiOSsrK2s+uF5ZKjt5oy34rGVvxe5afrS+SGe9sikDy6Jc9E/KSH2RF7UXf8cjnuz0Fa9yVG61MeXRWOG79S7KrfEfHXektVH8a/pGcaO+Q90pL6RJPujnfE8bsXz1efKrPs98fE++GA/Mq2nK21bjgfxQ9mh+lAfyw/f6p2WRX+ax1oOabzt36lP1Es1HvOXV2FK7q21YDv/IB39TP+SD9SHzKB/8nnxSR2pT0uK79S4thzZU/2I+0qM9+W55eVnuLIdp5EH/+FvrAuYnP4xP+h3fq23s6Lyzxpak35DXYszdaMBoYCdrQCtIVhIKbFkhRFfUyn90JUXg8lcCWwVq6/FBfsh3NOBjxclKLrpSo0ysbHnxN/PwG60oSZv5oytGlXWjOytZ0iKPpG1tuDZK34y+VU5W9tQ1K+NoOSmHFdhSJpbBO/M6AdJoOUmPMtEP+K02QPztBFRZpuo+lvxaLr/Tb+l3CjwIWOxso/k1XWlo47dZu/N76kvLVwCvPFrvLJe6YkNNmzgB263Gk7Xc6GfyTB62E7eqR9o5mg5/b3RRXnY+qCfqgHxQJ6pDfruVuOD3tDtpkgb9iDYlf6Snfsk89Hte1K2Wz9imPehDTON36iPbiQfGHumRPumwPD6Tp/XqKSc9RNtxq7/V/uvxof5M/W0l/qPlVf1pbKnM1AH/WJbah7pnOsulDuLlX6TP8ml3+hxlon+oPaw61HKZn7Lw4m/SIF8b0XkH2FqJm2ejAaOBna8BVgKspFhRsOHgfasNsVOFvlF6NB+sHDfig1plflZ4rLSsDSwrY1Z6bCAVfPJOmqx0WbExnd9TdlZ4WoHHYjF+Q3osm3ervjZKj4ec5Ju6ZDl2DRtloqzUDRscfuP0R3rUPeWi7qgjvqN8pMH3dnQoF3W42XL1O/WNzTTEVnm2and+p+XHoi/mp16oI+plI2C7kR8rHbXTRvq1yhrtR1uNW9U97UwalJ080Ac2uqLzknfqIlqHlJnf0zfpD/rHfHZxo7yov5EGv+cz+SNf1DXL4zN9kr955zPLYVzTf3gxje9Il9dm/ZI8s2yNB/JC+hvFncqpvmSnB823nTtlIn9/VfxHy8uyKBPlp+2pE5bN97Q79U/bUO/8js98H50e7TMb+RbTovOqf6l9WQ4v2l3tu54eWTb5iPYb8uxExwDb9bRp3hkN7DINsAJgwLMSZoXCOysNVmTWP6eG2KlC3yhd+dCK2o4P5tNLK1QrsGU6eWUlRiDGCpkVJGmTLu+UkRfBCe/UgVbGVrn5rGXyTpqsMFmuVuSUTfOsl07aSodlOcmpPJCmVU7SZ3nRdAgYKKPyobpWsMJvNvpTuegDbDhULpZB/fAdZbajw+9V5+SD5fIbu/zKi35Hfmkn/Y4yM836x3fRV3S60tqs3Vk2v6GcWv5GfFNO6mWvAFvqnbYlMCGwoO3Xuygvbcs744h32snqc0xTOtST2os6tcaNxgXtyHwKPDRO+b36BfnTWGW5fM9n3kk72u/4jrS17O3GA/khTdIhTxq/0XGnvqhlReuBcsXzj3LZ8cE05WGr8R8tL+lRl9Q57UqZqW+WER03LIv24HvVO7+j3rbqXyyHZZAmy2f9RFpqC5az3h/fMz/rIPJFX1VaG9ExwHY9bZp3RgO7TAOsAFhBsiJ738CWFRgbJ/LCSyvJaJVqhakVFystNnisuCiHNma860W6rNRYGZI+L/4mfS2Lz8xHuuv9ablaUWu5pMXvosslLWu60uXdKidpsOK2/mmZrIiVXrScTg0b+WAjQLtSfuXBWg6fmcZyrMCDZZAOGzRednT4PXWgspHfWIGtfqsNDvnlb9VpNL+al/rSS/NpGp+Vl1jsThnJd6z6Im1+Q1tQRvLLZ9Ujf8cjnqLltv6mrNstR/WleqcsGnfUhfViPuqTd/os44c8qP5pD40pK7BlHtJTP9a4IQ/6x9+kwTIUWPM3aTLG+S1pMA/L1TSm8320PZimtJUu82w1HqgXyq1l7wZgGw95aTf+UYfUOeVWXTBmqGfqXeOdOorWO7/nO8bIVv2LOicdlkVQTd+izVm+lqU+pLzyPctVfyOP/F79y47O/wE7iHozEBMXmAAAAABJRU5ErkJggg==;" parent="1" vertex="1">
          <mxGeometry x="2840.52" y="-158.81" width="238.96" height="223.81" as="geometry" />
        </mxCell>
        <mxCell id="m_g_pHxch7K9zR3h8Tit-81" value="" style="endArrow=classic;html=1;exitX=1;exitY=0.5;exitDx=0;exitDy=0;entryX=0;entryY=0.25;entryDx=0;entryDy=0;dashed=1;" parent="1" source="m_g_pHxch7K9zR3h8Tit-2" target="m_g_pHxch7K9zR3h8Tit-80" edge="1">
          <mxGeometry width="50" height="50" relative="1" as="geometry">
            <mxPoint x="2820.52" y="-31.909999999999997" as="sourcePoint" />
            <mxPoint x="2870.52" y="-81.91" as="targetPoint" />
          </mxGeometry>
        </mxCell>
        <mxCell id="m_g_pHxch7K9zR3h8Tit-83" value="" style="rounded=0;whiteSpace=wrap;html=1;shadow=0;sketch=0;align=left;" parent="1" vertex="1">
          <mxGeometry x="3200" y="-240" width="1400" height="500" as="geometry" />
        </mxCell>
        <mxCell id="m_g_pHxch7K9zR3h8Tit-84" value="" style="endArrow=classic;html=1;strokeWidth=2;strokeColor=#FF0080;" parent="1" edge="1">
          <mxGeometry width="50" height="50" relative="1" as="geometry">
            <mxPoint x="3350" y="215" as="sourcePoint" />
            <mxPoint x="3060" y="450" as="targetPoint" />
            <Array as="points">
              <mxPoint x="3350" y="340" />
              <mxPoint x="3060" y="340" />
            </Array>
          </mxGeometry>
        </mxCell>
        <mxCell id="m_g_pHxch7K9zR3h8Tit-85" value="3.1、加载" style="edgeLabel;html=1;align=center;verticalAlign=middle;resizable=0;points=[];" parent="m_g_pHxch7K9zR3h8Tit-84" vertex="1" connectable="0">
          <mxGeometry x="-0.0698" relative="1" as="geometry">
            <mxPoint as="offset" />
          </mxGeometry>
        </mxCell>
        <mxCell id="m_g_pHxch7K9zR3h8Tit-86" value="" style="rounded=1;whiteSpace=wrap;html=1;shadow=1;sketch=1;fillColor=#fad9d5;align=left;strokeColor=#ae4132;" parent="1" vertex="1">
          <mxGeometry x="3240" y="-200" width="220" height="410" as="geometry" />
        </mxCell>
        <mxCell id="m_g_pHxch7K9zR3h8Tit-87" value="" style="rounded=1;whiteSpace=wrap;html=1;shadow=1;sketch=1;fillColor=#fad9d5;align=left;strokeColor=#ae4132;" parent="1" vertex="1">
          <mxGeometry x="3510" y="-200" width="220" height="410" as="geometry" />
        </mxCell>
        <mxCell id="m_g_pHxch7K9zR3h8Tit-88" value="" style="rounded=1;whiteSpace=wrap;html=1;shadow=1;sketch=1;align=left;glass=0;fillColor=#fad9d5;strokeColor=#ae4132;" parent="1" vertex="1">
          <mxGeometry x="3779.5" y="-42.5" width="220" height="95" as="geometry" />
        </mxCell>
        <mxCell id="m_g_pHxch7K9zR3h8Tit-90" value="" style="rounded=1;whiteSpace=wrap;html=1;shadow=1;sketch=1;align=left;glass=0;fillColor=#fad9d5;strokeColor=#ae4132;" parent="1" vertex="1">
          <mxGeometry x="4328.5" y="-42.5" width="220" height="90" as="geometry" />
        </mxCell>
        <mxCell id="m_g_pHxch7K9zR3h8Tit-91" value="" style="rounded=1;whiteSpace=wrap;html=1;shadow=1;sketch=1;align=left;glass=0;fillColor=#fad9d5;strokeColor=#ae4132;" parent="1" vertex="1">
          <mxGeometry x="4049.5" y="-42.5" width="220" height="95" as="geometry" />
        </mxCell>
        <mxCell id="m_g_pHxch7K9zR3h8Tit-92" value="类加载机制" style="text;html=1;strokeColor=none;fillColor=none;align=center;verticalAlign=middle;whiteSpace=wrap;rounded=0;shadow=1;glass=0;sketch=1;" parent="1" vertex="1">
          <mxGeometry x="3200" y="-260" width="100" height="20" as="geometry" />
        </mxCell>
        <mxCell id="m_g_pHxch7K9zR3h8Tit-93" value="3.1-加载" style="text;html=1;strokeColor=none;fillColor=none;align=center;verticalAlign=middle;whiteSpace=wrap;rounded=0;shadow=1;glass=0;sketch=1;" parent="1" vertex="1">
          <mxGeometry x="3330" y="-220" width="50" height="20" as="geometry" />
        </mxCell>
        <mxCell id="m_g_pHxch7K9zR3h8Tit-94" value="3.2-连接" style="text;html=1;strokeColor=none;fillColor=none;align=center;verticalAlign=middle;whiteSpace=wrap;rounded=0;shadow=1;glass=0;sketch=1;" parent="1" vertex="1">
          <mxGeometry x="3600" y="-216.9" width="60" height="20" as="geometry" />
        </mxCell>
        <mxCell id="m_g_pHxch7K9zR3h8Tit-95" value="3.3-初始化" style="text;html=1;strokeColor=none;fillColor=none;align=center;verticalAlign=middle;whiteSpace=wrap;rounded=0;shadow=1;glass=0;sketch=1;" parent="1" vertex="1">
          <mxGeometry x="3869.5" y="-62.5" width="60.5" height="20" as="geometry" />
        </mxCell>
        <mxCell id="m_g_pHxch7K9zR3h8Tit-96" value="3.4-使用" style="text;html=1;strokeColor=none;fillColor=none;align=center;verticalAlign=middle;whiteSpace=wrap;rounded=0;shadow=1;glass=0;sketch=1;" parent="1" vertex="1">
          <mxGeometry x="4129.25" y="-60" width="60.5" height="20" as="geometry" />
        </mxCell>
        <mxCell id="m_g_pHxch7K9zR3h8Tit-97" value="3.5-卸载" style="text;html=1;strokeColor=none;fillColor=none;align=center;verticalAlign=middle;whiteSpace=wrap;rounded=0;shadow=1;glass=0;sketch=1;" parent="1" vertex="1">
          <mxGeometry x="4408.25" y="-62.5" width="60.5" height="20" as="geometry" />
        </mxCell>
        <mxCell id="m_g_pHxch7K9zR3h8Tit-98" value="" style="endArrow=classic;html=1;entryX=0;entryY=0.512;entryDx=0;entryDy=0;entryPerimeter=0;exitX=0;exitY=0.5;exitDx=0;exitDy=0;" parent="1" source="m_g_pHxch7K9zR3h8Tit-83" target="m_g_pHxch7K9zR3h8Tit-86" edge="1">
          <mxGeometry width="50" height="50" relative="1" as="geometry">
            <mxPoint x="3130" y="130" as="sourcePoint" />
            <mxPoint x="3180" y="80" as="targetPoint" />
          </mxGeometry>
        </mxCell>
        <mxCell id="m_g_pHxch7K9zR3h8Tit-99" value="" style="endArrow=classic;html=1;entryX=0;entryY=0.5;entryDx=0;entryDy=0;exitX=1;exitY=0.5;exitDx=0;exitDy=0;" parent="1" source="m_g_pHxch7K9zR3h8Tit-86" target="m_g_pHxch7K9zR3h8Tit-87" edge="1">
          <mxGeometry width="50" height="50" relative="1" as="geometry">
            <mxPoint x="3420" y="50" as="sourcePoint" />
            <mxPoint x="3470" as="targetPoint" />
          </mxGeometry>
        </mxCell>
        <mxCell id="m_g_pHxch7K9zR3h8Tit-101" value="" style="endArrow=classic;html=1;entryX=0.002;entryY=0.553;entryDx=0;entryDy=0;entryPerimeter=0;" parent="1" target="m_g_pHxch7K9zR3h8Tit-88" edge="1">
          <mxGeometry width="50" height="50" relative="1" as="geometry">
            <mxPoint x="3733" y="10" as="sourcePoint" />
            <mxPoint x="3800" y="100" as="targetPoint" />
          </mxGeometry>
        </mxCell>
        <mxCell id="m_g_pHxch7K9zR3h8Tit-102" value="" style="endArrow=classic;html=1;entryX=0;entryY=0.5;entryDx=0;entryDy=0;exitX=1;exitY=0.5;exitDx=0;exitDy=0;" parent="1" source="m_g_pHxch7K9zR3h8Tit-88" target="m_g_pHxch7K9zR3h8Tit-91" edge="1">
          <mxGeometry width="50" height="50" relative="1" as="geometry">
            <mxPoint x="3970" y="150" as="sourcePoint" />
            <mxPoint x="4020" y="100" as="targetPoint" />
          </mxGeometry>
        </mxCell>
        <mxCell id="m_g_pHxch7K9zR3h8Tit-103" value="" style="endArrow=classic;html=1;exitX=1;exitY=0.5;exitDx=0;exitDy=0;" parent="1" source="m_g_pHxch7K9zR3h8Tit-91" edge="1">
          <mxGeometry width="50" height="50" relative="1" as="geometry">
            <mxPoint x="4230" y="150" as="sourcePoint" />
            <mxPoint x="4329" y="3" as="targetPoint" />
          </mxGeometry>
        </mxCell>
        <mxCell id="m_g_pHxch7K9zR3h8Tit-104" value="Boostrap ClassLoader" style="rounded=1;whiteSpace=wrap;html=1;shadow=1;glass=0;sketch=1;fillColor=#FFCE9F;gradientColor=#ffffff;align=center;" parent="1" vertex="1">
          <mxGeometry x="3280" y="-170" width="140" height="60" as="geometry" />
        </mxCell>
        <mxCell id="m_g_pHxch7K9zR3h8Tit-105" value="Extention ClassLoader" style="rounded=1;whiteSpace=wrap;html=1;shadow=1;glass=0;sketch=1;fillColor=#FFCE9F;gradientColor=#ffffff;align=center;" parent="1" vertex="1">
          <mxGeometry x="3280" y="-80" width="140" height="60" as="geometry" />
        </mxCell>
        <mxCell id="m_g_pHxch7K9zR3h8Tit-106" value="Application ClassLoader" style="rounded=1;whiteSpace=wrap;html=1;shadow=1;glass=0;sketch=1;fillColor=#FFCE9F;gradientColor=#ffffff;align=center;" parent="1" vertex="1">
          <mxGeometry x="3280" y="10" width="140" height="60" as="geometry" />
        </mxCell>
        <mxCell id="m_g_pHxch7K9zR3h8Tit-107" value="Custom ClassLoader" style="rounded=1;whiteSpace=wrap;html=1;shadow=1;glass=0;sketch=1;fillColor=#FFCE9F;gradientColor=#ffffff;align=center;" parent="1" vertex="1">
          <mxGeometry x="3260" y="110" width="80" height="60" as="geometry" />
        </mxCell>
        <mxCell id="m_g_pHxch7K9zR3h8Tit-108" value="Custom ClassLoader" style="rounded=1;whiteSpace=wrap;html=1;shadow=1;glass=0;sketch=1;fillColor=#FFCE9F;gradientColor=#ffffff;align=center;" parent="1" vertex="1">
          <mxGeometry x="3360" y="110" width="80" height="60" as="geometry" />
        </mxCell>
        <mxCell id="m_g_pHxch7K9zR3h8Tit-109" value="" style="endArrow=classic;html=1;" parent="1" edge="1">
          <mxGeometry width="50" height="50" relative="1" as="geometry">
            <mxPoint x="3300" y="110" as="sourcePoint" />
            <mxPoint x="3340" y="70" as="targetPoint" />
          </mxGeometry>
        </mxCell>
        <mxCell id="m_g_pHxch7K9zR3h8Tit-111" value="" style="endArrow=classic;html=1;entryX=0.5;entryY=1;entryDx=0;entryDy=0;" parent="1" source="m_g_pHxch7K9zR3h8Tit-106" target="m_g_pHxch7K9zR3h8Tit-105" edge="1">
          <mxGeometry width="50" height="50" relative="1" as="geometry">
            <mxPoint x="3320" y="40" as="sourcePoint" />
            <mxPoint x="3370" y="-10" as="targetPoint" />
          </mxGeometry>
        </mxCell>
        <mxCell id="m_g_pHxch7K9zR3h8Tit-112" value="" style="endArrow=classic;html=1;entryX=0.5;entryY=1;entryDx=0;entryDy=0;exitX=0.5;exitY=0;exitDx=0;exitDy=0;" parent="1" source="m_g_pHxch7K9zR3h8Tit-108" target="m_g_pHxch7K9zR3h8Tit-106" edge="1">
          <mxGeometry width="50" height="50" relative="1" as="geometry">
            <mxPoint x="3360" y="130" as="sourcePoint" />
            <mxPoint x="3410" y="80" as="targetPoint" />
          </mxGeometry>
        </mxCell>
        <mxCell id="m_g_pHxch7K9zR3h8Tit-113" value="" style="endArrow=classic;html=1;entryX=0.5;entryY=1;entryDx=0;entryDy=0;" parent="1" target="m_g_pHxch7K9zR3h8Tit-104" edge="1">
          <mxGeometry width="50" height="50" relative="1" as="geometry">
            <mxPoint x="3350" y="-80" as="sourcePoint" />
            <mxPoint x="3390" y="-100" as="targetPoint" />
          </mxGeometry>
        </mxCell>
        <mxCell id="m_g_pHxch7K9zR3h8Tit-116" value="" style="shape=flexArrow;endArrow=classic;html=1;" parent="1" edge="1">
          <mxGeometry width="50" height="50" relative="1" as="geometry">
            <mxPoint x="3440" y="60" as="sourcePoint" />
            <mxPoint x="3440" y="-99.5" as="targetPoint" />
          </mxGeometry>
        </mxCell>
        <mxCell id="m_g_pHxch7K9zR3h8Tit-117" value="" style="shape=flexArrow;endArrow=classic;html=1;" parent="1" edge="1">
          <mxGeometry width="50" height="50" relative="1" as="geometry">
            <mxPoint x="3260" y="-100" as="sourcePoint" />
            <mxPoint x="3260" y="60" as="targetPoint" />
          </mxGeometry>
        </mxCell>
        <mxCell id="m_g_pHxch7K9zR3h8Tit-118" value="自顶向下加载" style="text;html=1;strokeColor=none;fillColor=none;align=center;verticalAlign=middle;whiteSpace=wrap;rounded=0;shadow=1;glass=0;sketch=1;" parent="1" vertex="1">
          <mxGeometry x="3220" y="-141.9" width="20" height="190" as="geometry" />
        </mxCell>
        <mxCell id="m_g_pHxch7K9zR3h8Tit-120" value="自下而上查找" style="text;html=1;strokeColor=none;fillColor=none;align=center;verticalAlign=middle;whiteSpace=wrap;rounded=0;shadow=1;glass=0;sketch=1;" parent="1" vertex="1">
          <mxGeometry x="3470" y="-137.5" width="20" height="190" as="geometry" />
        </mxCell>
        <mxCell id="m_g_pHxch7K9zR3h8Tit-121" value="" style="endArrow=classic;html=1;exitX=-0.007;exitY=0.117;exitDx=0;exitDy=0;dashed=1;entryX=0.492;entryY=0.888;entryDx=0;entryDy=0;entryPerimeter=0;exitPerimeter=0;" parent="1" source="m_g_pHxch7K9zR3h8Tit-104" target="m_g_pHxch7K9zR3h8Tit-122" edge="1">
          <mxGeometry width="50" height="50" relative="1" as="geometry">
            <mxPoint x="3330" y="-230" as="sourcePoint" />
            <mxPoint x="3420" y="-310" as="targetPoint" />
            <Array as="points">
              <mxPoint x="3160" y="-200" />
            </Array>
          </mxGeometry>
        </mxCell>
        <mxCell id="m_g_pHxch7K9zR3h8Tit-122" value="加载/HOME/lib/rt.jar所有class文件" style="shape=document;whiteSpace=wrap;html=1;boundedLbl=1;rounded=0;shadow=1;glass=0;sketch=1;fillColor=#FFCE9F;gradientColor=#ffffff;align=left;" parent="1" vertex="1">
          <mxGeometry x="3280" y="-330" width="120" height="80" as="geometry" />
        </mxCell>
        <mxCell id="m_g_pHxch7K9zR3h8Tit-123" value="加载-Djava.ext.dir/*.jar所有class文件" style="shape=document;whiteSpace=wrap;html=1;boundedLbl=1;rounded=0;shadow=1;glass=0;sketch=1;fillColor=#FFCE9F;gradientColor=#ffffff;align=left;" parent="1" vertex="1">
          <mxGeometry x="3120" y="-330" width="120" height="80" as="geometry" />
        </mxCell>
        <mxCell id="m_g_pHxch7K9zR3h8Tit-124" value="加载classpath指定的class文件" style="shape=document;whiteSpace=wrap;html=1;boundedLbl=1;rounded=0;shadow=1;glass=0;sketch=1;fillColor=#FFCE9F;gradientColor=#ffffff;align=left;" parent="1" vertex="1">
          <mxGeometry x="2980" y="-330" width="120" height="80" as="geometry" />
        </mxCell>
        <mxCell id="m_g_pHxch7K9zR3h8Tit-125" value="应用自定义的类加载器" style="shape=document;whiteSpace=wrap;html=1;boundedLbl=1;rounded=0;shadow=1;glass=0;sketch=1;fillColor=#FFCE9F;gradientColor=#ffffff;align=left;" parent="1" vertex="1">
          <mxGeometry x="2830" y="-330" width="120" height="80" as="geometry" />
        </mxCell>
        <mxCell id="m_g_pHxch7K9zR3h8Tit-126" value="" style="endArrow=classic;html=1;dashed=1;exitX=0.007;exitY=0.117;exitDx=0;exitDy=0;exitPerimeter=0;entryX=0.467;entryY=0.888;entryDx=0;entryDy=0;entryPerimeter=0;" parent="1" source="m_g_pHxch7K9zR3h8Tit-105" target="m_g_pHxch7K9zR3h8Tit-123" edge="1">
          <mxGeometry width="50" height="50" relative="1" as="geometry">
            <mxPoint x="3140" y="-150" as="sourcePoint" />
            <mxPoint x="3190" y="-200" as="targetPoint" />
            <Array as="points">
              <mxPoint x="3160" y="-73" />
              <mxPoint x="3160" y="-200" />
            </Array>
          </mxGeometry>
        </mxCell>
        <mxCell id="m_g_pHxch7K9zR3h8Tit-127" value="" style="endArrow=classic;html=1;dashed=1;entryX=0.45;entryY=0.9;entryDx=0;entryDy=0;entryPerimeter=0;exitX=0;exitY=0;exitDx=0;exitDy=0;" parent="1" source="m_g_pHxch7K9zR3h8Tit-106" target="m_g_pHxch7K9zR3h8Tit-124" edge="1">
          <mxGeometry width="50" height="50" relative="1" as="geometry">
            <mxPoint x="3110" y="-140" as="sourcePoint" />
            <mxPoint x="3160" y="-190" as="targetPoint" />
            <Array as="points">
              <mxPoint x="3160" y="10" />
              <mxPoint x="3160" y="-200" />
              <mxPoint x="3034" y="-210" />
            </Array>
          </mxGeometry>
        </mxCell>
        <mxCell id="m_g_pHxch7K9zR3h8Tit-128" value="" style="endArrow=classic;html=1;dashed=1;entryX=0.475;entryY=0.9;entryDx=0;entryDy=0;entryPerimeter=0;exitX=0;exitY=0;exitDx=0;exitDy=0;" parent="1" source="m_g_pHxch7K9zR3h8Tit-107" target="m_g_pHxch7K9zR3h8Tit-125" edge="1">
          <mxGeometry width="50" height="50" relative="1" as="geometry">
            <mxPoint x="3000" y="-180" as="sourcePoint" />
            <mxPoint x="3050" y="-230" as="targetPoint" />
            <Array as="points">
              <mxPoint x="3160" y="110" />
              <mxPoint x="3160" y="-200" />
              <mxPoint x="2887" y="-210" />
            </Array>
          </mxGeometry>
        </mxCell>
        <mxCell id="m_g_pHxch7K9zR3h8Tit-129" value="验证" style="rounded=1;whiteSpace=wrap;html=1;shadow=1;glass=0;sketch=1;fillColor=#FFCE9F;gradientColor=#ffffff;align=center;" parent="1" vertex="1">
          <mxGeometry x="3550" y="-137.5" width="140" height="60" as="geometry" />
        </mxCell>
        <mxCell id="m_g_pHxch7K9zR3h8Tit-130" value="准备" style="rounded=1;whiteSpace=wrap;html=1;shadow=1;glass=0;sketch=1;fillColor=#FFCE9F;gradientColor=#ffffff;align=center;" parent="1" vertex="1">
          <mxGeometry x="3550" y="-27.5" width="140" height="60" as="geometry" />
        </mxCell>
        <mxCell id="m_g_pHxch7K9zR3h8Tit-131" value="解析" style="rounded=1;whiteSpace=wrap;html=1;shadow=1;glass=0;sketch=1;fillColor=#FFCE9F;gradientColor=#ffffff;align=center;" parent="1" vertex="1">
          <mxGeometry x="3550" y="80" width="140" height="60" as="geometry" />
        </mxCell>
        <mxCell id="m_g_pHxch7K9zR3h8Tit-132" value="&lt;div&gt;1) 加载：查找并加载类的二进制数据；&lt;/div&gt;&lt;div&gt;类的加载指的是将类的.class文件中的二进制数据读入到内存中，将其放在运行时数据区的方法区内的运行时数据结构，&lt;/div&gt;&lt;div&gt;然后在内存中(方法区或者堆中取决于Java虚拟机)创建一个这个类的Java.lang.Class对象，用来封装类在方法区类的对象&lt;/div&gt;&lt;div&gt;补充 ：加载方式1、本地加载。2、zip\tar\war解压加载。3、网络加载，如Applet。4、专有数据库加载。5、运行时加载如本图所讲的方式。&lt;/div&gt;" style="shape=document;whiteSpace=wrap;html=1;boundedLbl=1;rounded=0;shadow=1;glass=0;sketch=1;align=left;" parent="1" vertex="1">
          <mxGeometry x="3420" y="-460" width="570" height="140" as="geometry" />
        </mxCell>
        <mxCell id="m_g_pHxch7K9zR3h8Tit-133" value="" style="endArrow=classic;html=1;dashed=1;exitX=0.5;exitY=0;exitDx=0;exitDy=0;entryX=0.14;entryY=0.967;entryDx=0;entryDy=0;entryPerimeter=0;" parent="1" source="m_g_pHxch7K9zR3h8Tit-93" target="m_g_pHxch7K9zR3h8Tit-132" edge="1">
          <mxGeometry width="50" height="50" relative="1" as="geometry">
            <mxPoint x="3430" y="-210" as="sourcePoint" />
            <mxPoint x="3480" y="-260" as="targetPoint" />
          </mxGeometry>
        </mxCell>
        <mxCell id="m_g_pHxch7K9zR3h8Tit-135" value="运行时数据区" style="text;html=1;strokeColor=none;fillColor=none;align=center;verticalAlign=middle;whiteSpace=wrap;rounded=0;shadow=0;glass=0;sketch=0;" parent="1" vertex="1">
          <mxGeometry x="3200" y="380" width="100" height="20" as="geometry" />
        </mxCell>
        <mxCell id="m_g_pHxch7K9zR3h8Tit-136" value="方法区" style="rounded=1;whiteSpace=wrap;html=1;shadow=0;glass=0;sketch=0;fillColor=#60a917;align=center;strokeColor=#2D7600;fontColor=#ffffff;" parent="1" vertex="1">
          <mxGeometry x="3220" y="430" width="420" height="120" as="geometry" />
        </mxCell>
        <mxCell id="m_g_pHxch7K9zR3h8Tit-137" value="Heap堆空间" style="rounded=1;whiteSpace=wrap;html=1;shadow=0;glass=0;sketch=0;fillColor=#60a917;align=center;strokeColor=#2D7600;fontColor=#ffffff;" parent="1" vertex="1">
          <mxGeometry x="3220" y="590" width="420" height="310" as="geometry" />
        </mxCell>
        <mxCell id="m_g_pHxch7K9zR3h8Tit-141" value="运行时常量池" style="ellipse;whiteSpace=wrap;html=1;rounded=0;shadow=0;glass=0;sketch=0;fillColor=#FFCE9F;gradientColor=#ffffff;align=center;" parent="1" vertex="1">
          <mxGeometry x="3240" y="450" width="120" height="80" as="geometry" />
        </mxCell>
        <mxCell id="m_g_pHxch7K9zR3h8Tit-142" value="元空间" style="shape=cylinder3;whiteSpace=wrap;html=1;boundedLbl=1;backgroundOutline=1;size=15;rounded=0;shadow=0;glass=0;sketch=0;fillColor=#FFCE9F;gradientColor=#ffffff;align=center;" parent="1" vertex="1">
          <mxGeometry x="2955" y="450" width="195" height="80" as="geometry" />
        </mxCell>
        <mxCell id="m_g_pHxch7K9zR3h8Tit-143" value="" style="endArrow=classic;html=1;entryX=1;entryY=0.5;entryDx=0;entryDy=0;entryPerimeter=0;" parent="1" target="m_g_pHxch7K9zR3h8Tit-142" edge="1">
          <mxGeometry width="50" height="50" relative="1" as="geometry">
            <mxPoint x="3220" y="490" as="sourcePoint" />
            <mxPoint x="3120" y="560" as="targetPoint" />
          </mxGeometry>
        </mxCell>
        <mxCell id="m_g_pHxch7K9zR3h8Tit-144" value="JDK8以后，常量池移动到堆空间、类信息移动到元空间，去除了方法区" style="text;html=1;strokeColor=none;fillColor=none;align=center;verticalAlign=middle;whiteSpace=wrap;rounded=0;shadow=0;glass=0;sketch=0;" parent="1" vertex="1">
          <mxGeometry x="3370" y="510" width="200" height="20" as="geometry" />
        </mxCell>
        <mxCell id="m_g_pHxch7K9zR3h8Tit-145" value="" style="endArrow=classic;html=1;entryX=0.19;entryY=0;entryDx=0;entryDy=0;entryPerimeter=0;exitX=0.5;exitY=1;exitDx=0;exitDy=0;" parent="1" source="m_g_pHxch7K9zR3h8Tit-141" target="m_g_pHxch7K9zR3h8Tit-137" edge="1">
          <mxGeometry width="50" height="50" relative="1" as="geometry">
            <mxPoint x="3110" y="610" as="sourcePoint" />
            <mxPoint x="3160" y="560" as="targetPoint" />
          </mxGeometry>
        </mxCell>
        <mxCell id="m_g_pHxch7K9zR3h8Tit-146" value="" style="endArrow=classic;html=1;entryX=0.364;entryY=0.013;entryDx=0;entryDy=0;entryPerimeter=0;" parent="1" target="m_g_pHxch7K9zR3h8Tit-142" edge="1">
          <mxGeometry width="50" height="50" relative="1" as="geometry">
            <mxPoint x="3026" y="80" as="sourcePoint" />
            <mxPoint x="3070" y="170" as="targetPoint" />
          </mxGeometry>
        </mxCell>
        <mxCell id="m_g_pHxch7K9zR3h8Tit-147" value="存储" style="edgeLabel;html=1;align=center;verticalAlign=middle;resizable=0;points=[];" parent="m_g_pHxch7K9zR3h8Tit-146" vertex="1" connectable="0">
          <mxGeometry x="-0.3262" relative="1" as="geometry">
            <mxPoint as="offset" />
          </mxGeometry>
        </mxCell>
        <mxCell id="m_g_pHxch7K9zR3h8Tit-148" value="所有线程共享的数据区" style="rounded=1;whiteSpace=wrap;html=1;shadow=0;glass=0;sketch=0;fillColor=#60a917;align=center;strokeColor=#2D7600;fontColor=#ffffff;" parent="1" vertex="1">
          <mxGeometry x="3240" y="930" width="360" height="50" as="geometry" />
        </mxCell>
        <mxCell id="m_g_pHxch7K9zR3h8Tit-149" value="JNI本地方法调用存储栈" style="rounded=1;whiteSpace=wrap;html=1;shadow=0;glass=0;sketch=0;fillColor=#e3c800;align=center;strokeColor=#B09500;fontColor=#000000;" parent="1" vertex="1">
          <mxGeometry x="4190" y="440" width="370" height="120" as="geometry" />
        </mxCell>
        <mxCell id="m_g_pHxch7K9zR3h8Tit-150" value="" style="rounded=1;whiteSpace=wrap;html=1;shadow=0;glass=0;sketch=0;fillColor=#e3c800;align=center;strokeColor=#B09500;fontColor=#000000;" parent="1" vertex="1">
          <mxGeometry x="3740" y="440" width="380" height="350" as="geometry" />
        </mxCell>
        <mxCell id="m_g_pHxch7K9zR3h8Tit-151" value="Native Method Stack 本地方法栈" style="text;html=1;strokeColor=none;fillColor=none;align=center;verticalAlign=middle;whiteSpace=wrap;rounded=0;shadow=0;glass=0;sketch=0;" parent="1" vertex="1">
          <mxGeometry x="4294" y="450" width="182" height="20" as="geometry" />
        </mxCell>
        <mxCell id="m_g_pHxch7K9zR3h8Tit-152" value="Programer Counter Register (PC 寄存器)&lt;br&gt;（每个线程单独维护自己的指令,每次指定执行完毕更新)" style="rounded=1;whiteSpace=wrap;html=1;shadow=0;glass=0;sketch=0;fillColor=#e3c800;align=center;strokeColor=#B09500;fontColor=#000000;" parent="1" vertex="1">
          <mxGeometry x="3750" y="800" width="810" height="90" as="geometry" />
        </mxCell>
        <mxCell id="m_g_pHxch7K9zR3h8Tit-155" value="线程隔离的数据区" style="rounded=1;whiteSpace=wrap;html=1;shadow=0;glass=0;sketch=0;fillColor=#e3c800;align=center;strokeColor=#B09500;fontColor=#000000;" parent="1" vertex="1">
          <mxGeometry x="3710" y="930" width="870" height="50" as="geometry" />
        </mxCell>
        <mxCell id="m_g_pHxch7K9zR3h8Tit-156" value="线程区域-&amp;gt;N个线程" style="text;html=1;strokeColor=none;fillColor=none;align=center;verticalAlign=middle;whiteSpace=wrap;rounded=0;shadow=0;glass=0;dashed=1;sketch=0;" parent="1" vertex="1">
          <mxGeometry x="3710" y="410" width="150.5" height="20" as="geometry" />
        </mxCell>
        <mxCell id="m_g_pHxch7K9zR3h8Tit-158" value="&lt;b&gt;&lt;font color=&quot;#ff0000&quot;&gt;第一步：编译命令&lt;/font&gt;&lt;/b&gt;" style="text;html=1;strokeColor=none;fillColor=none;align=center;verticalAlign=middle;whiteSpace=wrap;rounded=0;shadow=0;glass=0;dashed=1;sketch=0;" parent="1" vertex="1">
          <mxGeometry x="510" y="-71.91" width="100" height="20" as="geometry" />
        </mxCell>
        <mxCell id="m_g_pHxch7K9zR3h8Tit-159" value="&lt;b&gt;&lt;font color=&quot;#ff0000&quot;&gt;第二步：编译执行&lt;/font&gt;&lt;/b&gt;" style="text;html=1;strokeColor=none;fillColor=none;align=center;verticalAlign=middle;whiteSpace=wrap;rounded=0;shadow=0;glass=0;dashed=1;sketch=0;" parent="1" vertex="1">
          <mxGeometry x="1030" y="-150" width="100" height="20" as="geometry" />
        </mxCell>
        <mxCell id="m_g_pHxch7K9zR3h8Tit-160" value="&lt;b&gt;&lt;font color=&quot;#ff0000&quot;&gt;第三步：类装载执行&lt;/font&gt;&lt;/b&gt;" style="text;html=1;strokeColor=none;fillColor=none;align=center;verticalAlign=middle;whiteSpace=wrap;rounded=0;shadow=0;glass=0;dashed=1;sketch=0;" parent="1" vertex="1">
          <mxGeometry x="3480" y="-280" width="140" height="20" as="geometry" />
        </mxCell>
        <mxCell id="m_g_pHxch7K9zR3h8Tit-161" value="&lt;div&gt;3.2.1）验证：确保被加载类的正确性，不会危害虚拟机自身的安全；&lt;/div&gt;&lt;div&gt;&amp;nbsp; &amp;nbsp; &amp;nbsp;1文件格式验证：则是我们之前提到过的[类文件结构验证](https://blog.csdn.net/wolf_love666/article/details/86598763)&lt;/div&gt;&lt;div&gt;&amp;nbsp; &amp;nbsp; &amp;nbsp;魔数、主次版本号、常量池的常量类型、指向常量的各种索引、UTF8编码、Class文件本身和各个部分是否缺失等等&lt;/div&gt;&lt;div&gt;&amp;nbsp; &amp;nbsp; &amp;nbsp;2元数据验证（确保元数据的语义校验通过）：&lt;/div&gt;&lt;div&gt;&amp;nbsp; &amp;nbsp; &amp;nbsp;是否有父类（除Object）、这个类的父类是否继承了不允许被继承的类（被final修饰的类）、如果不是抽象类是否实现了父类或者接口要求的所有方法、类中的字段、方法是否与父类产生矛盾等&lt;/div&gt;&lt;div&gt;&amp;nbsp; &amp;nbsp; &amp;nbsp;3字节码验证（通过数据流和控制流分析，确定程序语义是合法的、符合逻辑）：&lt;/div&gt;&lt;div&gt;&amp;nbsp; &amp;nbsp; &amp;nbsp;任意时候都能确保数据类型被正确使用，跳转指令不会跳转到方法体外的字节码指令上。保证方法体中类型转换是有效的。&lt;/div&gt;&lt;div&gt;&amp;nbsp; &amp;nbsp; &amp;nbsp;4符号引用验证（确保解析动作能正常执行，无法通过的话则java.lang.IncompatibleClassChangeError的子类，如java.lang.IIIegalAccessError、java.lang.NoSuchFieldError、java.lang.NoSuchMethodError等）：&lt;/div&gt;&lt;div&gt;&amp;nbsp; &amp;nbsp; &amp;nbsp;符号引用字符串描述的全限定名是否能找到对应的类，在指定类中是否存在符合方法的字段描述符以及简单名称所描述的方法和字段。符号引用中的类、字段、方法的访问性（private、protected、public、default）是否可被当前类访问&lt;/div&gt;&lt;div&gt;&lt;span&gt; &lt;/span&gt;&amp;nbsp;&lt;/div&gt;&lt;div&gt;&lt;br&gt;&lt;/div&gt;" style="shape=document;whiteSpace=wrap;html=1;boundedLbl=1;rounded=0;shadow=1;glass=0;sketch=1;align=left;" parent="1" vertex="1">
          <mxGeometry x="3999.5" y="-585" width="741" height="290" as="geometry" />
        </mxCell>
        <mxCell id="m_g_pHxch7K9zR3h8Tit-162" value="" style="endArrow=classic;html=1;entryX=0.001;entryY=0.863;entryDx=0;entryDy=0;entryPerimeter=0;dashed=1;" parent="1" target="m_g_pHxch7K9zR3h8Tit-161" edge="1">
          <mxGeometry width="50" height="50" relative="1" as="geometry">
            <mxPoint x="3640" y="-140" as="sourcePoint" />
            <mxPoint x="3690" y="-190" as="targetPoint" />
          </mxGeometry>
        </mxCell>
        <mxCell id="m_g_pHxch7K9zR3h8Tit-163" value="&lt;div&gt;准备：为类的静态变量分配内存，并将其初始化为默认值；&lt;/div&gt;&lt;div&gt;&amp;nbsp; public static int value =123;&lt;/div&gt;&lt;div&gt;&amp;nbsp; 变量value在准备阶段过后的初始值为0而不是123，因为这个时候尚未开始执行任何java方法，而把value赋值为123的putstatic指令是程序被编译后，存放于类构造器&amp;lt;clint&amp;gt;（）方法中。所以把value赋值为123的动作将会在初始化阶段执行。&lt;/div&gt;&lt;div&gt;&amp;nbsp; 但是当final修饰的时候则准备阶段的时候就会为123.会为value生成ConstantValue属性。&lt;/div&gt;" style="shape=document;whiteSpace=wrap;html=1;boundedLbl=1;rounded=0;shadow=1;glass=0;sketch=1;align=left;" parent="1" vertex="1">
          <mxGeometry x="4760" y="-570" width="360" height="250" as="geometry" />
        </mxCell>
        <mxCell id="m_g_pHxch7K9zR3h8Tit-164" value="" style="endArrow=classic;html=1;dashed=1;entryX=0.101;entryY=0.937;entryDx=0;entryDy=0;entryPerimeter=0;" parent="1" target="m_g_pHxch7K9zR3h8Tit-163" edge="1">
          <mxGeometry width="50" height="50" relative="1" as="geometry">
            <mxPoint x="3620" y="-30" as="sourcePoint" />
            <mxPoint x="4290" y="-270" as="targetPoint" />
            <Array as="points">
              <mxPoint x="3960" y="-270" />
              <mxPoint x="4790" y="-290" />
            </Array>
          </mxGeometry>
        </mxCell>
        <mxCell id="m_g_pHxch7K9zR3h8Tit-165" value="" style="endArrow=classic;html=1;exitX=0.5;exitY=1;exitDx=0;exitDy=0;entryX=0.5;entryY=1;entryDx=0;entryDy=0;strokeColor=#FF0080;strokeWidth=2;" parent="1" source="m_g_pHxch7K9zR3h8Tit-131" target="m_g_pHxch7K9zR3h8Tit-60" edge="1">
          <mxGeometry width="50" height="50" relative="1" as="geometry">
            <mxPoint x="3500" y="290" as="sourcePoint" />
            <mxPoint x="2890" y="330" as="targetPoint" />
            <Array as="points">
              <mxPoint x="3620" y="190" />
              <mxPoint x="3620" y="310" />
              <mxPoint x="2275" y="320" />
            </Array>
          </mxGeometry>
        </mxCell>
        <mxCell id="m_g_pHxch7K9zR3h8Tit-168" value="3.2.3、执行字节码指令" style="edgeLabel;html=1;align=center;verticalAlign=middle;resizable=0;points=[];" parent="m_g_pHxch7K9zR3h8Tit-165" vertex="1" connectable="0">
          <mxGeometry x="-0.6059" relative="1" as="geometry">
            <mxPoint x="-1" as="offset" />
          </mxGeometry>
        </mxCell>
        <mxCell id="m_g_pHxch7K9zR3h8Tit-166" value="" style="endArrow=classic;html=1;strokeWidth=2;strokeColor=#FF0080;" parent="1" edge="1">
          <mxGeometry width="50" height="50" relative="1" as="geometry">
            <mxPoint x="2399" y="175" as="sourcePoint" />
            <mxPoint x="2579" y="175" as="targetPoint" />
          </mxGeometry>
        </mxCell>
        <mxCell id="m_g_pHxch7K9zR3h8Tit-167" value="" style="endArrow=classic;html=1;strokeColor=#FF0080;strokeWidth=2;exitX=1;exitY=0.5;exitDx=0;exitDy=0;entryX=0.5;entryY=0;entryDx=0;entryDy=0;" parent="1" source="m_g_pHxch7K9zR3h8Tit-76" target="m_g_pHxch7K9zR3h8Tit-154" edge="1">
          <mxGeometry width="50" height="50" relative="1" as="geometry">
            <mxPoint x="2800" y="300" as="sourcePoint" />
            <mxPoint x="3700" y="300" as="targetPoint" />
            <Array as="points">
              <mxPoint x="4145" y="180" />
            </Array>
          </mxGeometry>
        </mxCell>
        <mxCell id="m_g_pHxch7K9zR3h8Tit-193" value="3.2.3.1、PC寄存器记录指令位置" style="edgeLabel;html=1;align=center;verticalAlign=middle;resizable=0;points=[];" parent="m_g_pHxch7K9zR3h8Tit-167" vertex="1" connectable="0">
          <mxGeometry x="0.2918" relative="1" as="geometry">
            <mxPoint as="offset" />
          </mxGeometry>
        </mxCell>
        <mxCell id="m_g_pHxch7K9zR3h8Tit-169" value="" style="endArrow=classic;html=1;strokeColor=#FF0080;strokeWidth=2;exitX=0.772;exitY=0;exitDx=0;exitDy=0;entryX=0.5;entryY=1;entryDx=0;entryDy=0;exitPerimeter=0;" parent="1" source="m_g_pHxch7K9zR3h8Tit-152" target="m_g_pHxch7K9zR3h8Tit-149" edge="1">
          <mxGeometry width="50" height="50" relative="1" as="geometry">
            <mxPoint x="3950" y="800" as="sourcePoint" />
            <mxPoint x="4180" y="630" as="targetPoint" />
            <Array as="points">
              <mxPoint x="4375" y="670" />
            </Array>
          </mxGeometry>
        </mxCell>
        <mxCell id="m_g_pHxch7K9zR3h8Tit-170" value="" style="endArrow=classic;html=1;strokeColor=#FF0080;strokeWidth=2;exitX=0.5;exitY=0;exitDx=0;exitDy=0;entryX=1;entryY=0.5;entryDx=0;entryDy=0;" parent="1" source="m_g_pHxch7K9zR3h8Tit-152" target="m_g_pHxch7K9zR3h8Tit-150" edge="1">
          <mxGeometry width="50" height="50" relative="1" as="geometry">
            <mxPoint x="3930" y="790" as="sourcePoint" />
            <mxPoint x="3953" y="560" as="targetPoint" />
            <Array as="points">
              <mxPoint x="4155" y="615" />
            </Array>
          </mxGeometry>
        </mxCell>
        <mxCell id="m_g_pHxch7K9zR3h8Tit-172" value="&lt;div&gt;3.2.3）解析：把类中的符号引用（不一定在内存中）转换为直接引用（引用的目标必定在内存中存在）；&lt;/div&gt;&lt;div&gt;在类结构文件中CONSTANT_Class_info、CONSTANT_Fieldref_info、CONSTANT_Methodref_info等类型&lt;/div&gt;&lt;div&gt;类或接口解析&lt;/div&gt;&lt;div&gt;字段解析&lt;/div&gt;&lt;div&gt;类方法解析&lt;/div&gt;&lt;div&gt;接口方法解析&lt;/div&gt;" style="shape=document;whiteSpace=wrap;html=1;boundedLbl=1;rounded=0;shadow=1;glass=0;sketch=1;align=left;" parent="1" vertex="1">
          <mxGeometry x="3420" y="-640" width="570" height="160" as="geometry" />
        </mxCell>
        <mxCell id="m_g_pHxch7K9zR3h8Tit-173" value="" style="endArrow=classic;html=1;strokeWidth=1;exitX=0;exitY=0.5;exitDx=0;exitDy=0;dashed=1;" parent="1" source="m_g_pHxch7K9zR3h8Tit-131" edge="1">
          <mxGeometry width="50" height="50" relative="1" as="geometry">
            <mxPoint x="3540" as="sourcePoint" />
            <mxPoint x="3530" y="-478" as="targetPoint" />
            <Array as="points">
              <mxPoint x="3530" y="110" />
            </Array>
          </mxGeometry>
        </mxCell>
        <mxCell id="m_g_pHxch7K9zR3h8Tit-174" value="VM stack虚拟机栈（Java方法调用存储栈）" style="text;html=1;strokeColor=none;fillColor=none;align=center;verticalAlign=middle;whiteSpace=wrap;rounded=0;shadow=1;glass=0;sketch=1;" parent="1" vertex="1">
          <mxGeometry x="3879.5" y="460" width="140.5" height="20" as="geometry" />
        </mxCell>
        <mxCell id="m_g_pHxch7K9zR3h8Tit-175" value="栈帧" style="rounded=0;whiteSpace=wrap;html=1;shadow=1;glass=0;sketch=1;fillColor=#FFCE9F;gradientColor=#ffffff;align=center;" parent="1" vertex="1">
          <mxGeometry x="3815" y="502" width="250" height="36" as="geometry" />
        </mxCell>
        <mxCell id="m_g_pHxch7K9zR3h8Tit-176" value="栈帧" style="rounded=0;whiteSpace=wrap;html=1;shadow=1;glass=0;sketch=1;fillColor=#FFCE9F;gradientColor=#ffffff;align=center;" parent="1" vertex="1">
          <mxGeometry x="3815" y="538" width="250" height="172" as="geometry" />
        </mxCell>
        <mxCell id="m_g_pHxch7K9zR3h8Tit-177" value="栈帧" style="rounded=0;whiteSpace=wrap;html=1;shadow=1;glass=0;sketch=1;fillColor=#FFCE9F;gradientColor=#ffffff;align=center;" parent="1" vertex="1">
          <mxGeometry x="3815" y="710" width="250" height="30" as="geometry" />
        </mxCell>
        <mxCell id="m_g_pHxch7K9zR3h8Tit-178" value="栈帧" style="rounded=0;whiteSpace=wrap;html=1;shadow=1;glass=0;sketch=1;fillColor=#FFCE9F;gradientColor=#ffffff;align=center;" parent="1" vertex="1">
          <mxGeometry x="3815" y="740" width="250" height="30" as="geometry" />
        </mxCell>
        <mxCell id="m_g_pHxch7K9zR3h8Tit-179" value="局部变量表" style="rounded=0;whiteSpace=wrap;html=1;shadow=1;glass=0;sketch=0;fillColor=#1ba1e2;align=center;strokeColor=#006EAF;fontColor=#ffffff;" parent="1" vertex="1">
          <mxGeometry x="3849.13" y="560" width="181.75" height="30" as="geometry" />
        </mxCell>
        <mxCell id="m_g_pHxch7K9zR3h8Tit-180" value="操作数栈" style="rounded=0;whiteSpace=wrap;html=1;shadow=1;glass=0;sketch=0;fillColor=#1ba1e2;align=center;strokeColor=#006EAF;fontColor=#ffffff;" parent="1" vertex="1">
          <mxGeometry x="3849.13" y="590" width="181.75" height="30" as="geometry" />
        </mxCell>
        <mxCell id="m_g_pHxch7K9zR3h8Tit-181" value="动态链接" style="rounded=0;whiteSpace=wrap;html=1;shadow=1;glass=0;sketch=0;fillColor=#1ba1e2;align=center;strokeColor=#006EAF;fontColor=#ffffff;" parent="1" vertex="1">
          <mxGeometry x="3849.13" y="620" width="181.75" height="30" as="geometry" />
        </mxCell>
        <mxCell id="m_g_pHxch7K9zR3h8Tit-182" value="方法出口" style="rounded=0;whiteSpace=wrap;html=1;shadow=1;glass=0;sketch=0;fillColor=#1ba1e2;align=center;strokeColor=#006EAF;fontColor=#ffffff;" parent="1" vertex="1">
          <mxGeometry x="3849.13" y="650" width="181.75" height="30" as="geometry" />
        </mxCell>
        <mxCell id="m_g_pHxch7K9zR3h8Tit-183" value="" style="endArrow=classic;html=1;strokeWidth=2;exitX=0;exitY=0.75;exitDx=0;exitDy=0;strokeColor=#FF0080;" parent="1" source="m_g_pHxch7K9zR3h8Tit-179" edge="1">
          <mxGeometry width="50" height="50" relative="1" as="geometry">
            <mxPoint x="3760" y="760" as="sourcePoint" />
            <mxPoint x="3640" y="740" as="targetPoint" />
            <Array as="points">
              <mxPoint x="3680" y="580" />
              <mxPoint x="3680" y="740" />
            </Array>
          </mxGeometry>
        </mxCell>
        <mxCell id="m_g_pHxch7K9zR3h8Tit-184" value="&lt;span style=&quot;font-family: &amp;#34;source code pro&amp;#34; , &amp;#34;dejavu sans mono&amp;#34; , &amp;#34;ubuntu mono&amp;#34; , &amp;#34;anonymous pro&amp;#34; , &amp;#34;droid sans mono&amp;#34; , &amp;#34;menlo&amp;#34; , &amp;#34;monaco&amp;#34; , &amp;#34;consolas&amp;#34; , &amp;#34;inconsolata&amp;#34; , &amp;#34;courier&amp;#34; , monospace , &amp;#34;pingfang sc&amp;#34; , &amp;#34;microsoft yahei&amp;#34; , sans-serif ; font-size: 14px ; background-color: rgb(255 , 255 , 255)&quot;&gt;类什么时候才被初始化：&lt;br&gt;3.1）创建类的实例，也就是new一个对象&lt;br&gt;3.2）访问某个类或接口的静态变量，或者对该静态变量赋值&lt;br&gt;3.3）调用类的静态方法&lt;br&gt;3.4）反射&lt;br&gt;3.5）初始化一个类的子类（会首先初始化子类的父类）&lt;br&gt;3.6）JVM启动时标明的启动类，即文件名和类名相同的那个类&lt;/span&gt;" style="shape=document;whiteSpace=wrap;html=1;boundedLbl=1;rounded=0;shadow=1;glass=0;sketch=1;align=left;" parent="1" vertex="1">
          <mxGeometry x="4009" y="-760" width="701" height="160" as="geometry" />
        </mxCell>
        <mxCell id="m_g_pHxch7K9zR3h8Tit-185" value="" style="endArrow=classic;html=1;strokeWidth=1;entryX=0.093;entryY=0.946;entryDx=0;entryDy=0;entryPerimeter=0;exitX=0.75;exitY=0;exitDx=0;exitDy=0;dashed=1;" parent="1" source="m_g_pHxch7K9zR3h8Tit-88" target="m_g_pHxch7K9zR3h8Tit-184" edge="1">
          <mxGeometry width="50" height="50" relative="1" as="geometry">
            <mxPoint x="3910" y="-50" as="sourcePoint" />
            <mxPoint x="3960" y="-100" as="targetPoint" />
          </mxGeometry>
        </mxCell>
        <mxCell id="m_g_pHxch7K9zR3h8Tit-186" value="本地方法库" style="shape=cylinder3;whiteSpace=wrap;html=1;boundedLbl=1;backgroundOutline=1;size=15;rounded=0;shadow=1;glass=0;sketch=0;fillColor=#a0522d;align=center;strokeColor=#6D1F00;fontColor=#ffffff;" parent="1" vertex="1">
          <mxGeometry x="3190" y="1210" width="1410" height="70" as="geometry" />
        </mxCell>
        <mxCell id="m_g_pHxch7K9zR3h8Tit-187" value="JNI本地方法接口（JNI与本地方法库交互，并提供执行引擎所需要的本机库）" style="rounded=0;whiteSpace=wrap;html=1;shadow=1;glass=0;sketch=0;fillColor=#e1d5e7;align=center;strokeColor=#9673a6;" parent="1" vertex="1">
          <mxGeometry x="3200" y="1080" width="1400" height="51" as="geometry" />
        </mxCell>
        <mxCell id="m_g_pHxch7K9zR3h8Tit-188" value="" style="endArrow=classic;html=1;strokeColor=#000000;strokeWidth=1;exitX=0.5;exitY=1;exitDx=0;exitDy=0;" parent="1" source="m_g_pHxch7K9zR3h8Tit-187" edge="1">
          <mxGeometry width="50" height="50" relative="1" as="geometry">
            <mxPoint x="4000" y="1190" as="sourcePoint" />
            <mxPoint x="3900" y="1210" as="targetPoint" />
          </mxGeometry>
        </mxCell>
        <mxCell id="m_g_pHxch7K9zR3h8Tit-190" value="" style="endArrow=classic;html=1;strokeColor=#000000;strokeWidth=1;entryX=0.5;entryY=0;entryDx=0;entryDy=0;exitX=1;exitY=0.5;exitDx=0;exitDy=0;" parent="1" source="m_g_pHxch7K9zR3h8Tit-149" target="m_g_pHxch7K9zR3h8Tit-187" edge="1">
          <mxGeometry width="50" height="50" relative="1" as="geometry">
            <mxPoint x="4040" y="1030" as="sourcePoint" />
            <mxPoint x="4090" y="980" as="targetPoint" />
            <Array as="points">
              <mxPoint x="4640" y="500" />
              <mxPoint x="4640" y="880" />
              <mxPoint x="4640" y="1040" />
              <mxPoint x="3900" y="1040" />
            </Array>
          </mxGeometry>
        </mxCell>
        <mxCell id="m_g_pHxch7K9zR3h8Tit-191" value="" style="endArrow=classic;html=1;strokeColor=#000000;strokeWidth=1;exitX=0.851;exitY=1.004;exitDx=0;exitDy=0;exitPerimeter=0;" parent="1" source="m_g_pHxch7K9zR3h8Tit-44" edge="1">
          <mxGeometry width="50" height="50" relative="1" as="geometry">
            <mxPoint x="2130" y="450" as="sourcePoint" />
            <mxPoint x="3880" y="1080" as="targetPoint" />
            <Array as="points">
              <mxPoint x="2235" y="1030" />
              <mxPoint x="3880" y="1040" />
            </Array>
          </mxGeometry>
        </mxCell>
        <mxCell id="m_g_pHxch7K9zR3h8Tit-196" value="3.2.2、为静态变量分配内存" style="endArrow=classic;html=1;strokeWidth=2;exitX=1;exitY=0.5;exitDx=0;exitDy=0;entryX=0.955;entryY=0.039;entryDx=0;entryDy=0;entryPerimeter=0;strokeColor=#FF0080;" parent="1" source="m_g_pHxch7K9zR3h8Tit-130" target="m_g_pHxch7K9zR3h8Tit-137" edge="1">
          <mxGeometry width="50" height="50" relative="1" as="geometry">
            <mxPoint x="3760" y="140" as="sourcePoint" />
            <mxPoint x="3810" y="90" as="targetPoint" />
            <Array as="points">
              <mxPoint x="3710" y="3" />
              <mxPoint x="3670" y="560" />
            </Array>
          </mxGeometry>
        </mxCell>
      </root>
    </mxGraphModel>
  </diagram>
  <diagram id="NSvcGYhkNIYvIpPgZgbc" name="Page-2">
    <mxGraphModel dx="2253" dy="794" grid="1" gridSize="10" guides="1" tooltips="1" connect="1" arrows="1" fold="1" page="1" pageScale="1" pageWidth="827" pageHeight="1169" math="0" shadow="0">
      <root>
        <mxCell id="7_MB8whWrckdRAy6M9es-0" />
        <mxCell id="7_MB8whWrckdRAy6M9es-1" parent="7_MB8whWrckdRAy6M9es-0" />
        <mxCell id="7_MB8whWrckdRAy6M9es-173" value="" style="rounded=0;whiteSpace=wrap;html=1;" vertex="1" parent="7_MB8whWrckdRAy6M9es-1">
          <mxGeometry x="-17" y="100" width="927" height="500" as="geometry" />
        </mxCell>
        <mxCell id="7_MB8whWrckdRAy6M9es-3" value="" style="rounded=0;whiteSpace=wrap;html=1;" vertex="1" parent="7_MB8whWrckdRAy6M9es-1">
          <mxGeometry x="30" y="120" width="50" height="40" as="geometry" />
        </mxCell>
        <mxCell id="7_MB8whWrckdRAy6M9es-4" value="" style="rounded=0;whiteSpace=wrap;html=1;fillColor=#dae8fc;strokeColor=#6c8ebf;" vertex="1" parent="7_MB8whWrckdRAy6M9es-1">
          <mxGeometry x="80" y="120" width="50" height="40" as="geometry" />
        </mxCell>
        <mxCell id="7_MB8whWrckdRAy6M9es-5" value="" style="rounded=0;whiteSpace=wrap;html=1;" vertex="1" parent="7_MB8whWrckdRAy6M9es-1">
          <mxGeometry x="130" y="120" width="50" height="40" as="geometry" />
        </mxCell>
        <mxCell id="7_MB8whWrckdRAy6M9es-6" value="" style="rounded=0;whiteSpace=wrap;html=1;" vertex="1" parent="7_MB8whWrckdRAy6M9es-1">
          <mxGeometry x="180" y="120" width="50" height="40" as="geometry" />
        </mxCell>
        <mxCell id="7_MB8whWrckdRAy6M9es-7" value="" style="rounded=0;whiteSpace=wrap;html=1;" vertex="1" parent="7_MB8whWrckdRAy6M9es-1">
          <mxGeometry x="230" y="120" width="50" height="40" as="geometry" />
        </mxCell>
        <mxCell id="7_MB8whWrckdRAy6M9es-8" value="" style="rounded=0;whiteSpace=wrap;html=1;" vertex="1" parent="7_MB8whWrckdRAy6M9es-1">
          <mxGeometry x="280" y="120" width="50" height="40" as="geometry" />
        </mxCell>
        <mxCell id="7_MB8whWrckdRAy6M9es-9" value="" style="rounded=0;whiteSpace=wrap;html=1;" vertex="1" parent="7_MB8whWrckdRAy6M9es-1">
          <mxGeometry x="30" y="160" width="50" height="40" as="geometry" />
        </mxCell>
        <mxCell id="7_MB8whWrckdRAy6M9es-10" value="" style="rounded=0;whiteSpace=wrap;html=1;" vertex="1" parent="7_MB8whWrckdRAy6M9es-1">
          <mxGeometry x="80" y="160" width="50" height="40" as="geometry" />
        </mxCell>
        <mxCell id="7_MB8whWrckdRAy6M9es-11" value="" style="rounded=0;whiteSpace=wrap;html=1;" vertex="1" parent="7_MB8whWrckdRAy6M9es-1">
          <mxGeometry x="130" y="160" width="50" height="40" as="geometry" />
        </mxCell>
        <mxCell id="7_MB8whWrckdRAy6M9es-12" value="" style="rounded=0;whiteSpace=wrap;html=1;" vertex="1" parent="7_MB8whWrckdRAy6M9es-1">
          <mxGeometry x="180" y="160" width="50" height="40" as="geometry" />
        </mxCell>
        <mxCell id="7_MB8whWrckdRAy6M9es-13" value="&lt;span&gt;Humongous对象&lt;/span&gt;" style="rounded=0;whiteSpace=wrap;html=1;fillColor=#dae8fc;strokeColor=#6c8ebf;" vertex="1" parent="7_MB8whWrckdRAy6M9es-1">
          <mxGeometry x="230" y="160" width="100" height="40" as="geometry" />
        </mxCell>
        <mxCell id="7_MB8whWrckdRAy6M9es-15" value="" style="rounded=0;whiteSpace=wrap;html=1;" vertex="1" parent="7_MB8whWrckdRAy6M9es-1">
          <mxGeometry x="30" y="200" width="50" height="40" as="geometry" />
        </mxCell>
        <mxCell id="7_MB8whWrckdRAy6M9es-16" value="" style="rounded=0;whiteSpace=wrap;html=1;" vertex="1" parent="7_MB8whWrckdRAy6M9es-1">
          <mxGeometry x="80" y="200" width="50" height="40" as="geometry" />
        </mxCell>
        <mxCell id="7_MB8whWrckdRAy6M9es-17" value="" style="rounded=0;whiteSpace=wrap;html=1;fillColor=#ffe6cc;strokeColor=#d79b00;" vertex="1" parent="7_MB8whWrckdRAy6M9es-1">
          <mxGeometry x="130" y="200" width="50" height="40" as="geometry" />
        </mxCell>
        <mxCell id="7_MB8whWrckdRAy6M9es-18" value="" style="rounded=0;whiteSpace=wrap;html=1;" vertex="1" parent="7_MB8whWrckdRAy6M9es-1">
          <mxGeometry x="180" y="200" width="50" height="40" as="geometry" />
        </mxCell>
        <mxCell id="7_MB8whWrckdRAy6M9es-19" value="" style="rounded=0;whiteSpace=wrap;html=1;" vertex="1" parent="7_MB8whWrckdRAy6M9es-1">
          <mxGeometry x="230" y="200" width="50" height="40" as="geometry" />
        </mxCell>
        <mxCell id="7_MB8whWrckdRAy6M9es-20" value="" style="rounded=0;whiteSpace=wrap;html=1;" vertex="1" parent="7_MB8whWrckdRAy6M9es-1">
          <mxGeometry x="280" y="200" width="50" height="40" as="geometry" />
        </mxCell>
        <mxCell id="7_MB8whWrckdRAy6M9es-21" value="" style="rounded=0;whiteSpace=wrap;html=1;fillColor=#e1d5e7;strokeColor=#9673a6;" vertex="1" parent="7_MB8whWrckdRAy6M9es-1">
          <mxGeometry x="30" y="240" width="50" height="40" as="geometry" />
        </mxCell>
        <mxCell id="7_MB8whWrckdRAy6M9es-22" value="" style="rounded=0;whiteSpace=wrap;html=1;" vertex="1" parent="7_MB8whWrckdRAy6M9es-1">
          <mxGeometry x="80" y="240" width="50" height="40" as="geometry" />
        </mxCell>
        <mxCell id="7_MB8whWrckdRAy6M9es-23" value="" style="rounded=0;whiteSpace=wrap;html=1;" vertex="1" parent="7_MB8whWrckdRAy6M9es-1">
          <mxGeometry x="130" y="240" width="50" height="40" as="geometry" />
        </mxCell>
        <mxCell id="7_MB8whWrckdRAy6M9es-24" value="" style="rounded=0;whiteSpace=wrap;html=1;" vertex="1" parent="7_MB8whWrckdRAy6M9es-1">
          <mxGeometry x="180" y="240" width="50" height="40" as="geometry" />
        </mxCell>
        <mxCell id="7_MB8whWrckdRAy6M9es-25" value="" style="rounded=0;whiteSpace=wrap;html=1;" vertex="1" parent="7_MB8whWrckdRAy6M9es-1">
          <mxGeometry x="230" y="240" width="50" height="40" as="geometry" />
        </mxCell>
        <mxCell id="7_MB8whWrckdRAy6M9es-26" value="" style="rounded=0;whiteSpace=wrap;html=1;fillColor=#e1d5e7;strokeColor=#9673a6;" vertex="1" parent="7_MB8whWrckdRAy6M9es-1">
          <mxGeometry x="280" y="240" width="50" height="40" as="geometry" />
        </mxCell>
        <mxCell id="7_MB8whWrckdRAy6M9es-28" value="" style="rounded=0;whiteSpace=wrap;html=1;" vertex="1" parent="7_MB8whWrckdRAy6M9es-1">
          <mxGeometry x="80" y="280" width="50" height="40" as="geometry" />
        </mxCell>
        <mxCell id="7_MB8whWrckdRAy6M9es-29" value="" style="rounded=0;whiteSpace=wrap;html=1;" vertex="1" parent="7_MB8whWrckdRAy6M9es-1">
          <mxGeometry x="130" y="280" width="50" height="40" as="geometry" />
        </mxCell>
        <mxCell id="7_MB8whWrckdRAy6M9es-30" value="" style="rounded=0;whiteSpace=wrap;html=1;fillColor=#dae8fc;strokeColor=#6c8ebf;" vertex="1" parent="7_MB8whWrckdRAy6M9es-1">
          <mxGeometry x="180" y="280" width="50" height="40" as="geometry" />
        </mxCell>
        <mxCell id="7_MB8whWrckdRAy6M9es-31" value="" style="rounded=0;whiteSpace=wrap;html=1;" vertex="1" parent="7_MB8whWrckdRAy6M9es-1">
          <mxGeometry x="230" y="280" width="50" height="40" as="geometry" />
        </mxCell>
        <mxCell id="7_MB8whWrckdRAy6M9es-32" value="" style="rounded=0;whiteSpace=wrap;html=1;" vertex="1" parent="7_MB8whWrckdRAy6M9es-1">
          <mxGeometry x="280" y="280" width="50" height="40" as="geometry" />
        </mxCell>
        <mxCell id="7_MB8whWrckdRAy6M9es-33" value="" style="rounded=0;whiteSpace=wrap;html=1;" vertex="1" parent="7_MB8whWrckdRAy6M9es-1">
          <mxGeometry x="30" y="320" width="50" height="40" as="geometry" />
        </mxCell>
        <mxCell id="7_MB8whWrckdRAy6M9es-34" value="" style="rounded=0;whiteSpace=wrap;html=1;fillColor=#e1d5e7;strokeColor=#9673a6;" vertex="1" parent="7_MB8whWrckdRAy6M9es-1">
          <mxGeometry x="80" y="320" width="50" height="40" as="geometry" />
        </mxCell>
        <mxCell id="7_MB8whWrckdRAy6M9es-35" value="" style="rounded=0;whiteSpace=wrap;html=1;" vertex="1" parent="7_MB8whWrckdRAy6M9es-1">
          <mxGeometry x="130" y="320" width="50" height="40" as="geometry" />
        </mxCell>
        <mxCell id="7_MB8whWrckdRAy6M9es-36" value="" style="rounded=0;whiteSpace=wrap;html=1;" vertex="1" parent="7_MB8whWrckdRAy6M9es-1">
          <mxGeometry x="180" y="320" width="50" height="40" as="geometry" />
        </mxCell>
        <mxCell id="7_MB8whWrckdRAy6M9es-37" value="" style="rounded=0;whiteSpace=wrap;html=1;" vertex="1" parent="7_MB8whWrckdRAy6M9es-1">
          <mxGeometry x="230" y="320" width="50" height="40" as="geometry" />
        </mxCell>
        <mxCell id="7_MB8whWrckdRAy6M9es-38" value="" style="rounded=0;whiteSpace=wrap;html=1;" vertex="1" parent="7_MB8whWrckdRAy6M9es-1">
          <mxGeometry x="280" y="320" width="50" height="40" as="geometry" />
        </mxCell>
        <mxCell id="7_MB8whWrckdRAy6M9es-39" value="" style="rounded=0;whiteSpace=wrap;html=1;" vertex="1" parent="7_MB8whWrckdRAy6M9es-1">
          <mxGeometry x="330" y="120" width="50" height="40" as="geometry" />
        </mxCell>
        <mxCell id="7_MB8whWrckdRAy6M9es-40" value="" style="rounded=0;whiteSpace=wrap;html=1;" vertex="1" parent="7_MB8whWrckdRAy6M9es-1">
          <mxGeometry x="380" y="120" width="50" height="40" as="geometry" />
        </mxCell>
        <mxCell id="7_MB8whWrckdRAy6M9es-51" value="" style="rounded=0;whiteSpace=wrap;html=1;fillColor=#ffff88;strokeColor=#36393d;" vertex="1" parent="7_MB8whWrckdRAy6M9es-1">
          <mxGeometry x="330" y="320" width="50" height="40" as="geometry" />
        </mxCell>
        <mxCell id="7_MB8whWrckdRAy6M9es-52" value="" style="rounded=0;whiteSpace=wrap;html=1;" vertex="1" parent="7_MB8whWrckdRAy6M9es-1">
          <mxGeometry x="380" y="320" width="50" height="40" as="geometry" />
        </mxCell>
        <mxCell id="7_MB8whWrckdRAy6M9es-57" value="" style="rounded=0;whiteSpace=wrap;html=1;" vertex="1" parent="7_MB8whWrckdRAy6M9es-1">
          <mxGeometry x="330" y="240" width="50" height="40" as="geometry" />
        </mxCell>
        <mxCell id="7_MB8whWrckdRAy6M9es-58" value="" style="rounded=0;whiteSpace=wrap;html=1;" vertex="1" parent="7_MB8whWrckdRAy6M9es-1">
          <mxGeometry x="380" y="240" width="50" height="40" as="geometry" />
        </mxCell>
        <mxCell id="7_MB8whWrckdRAy6M9es-63" value="" style="rounded=0;whiteSpace=wrap;html=1;" vertex="1" parent="7_MB8whWrckdRAy6M9es-1">
          <mxGeometry x="330" y="200" width="50" height="40" as="geometry" />
        </mxCell>
        <mxCell id="7_MB8whWrckdRAy6M9es-64" value="" style="rounded=0;whiteSpace=wrap;html=1;" vertex="1" parent="7_MB8whWrckdRAy6M9es-1">
          <mxGeometry x="380" y="200" width="50" height="40" as="geometry" />
        </mxCell>
        <mxCell id="7_MB8whWrckdRAy6M9es-69" value="" style="rounded=0;whiteSpace=wrap;html=1;" vertex="1" parent="7_MB8whWrckdRAy6M9es-1">
          <mxGeometry x="330" y="160" width="50" height="40" as="geometry" />
        </mxCell>
        <mxCell id="7_MB8whWrckdRAy6M9es-70" value="" style="rounded=0;whiteSpace=wrap;html=1;fillColor=#ffe6cc;strokeColor=#d79b00;" vertex="1" parent="7_MB8whWrckdRAy6M9es-1">
          <mxGeometry x="380" y="160" width="50" height="40" as="geometry" />
        </mxCell>
        <mxCell id="7_MB8whWrckdRAy6M9es-75" value="" style="rounded=0;whiteSpace=wrap;html=1;" vertex="1" parent="7_MB8whWrckdRAy6M9es-1">
          <mxGeometry x="30" y="280" width="50" height="40" as="geometry" />
        </mxCell>
        <mxCell id="7_MB8whWrckdRAy6M9es-76" value="" style="rounded=0;whiteSpace=wrap;html=1;" vertex="1" parent="7_MB8whWrckdRAy6M9es-1">
          <mxGeometry x="330" y="280" width="50" height="40" as="geometry" />
        </mxCell>
        <mxCell id="7_MB8whWrckdRAy6M9es-77" value="" style="rounded=0;whiteSpace=wrap;html=1;fillColor=#dae8fc;strokeColor=#6c8ebf;" vertex="1" parent="7_MB8whWrckdRAy6M9es-1">
          <mxGeometry x="380" y="280" width="50" height="40" as="geometry" />
        </mxCell>
        <mxCell id="7_MB8whWrckdRAy6M9es-82" value="" style="rounded=0;whiteSpace=wrap;html=1;" vertex="1" parent="7_MB8whWrckdRAy6M9es-1">
          <mxGeometry x="30" y="360" width="50" height="40" as="geometry" />
        </mxCell>
        <mxCell id="7_MB8whWrckdRAy6M9es-83" value="" style="rounded=0;whiteSpace=wrap;html=1;" vertex="1" parent="7_MB8whWrckdRAy6M9es-1">
          <mxGeometry x="80" y="360" width="50" height="40" as="geometry" />
        </mxCell>
        <mxCell id="7_MB8whWrckdRAy6M9es-84" value="" style="rounded=0;whiteSpace=wrap;html=1;" vertex="1" parent="7_MB8whWrckdRAy6M9es-1">
          <mxGeometry x="130" y="360" width="50" height="40" as="geometry" />
        </mxCell>
        <mxCell id="7_MB8whWrckdRAy6M9es-85" value="" style="rounded=0;whiteSpace=wrap;html=1;" vertex="1" parent="7_MB8whWrckdRAy6M9es-1">
          <mxGeometry x="180" y="360" width="50" height="40" as="geometry" />
        </mxCell>
        <mxCell id="7_MB8whWrckdRAy6M9es-86" value="Humongous对象" style="rounded=0;whiteSpace=wrap;html=1;fillColor=#dae8fc;strokeColor=#6c8ebf;" vertex="1" parent="7_MB8whWrckdRAy6M9es-1">
          <mxGeometry x="230" y="360" width="150" height="40" as="geometry" />
        </mxCell>
        <mxCell id="7_MB8whWrckdRAy6M9es-89" value="" style="rounded=0;whiteSpace=wrap;html=1;" vertex="1" parent="7_MB8whWrckdRAy6M9es-1">
          <mxGeometry x="380" y="360" width="50" height="40" as="geometry" />
        </mxCell>
        <mxCell id="7_MB8whWrckdRAy6M9es-90" value="" style="rounded=0;whiteSpace=wrap;html=1;" vertex="1" parent="7_MB8whWrckdRAy6M9es-1">
          <mxGeometry x="30" y="400" width="50" height="40" as="geometry" />
        </mxCell>
        <mxCell id="7_MB8whWrckdRAy6M9es-91" value="" style="rounded=0;whiteSpace=wrap;html=1;fillColor=#ffe6cc;strokeColor=#d79b00;" vertex="1" parent="7_MB8whWrckdRAy6M9es-1">
          <mxGeometry x="80" y="400" width="50" height="40" as="geometry" />
        </mxCell>
        <mxCell id="7_MB8whWrckdRAy6M9es-92" value="" style="rounded=0;whiteSpace=wrap;html=1;" vertex="1" parent="7_MB8whWrckdRAy6M9es-1">
          <mxGeometry x="130" y="400" width="50" height="40" as="geometry" />
        </mxCell>
        <mxCell id="7_MB8whWrckdRAy6M9es-93" value="" style="rounded=0;whiteSpace=wrap;html=1;" vertex="1" parent="7_MB8whWrckdRAy6M9es-1">
          <mxGeometry x="180" y="400" width="50" height="40" as="geometry" />
        </mxCell>
        <mxCell id="7_MB8whWrckdRAy6M9es-94" value="" style="rounded=0;whiteSpace=wrap;html=1;" vertex="1" parent="7_MB8whWrckdRAy6M9es-1">
          <mxGeometry x="230" y="400" width="50" height="40" as="geometry" />
        </mxCell>
        <mxCell id="7_MB8whWrckdRAy6M9es-95" value="" style="rounded=0;whiteSpace=wrap;html=1;" vertex="1" parent="7_MB8whWrckdRAy6M9es-1">
          <mxGeometry x="280" y="400" width="50" height="40" as="geometry" />
        </mxCell>
        <mxCell id="7_MB8whWrckdRAy6M9es-96" value="" style="rounded=0;whiteSpace=wrap;html=1;" vertex="1" parent="7_MB8whWrckdRAy6M9es-1">
          <mxGeometry x="330" y="400" width="50" height="40" as="geometry" />
        </mxCell>
        <mxCell id="7_MB8whWrckdRAy6M9es-97" value="" style="rounded=0;whiteSpace=wrap;html=1;" vertex="1" parent="7_MB8whWrckdRAy6M9es-1">
          <mxGeometry x="380" y="400" width="50" height="40" as="geometry" />
        </mxCell>
        <mxCell id="7_MB8whWrckdRAy6M9es-98" value="年轻代" style="text;html=1;strokeColor=#6c8ebf;fillColor=#dae8fc;align=center;verticalAlign=middle;whiteSpace=wrap;rounded=0;" vertex="1" parent="7_MB8whWrckdRAy6M9es-1">
          <mxGeometry x="30" y="470" width="40" height="20" as="geometry" />
        </mxCell>
        <mxCell id="7_MB8whWrckdRAy6M9es-99" value="老年代" style="text;html=1;strokeColor=#d79b00;fillColor=#ffe6cc;align=center;verticalAlign=middle;whiteSpace=wrap;rounded=0;" vertex="1" parent="7_MB8whWrckdRAy6M9es-1">
          <mxGeometry x="240" y="470" width="40" height="20" as="geometry" />
        </mxCell>
        <mxCell id="7_MB8whWrckdRAy6M9es-100" value="" style="rounded=0;whiteSpace=wrap;html=1;" vertex="1" parent="7_MB8whWrckdRAy6M9es-1">
          <mxGeometry x="430" y="120" width="50" height="40" as="geometry" />
        </mxCell>
        <mxCell id="7_MB8whWrckdRAy6M9es-101" value="" style="rounded=0;whiteSpace=wrap;html=1;" vertex="1" parent="7_MB8whWrckdRAy6M9es-1">
          <mxGeometry x="480" y="120" width="50" height="40" as="geometry" />
        </mxCell>
        <mxCell id="7_MB8whWrckdRAy6M9es-102" value="" style="rounded=0;whiteSpace=wrap;html=1;" vertex="1" parent="7_MB8whWrckdRAy6M9es-1">
          <mxGeometry x="530" y="120" width="50" height="40" as="geometry" />
        </mxCell>
        <mxCell id="7_MB8whWrckdRAy6M9es-103" value="" style="rounded=0;whiteSpace=wrap;html=1;" vertex="1" parent="7_MB8whWrckdRAy6M9es-1">
          <mxGeometry x="580" y="120" width="50" height="40" as="geometry" />
        </mxCell>
        <mxCell id="7_MB8whWrckdRAy6M9es-104" value="" style="rounded=0;whiteSpace=wrap;html=1;" vertex="1" parent="7_MB8whWrckdRAy6M9es-1">
          <mxGeometry x="630" y="120" width="50" height="40" as="geometry" />
        </mxCell>
        <mxCell id="7_MB8whWrckdRAy6M9es-105" value="" style="rounded=0;whiteSpace=wrap;html=1;" vertex="1" parent="7_MB8whWrckdRAy6M9es-1">
          <mxGeometry x="680" y="120" width="50" height="40" as="geometry" />
        </mxCell>
        <mxCell id="7_MB8whWrckdRAy6M9es-106" value="" style="rounded=0;whiteSpace=wrap;html=1;" vertex="1" parent="7_MB8whWrckdRAy6M9es-1">
          <mxGeometry x="730" y="120" width="50" height="40" as="geometry" />
        </mxCell>
        <mxCell id="7_MB8whWrckdRAy6M9es-107" value="" style="rounded=0;whiteSpace=wrap;html=1;" vertex="1" parent="7_MB8whWrckdRAy6M9es-1">
          <mxGeometry x="780" y="120" width="50" height="40" as="geometry" />
        </mxCell>
        <mxCell id="7_MB8whWrckdRAy6M9es-108" value="" style="rounded=0;whiteSpace=wrap;html=1;" vertex="1" parent="7_MB8whWrckdRAy6M9es-1">
          <mxGeometry x="430" y="160" width="50" height="40" as="geometry" />
        </mxCell>
        <mxCell id="7_MB8whWrckdRAy6M9es-110" value="" style="rounded=0;whiteSpace=wrap;html=1;" vertex="1" parent="7_MB8whWrckdRAy6M9es-1">
          <mxGeometry x="530" y="160" width="50" height="40" as="geometry" />
        </mxCell>
        <mxCell id="7_MB8whWrckdRAy6M9es-111" value="" style="rounded=0;whiteSpace=wrap;html=1;" vertex="1" parent="7_MB8whWrckdRAy6M9es-1">
          <mxGeometry x="580" y="160" width="50" height="40" as="geometry" />
        </mxCell>
        <mxCell id="7_MB8whWrckdRAy6M9es-112" value="" style="rounded=0;whiteSpace=wrap;html=1;" vertex="1" parent="7_MB8whWrckdRAy6M9es-1">
          <mxGeometry x="630" y="160" width="50" height="40" as="geometry" />
        </mxCell>
        <mxCell id="7_MB8whWrckdRAy6M9es-113" value="" style="rounded=0;whiteSpace=wrap;html=1;" vertex="1" parent="7_MB8whWrckdRAy6M9es-1">
          <mxGeometry x="680" y="160" width="50" height="40" as="geometry" />
        </mxCell>
        <mxCell id="7_MB8whWrckdRAy6M9es-114" value="" style="rounded=0;whiteSpace=wrap;html=1;" vertex="1" parent="7_MB8whWrckdRAy6M9es-1">
          <mxGeometry x="730" y="160" width="50" height="40" as="geometry" />
        </mxCell>
        <mxCell id="7_MB8whWrckdRAy6M9es-115" value="" style="rounded=0;whiteSpace=wrap;html=1;" vertex="1" parent="7_MB8whWrckdRAy6M9es-1">
          <mxGeometry x="780" y="160" width="50" height="40" as="geometry" />
        </mxCell>
        <mxCell id="7_MB8whWrckdRAy6M9es-116" value="" style="rounded=0;whiteSpace=wrap;html=1;" vertex="1" parent="7_MB8whWrckdRAy6M9es-1">
          <mxGeometry x="430" y="200" width="50" height="40" as="geometry" />
        </mxCell>
        <mxCell id="7_MB8whWrckdRAy6M9es-118" value="" style="rounded=0;whiteSpace=wrap;html=1;" vertex="1" parent="7_MB8whWrckdRAy6M9es-1">
          <mxGeometry x="530" y="200" width="50" height="40" as="geometry" />
        </mxCell>
        <mxCell id="7_MB8whWrckdRAy6M9es-119" value="" style="rounded=0;whiteSpace=wrap;html=1;" vertex="1" parent="7_MB8whWrckdRAy6M9es-1">
          <mxGeometry x="580" y="200" width="50" height="40" as="geometry" />
        </mxCell>
        <mxCell id="7_MB8whWrckdRAy6M9es-120" value="" style="rounded=0;whiteSpace=wrap;html=1;" vertex="1" parent="7_MB8whWrckdRAy6M9es-1">
          <mxGeometry x="630" y="200" width="50" height="40" as="geometry" />
        </mxCell>
        <mxCell id="7_MB8whWrckdRAy6M9es-121" value="" style="rounded=0;whiteSpace=wrap;html=1;" vertex="1" parent="7_MB8whWrckdRAy6M9es-1">
          <mxGeometry x="680" y="200" width="50" height="40" as="geometry" />
        </mxCell>
        <mxCell id="7_MB8whWrckdRAy6M9es-122" value="" style="rounded=0;whiteSpace=wrap;html=1;" vertex="1" parent="7_MB8whWrckdRAy6M9es-1">
          <mxGeometry x="730" y="200" width="50" height="40" as="geometry" />
        </mxCell>
        <mxCell id="7_MB8whWrckdRAy6M9es-123" value="" style="rounded=0;whiteSpace=wrap;html=1;" vertex="1" parent="7_MB8whWrckdRAy6M9es-1">
          <mxGeometry x="780" y="200" width="50" height="40" as="geometry" />
        </mxCell>
        <mxCell id="7_MB8whWrckdRAy6M9es-124" value="" style="rounded=0;whiteSpace=wrap;html=1;" vertex="1" parent="7_MB8whWrckdRAy6M9es-1">
          <mxGeometry x="430" y="240" width="50" height="40" as="geometry" />
        </mxCell>
        <mxCell id="7_MB8whWrckdRAy6M9es-126" value="" style="rounded=0;whiteSpace=wrap;html=1;" vertex="1" parent="7_MB8whWrckdRAy6M9es-1">
          <mxGeometry x="530" y="240" width="50" height="40" as="geometry" />
        </mxCell>
        <mxCell id="7_MB8whWrckdRAy6M9es-127" value="" style="rounded=0;whiteSpace=wrap;html=1;" vertex="1" parent="7_MB8whWrckdRAy6M9es-1">
          <mxGeometry x="580" y="240" width="50" height="40" as="geometry" />
        </mxCell>
        <mxCell id="7_MB8whWrckdRAy6M9es-128" value="" style="rounded=0;whiteSpace=wrap;html=1;" vertex="1" parent="7_MB8whWrckdRAy6M9es-1">
          <mxGeometry x="630" y="240" width="50" height="40" as="geometry" />
        </mxCell>
        <mxCell id="7_MB8whWrckdRAy6M9es-129" value="" style="rounded=0;whiteSpace=wrap;html=1;" vertex="1" parent="7_MB8whWrckdRAy6M9es-1">
          <mxGeometry x="680" y="240" width="50" height="40" as="geometry" />
        </mxCell>
        <mxCell id="7_MB8whWrckdRAy6M9es-130" value="" style="rounded=0;whiteSpace=wrap;html=1;" vertex="1" parent="7_MB8whWrckdRAy6M9es-1">
          <mxGeometry x="730" y="240" width="50" height="40" as="geometry" />
        </mxCell>
        <mxCell id="7_MB8whWrckdRAy6M9es-131" value="" style="rounded=0;whiteSpace=wrap;html=1;" vertex="1" parent="7_MB8whWrckdRAy6M9es-1">
          <mxGeometry x="780" y="240" width="50" height="40" as="geometry" />
        </mxCell>
        <mxCell id="7_MB8whWrckdRAy6M9es-132" value="" style="rounded=0;whiteSpace=wrap;html=1;" vertex="1" parent="7_MB8whWrckdRAy6M9es-1">
          <mxGeometry x="430" y="280" width="50" height="40" as="geometry" />
        </mxCell>
        <mxCell id="7_MB8whWrckdRAy6M9es-134" value="" style="rounded=0;whiteSpace=wrap;html=1;" vertex="1" parent="7_MB8whWrckdRAy6M9es-1">
          <mxGeometry x="530" y="280" width="50" height="40" as="geometry" />
        </mxCell>
        <mxCell id="7_MB8whWrckdRAy6M9es-135" value="" style="rounded=0;whiteSpace=wrap;html=1;" vertex="1" parent="7_MB8whWrckdRAy6M9es-1">
          <mxGeometry x="580" y="280" width="50" height="40" as="geometry" />
        </mxCell>
        <mxCell id="7_MB8whWrckdRAy6M9es-136" value="" style="rounded=0;whiteSpace=wrap;html=1;" vertex="1" parent="7_MB8whWrckdRAy6M9es-1">
          <mxGeometry x="630" y="280" width="50" height="40" as="geometry" />
        </mxCell>
        <mxCell id="7_MB8whWrckdRAy6M9es-137" value="" style="rounded=0;whiteSpace=wrap;html=1;" vertex="1" parent="7_MB8whWrckdRAy6M9es-1">
          <mxGeometry x="680" y="280" width="50" height="40" as="geometry" />
        </mxCell>
        <mxCell id="7_MB8whWrckdRAy6M9es-138" value="" style="rounded=0;whiteSpace=wrap;html=1;" vertex="1" parent="7_MB8whWrckdRAy6M9es-1">
          <mxGeometry x="730" y="280" width="50" height="40" as="geometry" />
        </mxCell>
        <mxCell id="7_MB8whWrckdRAy6M9es-139" value="" style="rounded=0;whiteSpace=wrap;html=1;" vertex="1" parent="7_MB8whWrckdRAy6M9es-1">
          <mxGeometry x="780" y="280" width="50" height="40" as="geometry" />
        </mxCell>
        <mxCell id="7_MB8whWrckdRAy6M9es-140" value="" style="rounded=0;whiteSpace=wrap;html=1;" vertex="1" parent="7_MB8whWrckdRAy6M9es-1">
          <mxGeometry x="430" y="320" width="50" height="40" as="geometry" />
        </mxCell>
        <mxCell id="7_MB8whWrckdRAy6M9es-142" value="" style="rounded=0;whiteSpace=wrap;html=1;" vertex="1" parent="7_MB8whWrckdRAy6M9es-1">
          <mxGeometry x="530" y="320" width="50" height="40" as="geometry" />
        </mxCell>
        <mxCell id="7_MB8whWrckdRAy6M9es-143" value="" style="rounded=0;whiteSpace=wrap;html=1;" vertex="1" parent="7_MB8whWrckdRAy6M9es-1">
          <mxGeometry x="580" y="320" width="50" height="40" as="geometry" />
        </mxCell>
        <mxCell id="7_MB8whWrckdRAy6M9es-144" value="" style="rounded=0;whiteSpace=wrap;html=1;" vertex="1" parent="7_MB8whWrckdRAy6M9es-1">
          <mxGeometry x="630" y="320" width="50" height="40" as="geometry" />
        </mxCell>
        <mxCell id="7_MB8whWrckdRAy6M9es-145" value="" style="rounded=0;whiteSpace=wrap;html=1;" vertex="1" parent="7_MB8whWrckdRAy6M9es-1">
          <mxGeometry x="680" y="320" width="50" height="40" as="geometry" />
        </mxCell>
        <mxCell id="7_MB8whWrckdRAy6M9es-146" value="" style="rounded=0;whiteSpace=wrap;html=1;" vertex="1" parent="7_MB8whWrckdRAy6M9es-1">
          <mxGeometry x="730" y="320" width="50" height="40" as="geometry" />
        </mxCell>
        <mxCell id="7_MB8whWrckdRAy6M9es-147" value="" style="rounded=0;whiteSpace=wrap;html=1;" vertex="1" parent="7_MB8whWrckdRAy6M9es-1">
          <mxGeometry x="780" y="320" width="50" height="40" as="geometry" />
        </mxCell>
        <mxCell id="7_MB8whWrckdRAy6M9es-148" value="" style="rounded=0;whiteSpace=wrap;html=1;" vertex="1" parent="7_MB8whWrckdRAy6M9es-1">
          <mxGeometry x="430" y="360" width="50" height="40" as="geometry" />
        </mxCell>
        <mxCell id="7_MB8whWrckdRAy6M9es-149" value="&lt;span&gt;Humongous对象&lt;/span&gt;" style="rounded=0;whiteSpace=wrap;html=1;fillColor=#ffe6cc;strokeColor=#d79b00;" vertex="1" parent="7_MB8whWrckdRAy6M9es-1">
          <mxGeometry x="480" y="160" width="50" height="240" as="geometry" />
        </mxCell>
        <mxCell id="7_MB8whWrckdRAy6M9es-150" value="" style="rounded=0;whiteSpace=wrap;html=1;" vertex="1" parent="7_MB8whWrckdRAy6M9es-1">
          <mxGeometry x="530" y="360" width="50" height="40" as="geometry" />
        </mxCell>
        <mxCell id="7_MB8whWrckdRAy6M9es-151" value="" style="rounded=0;whiteSpace=wrap;html=1;" vertex="1" parent="7_MB8whWrckdRAy6M9es-1">
          <mxGeometry x="580" y="360" width="50" height="40" as="geometry" />
        </mxCell>
        <mxCell id="7_MB8whWrckdRAy6M9es-152" value="" style="rounded=0;whiteSpace=wrap;html=1;" vertex="1" parent="7_MB8whWrckdRAy6M9es-1">
          <mxGeometry x="630" y="360" width="50" height="40" as="geometry" />
        </mxCell>
        <mxCell id="7_MB8whWrckdRAy6M9es-153" value="" style="rounded=0;whiteSpace=wrap;html=1;" vertex="1" parent="7_MB8whWrckdRAy6M9es-1">
          <mxGeometry x="680" y="360" width="50" height="40" as="geometry" />
        </mxCell>
        <mxCell id="7_MB8whWrckdRAy6M9es-154" value="" style="rounded=0;whiteSpace=wrap;html=1;" vertex="1" parent="7_MB8whWrckdRAy6M9es-1">
          <mxGeometry x="730" y="360" width="50" height="40" as="geometry" />
        </mxCell>
        <mxCell id="7_MB8whWrckdRAy6M9es-155" value="" style="rounded=0;whiteSpace=wrap;html=1;" vertex="1" parent="7_MB8whWrckdRAy6M9es-1">
          <mxGeometry x="780" y="360" width="50" height="40" as="geometry" />
        </mxCell>
        <mxCell id="7_MB8whWrckdRAy6M9es-156" value="" style="rounded=0;whiteSpace=wrap;html=1;" vertex="1" parent="7_MB8whWrckdRAy6M9es-1">
          <mxGeometry x="430" y="400" width="50" height="40" as="geometry" />
        </mxCell>
        <mxCell id="7_MB8whWrckdRAy6M9es-157" value="" style="rounded=0;whiteSpace=wrap;html=1;" vertex="1" parent="7_MB8whWrckdRAy6M9es-1">
          <mxGeometry x="480" y="400" width="50" height="40" as="geometry" />
        </mxCell>
        <mxCell id="7_MB8whWrckdRAy6M9es-158" value="" style="rounded=0;whiteSpace=wrap;html=1;" vertex="1" parent="7_MB8whWrckdRAy6M9es-1">
          <mxGeometry x="530" y="400" width="50" height="40" as="geometry" />
        </mxCell>
        <mxCell id="7_MB8whWrckdRAy6M9es-159" value="" style="rounded=0;whiteSpace=wrap;html=1;" vertex="1" parent="7_MB8whWrckdRAy6M9es-1">
          <mxGeometry x="580" y="400" width="50" height="40" as="geometry" />
        </mxCell>
        <mxCell id="7_MB8whWrckdRAy6M9es-160" value="" style="rounded=0;whiteSpace=wrap;html=1;" vertex="1" parent="7_MB8whWrckdRAy6M9es-1">
          <mxGeometry x="630" y="400" width="50" height="40" as="geometry" />
        </mxCell>
        <mxCell id="7_MB8whWrckdRAy6M9es-161" value="" style="rounded=0;whiteSpace=wrap;html=1;" vertex="1" parent="7_MB8whWrckdRAy6M9es-1">
          <mxGeometry x="680" y="400" width="50" height="40" as="geometry" />
        </mxCell>
        <mxCell id="7_MB8whWrckdRAy6M9es-162" value="" style="rounded=0;whiteSpace=wrap;html=1;" vertex="1" parent="7_MB8whWrckdRAy6M9es-1">
          <mxGeometry x="730" y="400" width="50" height="40" as="geometry" />
        </mxCell>
        <mxCell id="7_MB8whWrckdRAy6M9es-163" value="" style="rounded=0;whiteSpace=wrap;html=1;" vertex="1" parent="7_MB8whWrckdRAy6M9es-1">
          <mxGeometry x="780" y="400" width="50" height="40" as="geometry" />
        </mxCell>
        <mxCell id="7_MB8whWrckdRAy6M9es-164" value="混合集合(可回收)" style="text;html=1;strokeColor=#9673a6;fillColor=#e1d5e7;align=center;verticalAlign=middle;whiteSpace=wrap;rounded=0;" vertex="1" parent="7_MB8whWrckdRAy6M9es-1">
          <mxGeometry x="102.5" y="530" width="105" height="20" as="geometry" />
        </mxCell>
        <mxCell id="7_MB8whWrckdRAy6M9es-165" value="幸存区" style="text;html=1;strokeColor=#36393d;fillColor=#ffff88;align=center;verticalAlign=middle;whiteSpace=wrap;rounded=0;" vertex="1" parent="7_MB8whWrckdRAy6M9es-1">
          <mxGeometry x="135" y="470" width="40" height="20" as="geometry" />
        </mxCell>
        <mxCell id="7_MB8whWrckdRAy6M9es-166" value="回收依然存活的对象复制到另一个区域" style="curved=1;endArrow=classic;html=1;exitX=0.5;exitY=0;exitDx=0;exitDy=0;entryX=0;entryY=0.5;entryDx=0;entryDy=0;" edge="1" parent="7_MB8whWrckdRAy6M9es-1" source="7_MB8whWrckdRAy6M9es-32" target="7_MB8whWrckdRAy6M9es-51">
          <mxGeometry width="50" height="50" relative="1" as="geometry">
            <mxPoint x="410" y="570" as="sourcePoint" />
            <mxPoint x="460" y="520" as="targetPoint" />
            <Array as="points">
              <mxPoint x="290" y="330" />
              <mxPoint x="305" y="340" />
            </Array>
          </mxGeometry>
        </mxCell>
        <mxCell id="7_MB8whWrckdRAy6M9es-167" value="" style="endArrow=classic;html=1;exitX=1;exitY=0.5;exitDx=0;exitDy=0;" edge="1" parent="7_MB8whWrckdRAy6M9es-1" source="7_MB8whWrckdRAy6M9es-98">
          <mxGeometry width="50" height="50" relative="1" as="geometry">
            <mxPoint x="30" y="550" as="sourcePoint" />
            <mxPoint x="100" y="540" as="targetPoint" />
          </mxGeometry>
        </mxCell>
        <mxCell id="7_MB8whWrckdRAy6M9es-168" value="" style="endArrow=classic;html=1;exitX=0.5;exitY=1;exitDx=0;exitDy=0;" edge="1" parent="7_MB8whWrckdRAy6M9es-1" source="7_MB8whWrckdRAy6M9es-99">
          <mxGeometry width="50" height="50" relative="1" as="geometry">
            <mxPoint x="220" y="570" as="sourcePoint" />
            <mxPoint x="210" y="540" as="targetPoint" />
          </mxGeometry>
        </mxCell>
        <mxCell id="7_MB8whWrckdRAy6M9es-169" value="" style="endArrow=classic;html=1;entryX=0.5;entryY=0;entryDx=0;entryDy=0;exitX=0.5;exitY=1;exitDx=0;exitDy=0;" edge="1" parent="7_MB8whWrckdRAy6M9es-1" source="7_MB8whWrckdRAy6M9es-165" target="7_MB8whWrckdRAy6M9es-164">
          <mxGeometry width="50" height="50" relative="1" as="geometry">
            <mxPoint x="10" y="600" as="sourcePoint" />
            <mxPoint x="60" y="550" as="targetPoint" />
          </mxGeometry>
        </mxCell>
        <mxCell id="7_MB8whWrckdRAy6M9es-170" value="" style="endArrow=classic;html=1;entryX=0.5;entryY=1;entryDx=0;entryDy=0;exitX=0;exitY=0.75;exitDx=0;exitDy=0;dashed=1;strokeColor=#FF0080;" edge="1" parent="7_MB8whWrckdRAy6M9es-1" source="7_MB8whWrckdRAy6M9es-149" target="7_MB8whWrckdRAy6M9es-77">
          <mxGeometry width="50" height="50" relative="1" as="geometry">
            <mxPoint x="420" y="530" as="sourcePoint" />
            <mxPoint x="470" y="480" as="targetPoint" />
            <Array as="points">
              <mxPoint x="405" y="340" />
            </Array>
          </mxGeometry>
        </mxCell>
        <mxCell id="7_MB8whWrckdRAy6M9es-171" value="" style="endArrow=classic;html=1;dashed=1;strokeColor=#FF0080;" edge="1" parent="7_MB8whWrckdRAy6M9es-1" source="7_MB8whWrckdRAy6M9es-172">
          <mxGeometry width="50" height="50" relative="1" as="geometry">
            <mxPoint x="320" y="480" as="sourcePoint" />
            <mxPoint x="370" y="480" as="targetPoint" />
          </mxGeometry>
        </mxCell>
        <mxCell id="7_MB8whWrckdRAy6M9es-172" value="指针记录在Rset集合" style="text;html=1;strokeColor=none;fillColor=none;align=center;verticalAlign=middle;whiteSpace=wrap;rounded=0;" vertex="1" parent="7_MB8whWrckdRAy6M9es-1">
          <mxGeometry x="414" y="470" width="116" height="20" as="geometry" />
        </mxCell>
      </root>
    </mxGraphModel>
  </diagram>
</mxfile>
